<svg xmlns="http://www.w3.org/2000/svg" xmlns:xlink="http://www.w3.org/1999/xlink" width="99" height="99" viewBox="0 0 99 99">
  <defs>
    <clipPath id="clip-path">
      <rect id="Rectangle_403416" data-name="Rectangle 403416" width="97.687" height="91.902" fill="#d1f3f5"/>
    </clipPath>
    <clipPath id="clip-path-2">
      <path id="Path_875268" data-name="Path 875268" d="M1.5,23.675l-1.5.6V36.6a8.4,8.4,0,0,0,3.3,6.507L40.867,73.755a13.171,13.171,0,0,0,15.954,0L94.388,43.113a8.425,8.425,0,0,0,3.3-6.393c0-.1,0-.206,0-.309l.006,0V24.386l-2.354-1.849A12.143,12.143,0,0,1,85.987,32.73L59.069,54.97,47.32,60.964l-37.5-27.34.867-.708c-3.2-2.116-4.931-6.953-6.664-11.367Z" transform="translate(0 -21.549)" fill="#61dfe4"/>
    </clipPath>
    <clipPath id="clip-path-3">
      <rect id="Rectangle_403409" data-name="Rectangle 403409" width="97.687" height="91.903" fill="none"/>
    </clipPath>
    <clipPath id="clip-path-4">
      <rect id="Rectangle_403408" data-name="Rectangle 403408" width="48.843" height="53.75" fill="none"/>
    </clipPath>
    <clipPath id="clip-path-5">
      <path id="Path_875270" data-name="Path 875270" d="M34.642,9.4,3.311,35.8c1.733,4.413,3.46,9.251,6.664,11.367l35.6-29.041a4.219,4.219,0,0,1,5.109,0L85.662,46.66l-.388.323A12.143,12.143,0,0,0,94.62,36.789L55.364,5.942,43.942,1.678Z" transform="translate(-3.311 -1.678)" fill="#61dfe4"/>
    </clipPath>
    <clipPath id="clip-path-7">
      <rect id="Rectangle_403411" data-name="Rectangle 403411" width="44.819" height="45.491" fill="none"/>
    </clipPath>
    <clipPath id="clip-path-8">
      <path id="Path_875272" data-name="Path 875272" d="M46.289,72.571,8.722,41.927a2.585,2.585,0,0,1,0-4.17L46.288,7.115a4.217,4.217,0,0,1,5.109,0L88.965,37.759a2.583,2.583,0,0,1,0,4.168L51.4,72.57a4.218,4.218,0,0,1-5.109,0M48.7,0a12.642,12.642,0,0,0-7.835,2.691L3.3,33.335a8.067,8.067,0,0,0,0,13.013L40.867,76.993a13.166,13.166,0,0,0,15.954,0L94.388,46.349a8.067,8.067,0,0,0,0-13.013L56.82,2.691A12.642,12.642,0,0,0,48.985,0Z" transform="translate(-0.001)" fill="#98baff"/>
    </clipPath>
    <clipPath id="clip-path-10">
      <path id="Path_875275" data-name="Path 875275" d="M44.962,72.924,7.4,42.282a3.659,3.659,0,0,1,0-5.9L44.961,5.738a5.97,5.97,0,0,1,7.232,0L89.76,36.383a3.657,3.657,0,0,1,0,5.9L52.193,72.924a5.97,5.97,0,0,1-7.231,0M41.66,3.046,4.094,33.689a7,7,0,0,0,0,11.284L41.662,75.619a11.426,11.426,0,0,0,13.833,0L93.062,44.973a6.994,6.994,0,0,0,0-11.282L55.493,3.046a11.416,11.416,0,0,0-13.833,0" transform="translate(-1.234 -0.712)" fill="#98baff"/>
    </clipPath>
    <clipPath id="clip-path-11">
      <rect id="Rectangle_403406" data-name="Rectangle 403406" width="38.332" height="22.221" fill="#0f398d"/>
    </clipPath>
    <clipPath id="clip-path-12">
      <rect id="Rectangle_403518" data-name="Rectangle 403518" width="82.49" height="80.524" fill="#cbdcff"/>
    </clipPath>
    <clipPath id="clip-path-13">
      <rect id="Rectangle_403232" data-name="Rectangle 403232" width="99" height="79.995" fill="#0f398d"/>
    </clipPath>
    <clipPath id="clip-path-14">
      <rect id="Rectangle_404096" data-name="Rectangle 404096" width="52.542" height="52.697" fill="#0c2d70"/>
    </clipPath>
  </defs>
  <g id="img6" transform="translate(-961 -2218.7)">
    <g id="Group_1100969" data-name="Group 1100969" transform="translate(961 2218.7)">
      <g id="Group_1100744" data-name="Group 1100744" transform="translate(0.004 7.098)">
        <g id="Group_1100514" data-name="Group 1100514" clip-path="url(#clip-path)">
          <g id="Group_1100495" data-name="Group 1100495" transform="translate(0 37.005)">
            <g id="Group_1100494" data-name="Group 1100494" clip-path="url(#clip-path-2)">
              <path id="Path_875399" data-name="Path 875399" d="M18.655,14.846,127.412,0,108.757,115.115,0,129.961Z" transform="translate(-39.284 50.577) rotate(-60)" fill="#61dfe4"/>
            </g>
          </g>
          <g id="Group_1100500" data-name="Group 1100500" transform="translate(0 0)">
            <g id="Group_1100499" data-name="Group 1100499" clip-path="url(#clip-path-3)">
              <g id="Group_1100498" data-name="Group 1100498" transform="translate(48.843 38.152)" opacity="0.3">
                <g id="Group_1100497" data-name="Group 1100497">
                  <g id="Group_1100496" data-name="Group 1100496" clip-path="url(#clip-path-4)">
                    <path id="Path_875269" data-name="Path 875269" d="M77.329,32.25,50.411,54.49,40.185,59.707V75.968a12.671,12.671,0,0,0,7.978-2.691L85.73,42.632a8.422,8.422,0,0,0,3.3-6.392c0-.1,0-.208,0-.311l.006,0V23.908l-2.153-1.692h-.225A12.151,12.151,0,0,1,77.329,32.25" transform="translate(-40.185 -22.217)" fill="#0f054c"/>
                  </g>
                </g>
              </g>
            </g>
          </g>
          <g id="Group_1100502" data-name="Group 1100502" transform="translate(4.024 2.882)">
            <g id="Group_1100501" data-name="Group 1100501" clip-path="url(#clip-path-5)">
              <path id="Path_875400" data-name="Path 875400" d="M17.015,13.147,113.324,0,96.309,105,0,118.145Z" transform="matrix(0.5, -0.866, 0.866, 0.5, -33.835, 42.279)" fill="#61dfe4"/>
            </g>
          </g>
          <g id="Group_1100507" data-name="Group 1100507" transform="translate(0 0)">
            <g id="Group_1100506" data-name="Group 1100506" clip-path="url(#clip-path-3)">
              <g id="Group_1100505" data-name="Group 1100505" transform="translate(4.024 2.881)" opacity="0.3">
                <g id="Group_1100504" data-name="Group 1100504">
                  <g id="Group_1100503" data-name="Group 1100503" clip-path="url(#clip-path-7)">
                    <path id="Path_875271" data-name="Path 875271" d="M48.13,3.241,43.942,1.677,34.642,9.4,3.311,35.8c1.733,4.413,3.459,9.253,6.664,11.368l35.6-29.041a4.062,4.062,0,0,1,2.555-.86Z" transform="translate(-3.311 -1.678)" fill="#0f054c"/>
                  </g>
                </g>
              </g>
            </g>
          </g>
          <g id="Group_1100509" data-name="Group 1100509" transform="translate(0.001)">
            <g id="Group_1100508" data-name="Group 1100508" clip-path="url(#clip-path-8)">
              <rect id="Rectangle_403413" data-name="Rectangle 403413" width="99.885" height="80.582" transform="translate(-1.099 0)" fill="#98baff"/>
            </g>
          </g>
          <g id="Group_1100511" data-name="Group 1100511" transform="translate(0 0)">
            <g id="Group_1100510" data-name="Group 1100510" clip-path="url(#clip-path-3)">
              <path id="Path_875273" data-name="Path 875273" d="M87.606,35.147,50.038,4.5a4.217,4.217,0,0,0-5.109,0L7.363,35.146a2.592,2.592,0,0,0-.935,2.833,2.846,2.846,0,0,1,.935-1.334L44.93,6a4.217,4.217,0,0,1,5.109,0L87.606,36.645a2.85,2.85,0,0,1,.935,1.336,2.592,2.592,0,0,0-.935-2.833" transform="translate(1.359 2.612)" fill="#fff"/>
              <path id="Path_875274" data-name="Path 875274" d="M94.388,29.4,56.821,60.039a13.166,13.166,0,0,1-15.954,0L3.3,29.395A8.537,8.537,0,0,1,.04,23.637,8.284,8.284,0,0,0,3.3,30.894L40.867,61.539a13.171,13.171,0,0,0,15.954,0L94.388,30.894a8.281,8.281,0,0,0,3.259-7.255A8.539,8.539,0,0,1,94.388,29.4" transform="translate(0.001 16.954)" fill="#fff"/>
            </g>
          </g>
          <g id="Group_1100513" data-name="Group 1100513" transform="translate(1.5 1.223)">
            <g id="Group_1100512" data-name="Group 1100512" clip-path="url(#clip-path-10)">
              <rect id="Rectangle_403415" data-name="Rectangle 403415" width="96.595" height="78.015" transform="translate(-0.954 0)" fill="#98baff"/>
            </g>
          </g>
        </g>
      </g>
      <g id="Group_1100747" data-name="Group 1100747" transform="translate(0 76.779)">
        <g id="Group_1100491" data-name="Group 1100491" transform="translate(0 0)" clip-path="url(#clip-path-11)">
          <path id="Path_875261" data-name="Path 875261" d="M30.025,21.071a1.151,1.151,0,1,1,1.151,1.15,1.151,1.151,0,0,1-1.151-1.15m-4.854,1.15a1.151,1.151,0,1,0-1.151-1.15,1.15,1.15,0,0,0,1.151,1.15m-6.005,0a1.151,1.151,0,1,0-1.151-1.15,1.15,1.15,0,0,0,1.151,1.15m-6.005,0a1.151,1.151,0,1,0-1.151-1.15,1.15,1.15,0,0,0,1.151,1.15m-6.005,0a1.151,1.151,0,1,0-1.151-1.15,1.15,1.15,0,0,0,1.151,1.15m-6.005,0A1.151,1.151,0,1,0,0,21.071a1.15,1.15,0,0,0,1.151,1.15m30.025-6.528a1.151,1.151,0,1,0-1.151-1.151,1.151,1.151,0,0,0,1.151,1.151m-6.005,0a1.151,1.151,0,1,0-1.151-1.151,1.151,1.151,0,0,0,1.151,1.151m-6.005,0a1.151,1.151,0,1,0-1.151-1.151,1.151,1.151,0,0,0,1.151,1.151m-6.005,0a1.151,1.151,0,1,0-1.151-1.151,1.151,1.151,0,0,0,1.151,1.151m-6.005,0a1.151,1.151,0,1,0-1.151-1.151,1.151,1.151,0,0,0,1.151,1.151m-6.005,0A1.151,1.151,0,1,0,0,14.542a1.151,1.151,0,0,0,1.151,1.151M31.176,9.165a1.151,1.151,0,1,0-1.151-1.151,1.151,1.151,0,0,0,1.151,1.151M36.03,21.071a1.151,1.151,0,1,1,1.151,1.15,1.151,1.151,0,0,1-1.151-1.15m1.151-5.378a1.151,1.151,0,1,0-1.151-1.151,1.151,1.151,0,0,0,1.151,1.151m0-6.528A1.151,1.151,0,1,0,36.03,8.014a1.151,1.151,0,0,0,1.151,1.151m-12.01,0A1.151,1.151,0,1,0,24.02,8.014a1.151,1.151,0,0,0,1.151,1.151m-6.005,0a1.151,1.151,0,1,0-1.151-1.151,1.151,1.151,0,0,0,1.151,1.151m-6.005,0A1.151,1.151,0,1,0,12.01,8.014a1.151,1.151,0,0,0,1.151,1.151m-6.005,0A1.151,1.151,0,1,0,6.005,8.014,1.151,1.151,0,0,0,7.156,9.165m-6.005,0A1.151,1.151,0,1,0,0,8.014,1.151,1.151,0,0,0,1.151,9.165M31.176,2.3a1.151,1.151,0,1,0-1.151-1.151A1.151,1.151,0,0,0,31.176,2.3m6.005,0A1.151,1.151,0,1,0,36.03,1.151,1.151,1.151,0,0,0,37.181,2.3m-12.01,0A1.151,1.151,0,1,0,24.02,1.151,1.151,1.151,0,0,0,25.171,2.3m-6.005,0a1.151,1.151,0,1,0-1.151-1.151A1.151,1.151,0,0,0,19.166,2.3m-6.005,0A1.151,1.151,0,1,0,12.01,1.151,1.151,1.151,0,0,0,13.161,2.3m-6.005,0A1.151,1.151,0,1,0,6.005,1.151,1.151,1.151,0,0,0,7.156,2.3m-6.005,0A1.151,1.151,0,1,0,0,1.151,1.151,1.151,0,0,0,1.151,2.3" transform="translate(0 0)" fill="#0f398d"/>
        </g>
      </g>
      <g id="Group_1100749" data-name="Group 1100749" transform="translate(7.664)">
        <g id="Group_1100748" data-name="Group 1100748" clip-path="url(#clip-path-12)">
          <path id="Path_875398" data-name="Path 875398" d="M8.527,0H73.888a8.471,8.471,0,0,1,8.564,8.374l-.043,42.7L46.453,79.117a10.488,10.488,0,0,1-10.493,0L-.184,49.467-.036,8.374A8.47,8.47,0,0,1,8.527,0" transform="translate(0.039 0)" fill="#cbdcff"/>
        </g>
      </g>
      <g id="Group_1100745" data-name="Group 1100745" transform="translate(0 1.529)">
        <g id="Group_1100096" data-name="Group 1100096" transform="translate(0 0)" clip-path="url(#clip-path-13)">
          <path id="Path_873771" data-name="Path 873771" d="M49.5,80a11.773,11.773,0,0,1-7.351-2.447L3.141,46.183a7.662,7.662,0,0,1,0-12.372L42.147,2.445a12.282,12.282,0,0,1,14.705,0L95.86,33.812a7.662,7.662,0,0,1,0,12.372L56.854,77.549A11.777,11.777,0,0,1,49.5,80M49.5.938a11.235,11.235,0,0,0-7.011,2.331L3.483,34.633a6.537,6.537,0,0,0,0,10.725L42.492,76.727a11.713,11.713,0,0,0,14.02,0L95.518,45.361a6.537,6.537,0,0,0,0-10.725L56.511,3.269A11.235,11.235,0,0,0,49.5.938" transform="translate(0 -0.001)" fill="#0f398d"/>
        </g>
      </g>
      <rect id="Rectangle_403516" data-name="Rectangle 403516" width="82.49" height="44.076" rx="9" transform="translate(7.664 0.529)" fill="#cbdcff"/>
    </g>
    <g id="Group_1101795" data-name="Group 1101795" transform="translate(983.729 2226.841)">
      <g id="Group_1101794" data-name="Group 1101794" clip-path="url(#clip-path-14)">
        <path id="Path_876106" data-name="Path 876106" d="M327.519,244.919c2.636-.381,3.99,1.8,3.044,4.171a60.008,60.008,0,0,1-4.71,9.473l-5.883,5.957a2.454,2.454,0,0,1,.437,1.174,52.363,52.363,0,0,1,0,7.052,1.779,1.779,0,0,1-1.553,1.734c-3.211-.216-6.794.287-9.96,0a1.774,1.774,0,0,1-1.64-1.553c-.251-2.341.181-5.118.009-7.506a1.952,1.952,0,0,1,.789-1.183c.353-.244.706-.193.975-.434a10.48,10.48,0,0,1,1.456-6.622c1.509-2.362,3.234-2.482,5.441-3.763,2.363-1.372,3.838-3.935,6.948-2.872.209.071.683.416.824.315l2.023-4.649a2.736,2.736,0,0,1,1.8-1.3M310.87,263.961h7.138c1.951-2.2,4.5-4.172,6.388-6.386,2.083-2.442,3.126-6.808,4.72-9.651a1.037,1.037,0,0,0-1.937-.715c-.831,1.348-1.412,3.579-2.157,5.075a12.973,12.973,0,0,1-1.987,2.8,42.71,42.71,0,0,1-4.046,4.032c-.984.637-1.978-.313-1.172-1.36,1.122-1.456,3.072-2.872,4.324-4.317.246-.284.452-.612.7-.894a2.266,2.266,0,0,0-2.6-.16c-.912.533-1.94,1.625-2.984,2.276-2.281,1.421-4.427,1.554-5.736,4.22a9.222,9.222,0,0,0-.8,3.523c-.011.277-.07,1.487.145,1.554m7.749,1.785h-9.58v6.95h9.58Z" transform="translate(-278.322 -221.876)" fill="#0c2d70"/>
        <path id="Path_876107" data-name="Path 876107" d="M346.178,494.572c.578-.129,1.874-.177,1.994.6.189,1.212-1.013,1.209-1.915,1.069a.872.872,0,0,1-.079-1.665" transform="translate(-313.141 -448.053)" fill="#0c2d70"/>
        <path id="Path_876108" data-name="Path 876108" d="M2.329,245.034a2.9,2.9,0,0,1,3.017,1.536l1.887,4.411c.107.068.778-.277.987-.338,3.028-.885,4.1,1.241,6.312,2.614s4.286,1.586,5.835,3.933a10.471,10.471,0,0,1,1.532,6.733c.268.241.622.19.975.434a1.951,1.951,0,0,1,.789,1.183c-.172,2.387.259,5.165.009,7.506a1.779,1.779,0,0,1-1.64,1.553c-3.184-.22-6.73.28-9.87,0a1.76,1.76,0,0,1-1.644-1.737,52.475,52.475,0,0,1,.093-7.522c.08-.269.263-.454.341-.705l-5.88-5.956C2.9,255.629,1.743,251.885.1,248.526a2.838,2.838,0,0,1,2.226-3.492m10.589,19.042h7.138c.212,0,.152-1.4.14-1.643a10.83,10.83,0,0,0-.4-2.417c-1.106-3.665-3.742-3.643-6.484-5.445-1.038-.682-2.553-2.321-3.71-2.4a2.421,2.421,0,0,0-1.519.495c.235.269.421.577.653.848,1.259,1.466,3.236,2.887,4.372,4.363.81,1.052-.126,2.057-1.17,1.358A40.34,40.34,0,0,1,7.984,255.3,13.04,13.04,0,0,1,5.9,252.4c-.743-1.491-1.335-3.742-2.157-5.075a1.038,1.038,0,0,0-1.917.79c1.6,2.826,2.623,7.14,4.7,9.576,1.888,2.214,4.438,4.189,6.388,6.386m-.611,8.735h9.58v-6.95h-9.58Z" transform="translate(0 -221.991)" fill="#0c2d70"/>
        <path id="Path_876109" data-name="Path 876109" d="M187.365,494.541c.7-.156,2.018-.162,2.066.793.051,1.01-1.293.98-1.986.872a.88.88,0,0,1-.079-1.665" transform="translate(-169.261 -448.021)" fill="#0c2d70"/>
        <path id="Path_876110" data-name="Path 876110" d="M143.832.027a.845.845,0,0,1,.341-.016l13.367,5.8a.869.869,0,0,1,.5.813c-.276,4.806.351,9.993,0,14.754-.491,6.637-8.78,9.577-13.121,13.459a1.881,1.881,0,0,1-1.754,0c-3.01-2.518-6.867-4.557-9.786-7.121a9.8,9.8,0,0,1-3.336-6.432c-.312-4.763.246-9.862,0-14.661a.869.869,0,0,1,.5-.813Zm.1,1.874L131.785,7.238l-.051,12.92a8.086,8.086,0,0,0,3.638,6.882c2.808,2.174,5.832,4.108,8.7,6.2l9.594-6.938a8.212,8.212,0,0,0,2.683-6.052c.221-4.191-.178-8.572,0-12.783l-.051-.23L144.159,1.9a.437.437,0,0,0-.232,0" transform="translate(-117.742 0)" fill="#0c2d70"/>
        <path id="Path_876111" data-name="Path 876111" d="M177.3,40.991a1.364,1.364,0,0,1,.687.023l9.549,4.163a1.042,1.042,0,0,1,.6.907c-.237,3.878.3,8.1,0,11.936a6.682,6.682,0,0,1-1.931,3.986c-2.59,1.739-5.1,3.965-7.717,5.62-.8.5-.874.545-1.694.039-3.02-2.826-9.338-4.99-9.7-9.645-.3-3.837.236-8.058,0-11.936a.973.973,0,0,1,.545-.864Zm.276,1.784-8.66,3.826-.047,11.326a4.479,4.479,0,0,0,1.506,2.909l7.263,5.2,7.059-5.059a4.608,4.608,0,0,0,1.649-3.047c.281-3.564-.222-7.489,0-11.092l-.154-.316Z" transform="translate(-151.307 -37.111)" fill="#0c2d70"/>
        <path id="Path_876112" data-name="Path 876112" d="M225.969,112.05a.886.886,0,0,1,.986,1.271c-2.217,3.185-4.213,6.538-6.442,9.712-.421.6-.959,1.687-1.816,1.133L215,121.38a.888.888,0,0,1,.791-1.455c.639.077,2.916,2.247,3.108,2.25l6.45-9.609a1.262,1.262,0,0,1,.615-.515" transform="translate(-194.621 -101.505)" fill="#0c2d70"/>
      </g>
    </g>
  </g>
</svg>
