<svg xmlns="http://www.w3.org/2000/svg" xmlns:xlink="http://www.w3.org/1999/xlink" width="99" height="99" viewBox="0 0 99 99">
  <defs>
    <clipPath id="clip-path">
      <rect id="Rectangle_403416" data-name="Rectangle 403416" width="97.687" height="91.902" fill="#d1f3f5"/>
    </clipPath>
    <clipPath id="clip-path-2">
      <path id="Path_875268" data-name="Path 875268" d="M1.5,23.675l-1.5.6V36.6a8.4,8.4,0,0,0,3.3,6.507L40.867,73.755a13.171,13.171,0,0,0,15.954,0L94.388,43.113a8.425,8.425,0,0,0,3.3-6.393c0-.1,0-.206,0-.309l.006,0V24.386l-2.354-1.849A12.143,12.143,0,0,1,85.987,32.73L59.069,54.97,47.32,60.964l-37.5-27.34.867-.708c-3.2-2.116-4.931-6.953-6.664-11.367Z" transform="translate(0 -21.549)" fill="#61dfe4"/>
    </clipPath>
    <clipPath id="clip-path-3">
      <rect id="Rectangle_403409" data-name="Rectangle 403409" width="97.687" height="91.903" fill="none"/>
    </clipPath>
    <clipPath id="clip-path-4">
      <rect id="Rectangle_403408" data-name="Rectangle 403408" width="48.843" height="53.75" fill="none"/>
    </clipPath>
    <clipPath id="clip-path-5">
      <path id="Path_875270" data-name="Path 875270" d="M34.642,9.4,3.311,35.8c1.733,4.413,3.46,9.251,6.664,11.367l35.6-29.041a4.219,4.219,0,0,1,5.109,0L85.662,46.66l-.388.323A12.143,12.143,0,0,0,94.62,36.789L55.364,5.942,43.942,1.678Z" transform="translate(-3.311 -1.678)" fill="#61dfe4"/>
    </clipPath>
    <clipPath id="clip-path-7">
      <rect id="Rectangle_403411" data-name="Rectangle 403411" width="44.819" height="45.491" fill="none"/>
    </clipPath>
    <clipPath id="clip-path-8">
      <path id="Path_875272" data-name="Path 875272" d="M46.289,72.571,8.722,41.927a2.585,2.585,0,0,1,0-4.17L46.288,7.115a4.217,4.217,0,0,1,5.109,0L88.965,37.759a2.583,2.583,0,0,1,0,4.168L51.4,72.57a4.218,4.218,0,0,1-5.109,0M48.7,0a12.642,12.642,0,0,0-7.835,2.691L3.3,33.335a8.067,8.067,0,0,0,0,13.013L40.867,76.993a13.166,13.166,0,0,0,15.954,0L94.388,46.349a8.067,8.067,0,0,0,0-13.013L56.82,2.691A12.642,12.642,0,0,0,48.985,0Z" transform="translate(-0.001)" fill="#98baff"/>
    </clipPath>
    <clipPath id="clip-path-10">
      <path id="Path_875275" data-name="Path 875275" d="M44.962,72.924,7.4,42.282a3.659,3.659,0,0,1,0-5.9L44.961,5.738a5.97,5.97,0,0,1,7.232,0L89.76,36.383a3.657,3.657,0,0,1,0,5.9L52.193,72.924a5.97,5.97,0,0,1-7.231,0M41.66,3.046,4.094,33.689a7,7,0,0,0,0,11.284L41.662,75.619a11.426,11.426,0,0,0,13.833,0L93.062,44.973a6.994,6.994,0,0,0,0-11.282L55.493,3.046a11.416,11.416,0,0,0-13.833,0" transform="translate(-1.234 -0.712)" fill="#98baff"/>
    </clipPath>
    <clipPath id="clip-path-11">
      <rect id="Rectangle_403406" data-name="Rectangle 403406" width="38.332" height="22.221" fill="#0f398d"/>
    </clipPath>
    <clipPath id="clip-path-12">
      <rect id="Rectangle_403518" data-name="Rectangle 403518" width="82.49" height="80.524" fill="#cbdcff"/>
    </clipPath>
    <clipPath id="clip-path-13">
      <rect id="Rectangle_403232" data-name="Rectangle 403232" width="99" height="79.995" fill="#0f398d"/>
    </clipPath>
    <clipPath id="clip-path-14">
      <rect id="Rectangle_404099" data-name="Rectangle 404099" width="44.514" height="45.99" fill="#0c2d70"/>
    </clipPath>
  </defs>
  <g id="img9" transform="translate(8057.945 9390)">
    <g id="Group_1100973" data-name="Group 1100973" transform="translate(-8057.945 -9390)">
      <g id="Group_1100744" data-name="Group 1100744" transform="translate(0.004 7.098)">
        <g id="Group_1100514" data-name="Group 1100514" clip-path="url(#clip-path)">
          <g id="Group_1100495" data-name="Group 1100495" transform="translate(0 37.005)">
            <g id="Group_1100494" data-name="Group 1100494" clip-path="url(#clip-path-2)">
              <path id="Path_875399" data-name="Path 875399" d="M18.655,14.846,127.412,0,108.757,115.115,0,129.961Z" transform="translate(-39.284 50.577) rotate(-60)" fill="#61dfe4"/>
            </g>
          </g>
          <g id="Group_1100500" data-name="Group 1100500" transform="translate(0 0)">
            <g id="Group_1100499" data-name="Group 1100499" clip-path="url(#clip-path-3)">
              <g id="Group_1100498" data-name="Group 1100498" transform="translate(48.843 38.152)" opacity="0.3">
                <g id="Group_1100497" data-name="Group 1100497">
                  <g id="Group_1100496" data-name="Group 1100496" clip-path="url(#clip-path-4)">
                    <path id="Path_875269" data-name="Path 875269" d="M77.329,32.25,50.411,54.49,40.185,59.707V75.968a12.671,12.671,0,0,0,7.978-2.691L85.73,42.632a8.422,8.422,0,0,0,3.3-6.392c0-.1,0-.208,0-.311l.006,0V23.908l-2.153-1.692h-.225A12.151,12.151,0,0,1,77.329,32.25" transform="translate(-40.185 -22.217)" fill="#0f054c"/>
                  </g>
                </g>
              </g>
            </g>
          </g>
          <g id="Group_1100502" data-name="Group 1100502" transform="translate(4.024 2.882)">
            <g id="Group_1100501" data-name="Group 1100501" clip-path="url(#clip-path-5)">
              <path id="Path_875400" data-name="Path 875400" d="M17.015,13.147,113.324,0,96.309,105,0,118.145Z" transform="matrix(0.5, -0.866, 0.866, 0.5, -33.835, 42.279)" fill="#61dfe4"/>
            </g>
          </g>
          <g id="Group_1100507" data-name="Group 1100507" transform="translate(0 0)">
            <g id="Group_1100506" data-name="Group 1100506" clip-path="url(#clip-path-3)">
              <g id="Group_1100505" data-name="Group 1100505" transform="translate(4.024 2.881)" opacity="0.3">
                <g id="Group_1100504" data-name="Group 1100504">
                  <g id="Group_1100503" data-name="Group 1100503" clip-path="url(#clip-path-7)">
                    <path id="Path_875271" data-name="Path 875271" d="M48.13,3.241,43.942,1.677,34.642,9.4,3.311,35.8c1.733,4.413,3.459,9.253,6.664,11.368l35.6-29.041a4.062,4.062,0,0,1,2.555-.86Z" transform="translate(-3.311 -1.678)" fill="#0f054c"/>
                  </g>
                </g>
              </g>
            </g>
          </g>
          <g id="Group_1100509" data-name="Group 1100509" transform="translate(0.001)">
            <g id="Group_1100508" data-name="Group 1100508" clip-path="url(#clip-path-8)">
              <rect id="Rectangle_403413" data-name="Rectangle 403413" width="99.885" height="80.582" transform="translate(-1.099 0)" fill="#98baff"/>
            </g>
          </g>
          <g id="Group_1100511" data-name="Group 1100511" transform="translate(0 0)">
            <g id="Group_1100510" data-name="Group 1100510" clip-path="url(#clip-path-3)">
              <path id="Path_875273" data-name="Path 875273" d="M87.606,35.147,50.038,4.5a4.217,4.217,0,0,0-5.109,0L7.363,35.146a2.592,2.592,0,0,0-.935,2.833,2.846,2.846,0,0,1,.935-1.334L44.93,6a4.217,4.217,0,0,1,5.109,0L87.606,36.645a2.85,2.85,0,0,1,.935,1.336,2.592,2.592,0,0,0-.935-2.833" transform="translate(1.359 2.612)" fill="#fff"/>
              <path id="Path_875274" data-name="Path 875274" d="M94.388,29.4,56.821,60.039a13.166,13.166,0,0,1-15.954,0L3.3,29.395A8.537,8.537,0,0,1,.04,23.637,8.284,8.284,0,0,0,3.3,30.894L40.867,61.539a13.171,13.171,0,0,0,15.954,0L94.388,30.894a8.281,8.281,0,0,0,3.259-7.255A8.539,8.539,0,0,1,94.388,29.4" transform="translate(0.001 16.954)" fill="#fff"/>
            </g>
          </g>
          <g id="Group_1100513" data-name="Group 1100513" transform="translate(1.5 1.223)">
            <g id="Group_1100512" data-name="Group 1100512" clip-path="url(#clip-path-10)">
              <rect id="Rectangle_403415" data-name="Rectangle 403415" width="96.595" height="78.015" transform="translate(-0.954 0)" fill="#98baff"/>
            </g>
          </g>
        </g>
      </g>
      <g id="Group_1100747" data-name="Group 1100747" transform="translate(0 76.779)">
        <g id="Group_1100491" data-name="Group 1100491" transform="translate(0 0)" clip-path="url(#clip-path-11)">
          <path id="Path_875261" data-name="Path 875261" d="M30.025,21.071a1.151,1.151,0,1,1,1.151,1.15,1.151,1.151,0,0,1-1.151-1.15m-4.854,1.15a1.151,1.151,0,1,0-1.151-1.15,1.15,1.15,0,0,0,1.151,1.15m-6.005,0a1.151,1.151,0,1,0-1.151-1.15,1.15,1.15,0,0,0,1.151,1.15m-6.005,0a1.151,1.151,0,1,0-1.151-1.15,1.15,1.15,0,0,0,1.151,1.15m-6.005,0a1.151,1.151,0,1,0-1.151-1.15,1.15,1.15,0,0,0,1.151,1.15m-6.005,0A1.151,1.151,0,1,0,0,21.071a1.15,1.15,0,0,0,1.151,1.15m30.025-6.528a1.151,1.151,0,1,0-1.151-1.151,1.151,1.151,0,0,0,1.151,1.151m-6.005,0a1.151,1.151,0,1,0-1.151-1.151,1.151,1.151,0,0,0,1.151,1.151m-6.005,0a1.151,1.151,0,1,0-1.151-1.151,1.151,1.151,0,0,0,1.151,1.151m-6.005,0a1.151,1.151,0,1,0-1.151-1.151,1.151,1.151,0,0,0,1.151,1.151m-6.005,0a1.151,1.151,0,1,0-1.151-1.151,1.151,1.151,0,0,0,1.151,1.151m-6.005,0A1.151,1.151,0,1,0,0,14.542a1.151,1.151,0,0,0,1.151,1.151M31.176,9.165a1.151,1.151,0,1,0-1.151-1.151,1.151,1.151,0,0,0,1.151,1.151M36.03,21.071a1.151,1.151,0,1,1,1.151,1.15,1.151,1.151,0,0,1-1.151-1.15m1.151-5.378a1.151,1.151,0,1,0-1.151-1.151,1.151,1.151,0,0,0,1.151,1.151m0-6.528A1.151,1.151,0,1,0,36.03,8.014a1.151,1.151,0,0,0,1.151,1.151m-12.01,0A1.151,1.151,0,1,0,24.02,8.014a1.151,1.151,0,0,0,1.151,1.151m-6.005,0a1.151,1.151,0,1,0-1.151-1.151,1.151,1.151,0,0,0,1.151,1.151m-6.005,0A1.151,1.151,0,1,0,12.01,8.014a1.151,1.151,0,0,0,1.151,1.151m-6.005,0A1.151,1.151,0,1,0,6.005,8.014,1.151,1.151,0,0,0,7.156,9.165m-6.005,0A1.151,1.151,0,1,0,0,8.014,1.151,1.151,0,0,0,1.151,9.165M31.176,2.3a1.151,1.151,0,1,0-1.151-1.151A1.151,1.151,0,0,0,31.176,2.3m6.005,0A1.151,1.151,0,1,0,36.03,1.151,1.151,1.151,0,0,0,37.181,2.3m-12.01,0A1.151,1.151,0,1,0,24.02,1.151,1.151,1.151,0,0,0,25.171,2.3m-6.005,0a1.151,1.151,0,1,0-1.151-1.151A1.151,1.151,0,0,0,19.166,2.3m-6.005,0A1.151,1.151,0,1,0,12.01,1.151,1.151,1.151,0,0,0,13.161,2.3m-6.005,0A1.151,1.151,0,1,0,6.005,1.151,1.151,1.151,0,0,0,7.156,2.3m-6.005,0A1.151,1.151,0,1,0,0,1.151,1.151,1.151,0,0,0,1.151,2.3" transform="translate(0 0)" fill="#0f398d"/>
        </g>
      </g>
      <g id="Group_1100749" data-name="Group 1100749" transform="translate(7.664)">
        <g id="Group_1100748" data-name="Group 1100748" clip-path="url(#clip-path-12)">
          <path id="Path_875398" data-name="Path 875398" d="M8.527,0H73.888a8.471,8.471,0,0,1,8.564,8.374l-.043,42.7L46.453,79.117a10.488,10.488,0,0,1-10.493,0L-.184,49.467-.036,8.374A8.47,8.47,0,0,1,8.527,0" transform="translate(0.039 0)" fill="#cbdcff"/>
        </g>
      </g>
      <g id="Group_1100745" data-name="Group 1100745" transform="translate(0 1.529)">
        <g id="Group_1100096" data-name="Group 1100096" transform="translate(0 0)" clip-path="url(#clip-path-13)">
          <path id="Path_873771" data-name="Path 873771" d="M49.5,80a11.773,11.773,0,0,1-7.351-2.447L3.141,46.183a7.662,7.662,0,0,1,0-12.372L42.147,2.445a12.282,12.282,0,0,1,14.705,0L95.86,33.812a7.662,7.662,0,0,1,0,12.372L56.854,77.549A11.777,11.777,0,0,1,49.5,80M49.5.938a11.235,11.235,0,0,0-7.011,2.331L3.483,34.633a6.537,6.537,0,0,0,0,10.725L42.492,76.727a11.713,11.713,0,0,0,14.02,0L95.518,45.361a6.537,6.537,0,0,0,0-10.725L56.511,3.269A11.235,11.235,0,0,0,49.5.938" transform="translate(0 -0.001)" fill="#0f398d"/>
        </g>
      </g>
      <rect id="Rectangle_403516" data-name="Rectangle 403516" width="82.49" height="44.076" rx="9" transform="translate(7.664 0.529)" fill="#cbdcff"/>
    </g>
    <g id="Group_1101801" data-name="Group 1101801" transform="translate(-8030.702 -9380.227)">
      <g id="Group_1101800" data-name="Group 1101800" clip-path="url(#clip-path-14)">
        <path id="Path_876136" data-name="Path 876136" d="M25.378,217.734a7.16,7.16,0,0,1,3.275,2.362,8.283,8.283,0,0,1,1.938-1.059c-4.61-3.881.407-11.058,5.537-7.728a4.821,4.821,0,0,1,.27,7.728,8.005,8.005,0,0,1,3.93,3.359c.179.317.709,1.74.807,1.8.284.171,1.289-.013,1.783.113a2.449,2.449,0,0,1,1.654,2.256c.1,1.061.257,3.238-.979,3.64-13.933.216-27.912.023-41.863.1a1.521,1.521,0,0,1-1.476-1.487c-.169-1.509-.169-4.042,1.656-4.507.494-.126,1.5.058,1.783-.113.1-.059.628-1.483.807-1.8a8.005,8.005,0,0,1,3.93-3.359A4.827,4.827,0,0,1,9.218,211c5.136-2.471,9.385,4.421,5.024,7.984l1.936,1.113c.943-.944,1.915-2.062,3.276-2.358.141-.156-.588-.728-.708-.891a4.734,4.734,0,1,1,7.49-.207c-.143.2-.973.969-.857,1.1m.273-3.9a3.235,3.235,0,1,0-3.235,3.235,3.235,3.235,0,0,0,3.235-3.235m11.081,1.388a3.239,3.239,0,1,0-3.239,3.239,3.239,3.239,0,0,0,3.239-3.239m-22.162.006a3.236,3.236,0,1,0-3.236,3.236,3.236,3.236,0,0,0,3.236-3.236m6.99,3.369c-1.134.138-3.8,1.33-4.186,2.463-.077.227.775,1.295.959,1.646a14.656,14.656,0,0,0,.584,1.431c.27.278,6.094.066,6.94.06.251-.515.411-1.06.686-1.565.145-.266.936-1.339.949-1.423.052-.346-1.177-1.353-1.482-1.558a6.6,6.6,0,0,0-4.45-1.054M5.352,224.253H17.32c-1.827-5.673-10.181-5.689-11.968,0m34.127,0c-1.775-5.689-10.153-5.691-11.968,0Zm3.555,1.416H1.8v3.086H43.034Z" transform="translate(-0.165 -184.321)" fill="#0c2d70"/>
        <path id="Path_876137" data-name="Path 876137" d="M12.415,15.64a5.5,5.5,0,0,0-1.9.913c-.17,2.385.236,5.094,0,7.439a1.912,1.912,0,0,1-1.83,1.961,49.036,49.036,0,0,1-6.878,0A1.9,1.9,0,0,1,.088,24c.234-3.6-.306-7.572.02-11.128A5.505,5.505,0,0,1,2.7,8.589C-.458,6.3.882,1.038,4.769.7A4.393,4.393,0,0,1,7.915,8.589a6.255,6.255,0,0,1,2.2,2.551A10.447,10.447,0,0,0,12.4,9.874c.179-1.974-.177-4.2.02-6.142A4.407,4.407,0,0,1,16.083.051L40.32,0a4.489,4.489,0,0,1,4.094,4.319A103.459,103.459,0,0,1,44.4,16.632a4.487,4.487,0,0,1-4.306,4.107L16.4,20.72a4.4,4.4,0,0,1-3.985-5.08m2.294,2.8a2.89,2.89,0,0,0,1.79.757H40.326a2.811,2.811,0,0,0,2.542-2.554A86.921,86.921,0,0,0,42.874,4.2a2.8,2.8,0,0,0-2.433-2.662l-24.06,0A2.923,2.923,0,0,0,13.868,4a31.088,31.088,0,0,0-.037,4.952c.061.621.268.246.639.3a2.322,2.322,0,0,1,1.44.7L20.48,4.685a.753.753,0,0,1,1,1.114L16.81,11.217a2.75,2.75,0,0,1-1.155,2.626c-.35.239-1.622.685-1.759.967a6.767,6.767,0,0,0-.028,1.925,3.34,3.34,0,0,0,.841,1.707M8.18,5.038A2.883,2.883,0,1,0,5.3,7.92,2.883,2.883,0,0,0,8.18,5.038M1.633,12.5V24.231a1.189,1.189,0,0,0,.178.178H8.8a1.189,1.189,0,0,0,.178-.178V17.3c-1.393.873-3.135,1.4-4.265-.178-.482-.672-.846-2.47.3-2.545,1.325-.086.12,2.53,2.007,2.022l8.03-4.151a1.013,1.013,0,0,0-1.1-1.609L9.1,13.388C8.986,10.623,6.516,8.6,3.822,9.712A3.905,3.905,0,0,0,1.633,12.5" transform="translate(0)" fill="#0c2d70"/>
        <path id="Path_876138" data-name="Path 876138" d="M191.8,63.965l13.608-.031c1.029.241.972,1.422-.122,1.549H192.128a.787.787,0,0,1-.328-1.518" transform="translate(-168.636 -56.358)" fill="#0c2d70"/>
        <path id="Path_876139" data-name="Path 876139" d="M218.2,131.161c3.212.211,7.02-.38,10.162-.028,1.312.147,1.146,1.43.243,1.546l-10.727-.068a.773.773,0,0,1,.322-1.45" transform="translate(-191.711 -115.494)" fill="#0c2d70"/>
        <path id="Path_876140" data-name="Path 876140" d="M183.369,98.062l8.615-.022c1.11.262,1.006,1.406-.109,1.536-2.622.308-5.84-.229-8.527-.01a.756.756,0,0,1,.021-1.5" transform="translate(-161.03 -86.423)" fill="#0c2d70"/>
        <path id="Path_876141" data-name="Path 876141" d="M202.731,30.666c-.13.131-.435.136-.619.151-2.164.182-4.573-.15-6.765,0a.712.712,0,0,1,.014-1.421c2.13.17,4.671-.253,6.75-.01.7.082,1.093.8.621,1.278" transform="translate(-171.621 -25.837)" fill="#0c2d70"/>
        <path id="Path_876142" data-name="Path 876142" d="M165.605,131.974c.344-.368,2.876-.34,3.436-.238a.771.771,0,0,1,.144,1.509,19.964,19.964,0,0,1-3.071,0,.77.77,0,0,1-.509-1.266" transform="translate(-145.811 -116.067)" fill="#0c2d70"/>
        <path id="Path_876143" data-name="Path 876143" d="M280.436,29.646a21.616,21.616,0,0,1,3.289-.022c.679.126.833,1.276.119,1.416a29.143,29.143,0,0,1-3.529-.02.733.733,0,0,1,.121-1.374" transform="translate(-246.725 -26.068)" fill="#0c2d70"/>
        <path id="Path_876144" data-name="Path 876144" d="M282.141,97.7a14.113,14.113,0,0,1,2.79,0,.759.759,0,0,1-.1,1.508,15.839,15.839,0,0,1-2.811-.018.751.751,0,0,1,.121-1.487" transform="translate(-248.071 -86.056)" fill="#0c2d70"/>
      </g>
    </g>
  </g>
</svg>
