<svg xmlns="http://www.w3.org/2000/svg" xmlns:xlink="http://www.w3.org/1999/xlink" width="123" height="123" viewBox="0 0 123 123">
  <defs>
    <clipPath id="clip-path">
      <rect id="Rectangle_403416" data-name="Rectangle 403416" width="121.687" height="91.902" fill="#d1f3f5"/>
    </clipPath>
    <clipPath id="clip-path-2">
      <path id="Path_875268" data-name="Path 875268" d="M1.868,23.675,0,24.271V36.6c0,2.356,1.37,4.712,4.109,6.507l46.8,30.644c5.479,3.587,14.394,3.587,19.874,0l46.8-30.643c2.7-1.765,4.064-4.075,4.108-6.393,0-.1,0-.206-.006-.309l.008,0V24.386l-2.933-1.849c-.828,5.676-6.718,9.416-11.642,10.194L73.581,54.97,58.946,60.964,12.235,33.623l1.08-.708c-3.991-2.116-6.143-6.953-8.3-11.367Z" transform="translate(0 -21.549)" fill="#61dfe4"/>
    </clipPath>
    <clipPath id="clip-path-3">
      <rect id="Rectangle_403409" data-name="Rectangle 403409" width="121.687" height="91.903" fill="none"/>
    </clipPath>
    <clipPath id="clip-path-4">
      <rect id="Rectangle_403408" data-name="Rectangle 403408" width="60.844" height="53.75" fill="none"/>
    </clipPath>
    <clipPath id="clip-path-5">
      <path id="Path_875270" data-name="Path 875270" d="M42.339,9.4,3.311,35.8c2.159,4.413,4.311,9.251,8.3,11.367L55.958,18.128a6.31,6.31,0,0,1,6.364,0L105.894,46.66l-.483.323c4.924-.778,10.813-4.518,11.642-10.194L68.153,5.942,53.925,1.678Z" transform="translate(-3.311 -1.678)" fill="#61dfe4"/>
    </clipPath>
    <clipPath id="clip-path-7">
      <rect id="Rectangle_403411" data-name="Rectangle 403411" width="55.83" height="45.491" fill="none"/>
    </clipPath>
    <clipPath id="clip-path-8">
      <path id="Path_875272" data-name="Path 875272" d="M57.662,72.571l-46.8-30.644a2.309,2.309,0,0,1,0-4.17L57.66,7.115a6.306,6.306,0,0,1,6.364,0l46.8,30.644a2.308,2.308,0,0,1,0,4.168L64.025,72.57a6.308,6.308,0,0,1-6.364,0M60.664,0A18.357,18.357,0,0,0,50.9,2.691L4.109,33.335c-5.478,3.587-5.478,9.426,0,13.013l46.8,30.644c5.479,3.589,14.394,3.589,19.874,0l46.8-30.644c5.478-3.586,5.478-9.426,0-13.013L70.779,2.691A18.357,18.357,0,0,0,61.02,0Z" transform="translate(-0.001)" fill="#98baff"/>
    </clipPath>
    <clipPath id="clip-path-10">
      <path id="Path_875275" data-name="Path 875275" d="M55.706,72.924,8.909,42.282c-2.483-1.628-2.483-4.274,0-5.9L55.7,5.738a8.927,8.927,0,0,1,9.009,0l46.8,30.644c2.483,1.626,2.483,4.273,0,5.9l-46.8,30.643a8.927,8.927,0,0,1-9.007,0M51.592,3.046,4.8,33.689C.046,36.8.047,41.863,4.8,44.973L51.6,75.619c4.75,3.108,12.479,3.108,17.232,0l46.8-30.646c4.75-3.108,4.75-8.171,0-11.282L68.824,3.046a17.071,17.071,0,0,0-17.232,0" transform="translate(-1.234 -0.712)" fill="#98baff"/>
    </clipPath>
    <clipPath id="clip-path-11">
      <rect id="Rectángulo_47325" data-name="Rectángulo 47325" width="65.588" height="70.277" fill="#0c2d70"/>
    </clipPath>
    <clipPath id="clip-path-12">
      <rect id="Rectangle_403406" data-name="Rectangle 403406" width="41.824" height="24.245" fill="#fff"/>
    </clipPath>
    <clipPath id="clip-path-13">
      <rect id="Rectangle_403518" data-name="Rectangle 403518" width="102.859" height="104.692" fill="#fff"/>
    </clipPath>
    <clipPath id="clip-path-14">
      <rect id="Rectangle_403232" data-name="Rectangle 403232" width="123" height="80.836" fill="#61dfe4"/>
    </clipPath>
    <clipPath id="clip-path-15">
      <rect id="Rectangle_404101" data-name="Rectangle 404101" width="60.134" height="60.134" fill="#0c2d70"/>
    </clipPath>
  </defs>
  <g id="img12" transform="translate(-737.996 -3831.7)">
    <g id="img12-2" data-name="img12" transform="translate(737.996 3831.7)">
      <g id="Group_1100744" data-name="Group 1100744" transform="translate(0.004 31.098)">
        <g id="Group_1100514" data-name="Group 1100514" clip-path="url(#clip-path)">
          <g id="Group_1100495" data-name="Group 1100495" transform="translate(0 37.005)">
            <g id="Group_1100494" data-name="Group 1100494" clip-path="url(#clip-path-2)">
              <path id="Path_875399" data-name="Path 875399" d="M7.554,6.012,121.412,0l-7.554,134.342L0,140.354Z" transform="translate(-30.284 45.381) rotate(-60)" fill="#61dfe4"/>
            </g>
          </g>
          <g id="Group_1100500" data-name="Group 1100500" transform="translate(0 0)">
            <g id="Group_1100499" data-name="Group 1100499" clip-path="url(#clip-path-3)">
              <g id="Group_1100498" data-name="Group 1100498" transform="translate(60.843 38.152)" opacity="0.3">
                <g id="Group_1100497" data-name="Group 1100497">
                  <g id="Group_1100496" data-name="Group 1100496" clip-path="url(#clip-path-4)">
                    <path id="Path_875269" data-name="Path 875269" d="M86.455,32.25,52.923,54.49,40.185,59.707V75.968a18.428,18.428,0,0,0,9.938-2.691l46.8-30.644c2.7-1.765,4.064-4.073,4.108-6.392,0-.1,0-.208-.006-.311l.008,0V23.908l-2.681-1.692h-.28c-.914,5.586-6.736,9.263-11.613,10.034" transform="translate(-40.185 -22.217)" fill="#0f054c"/>
                  </g>
                </g>
              </g>
            </g>
          </g>
          <g id="Group_1100502" data-name="Group 1100502" transform="translate(5.013 2.882)">
            <g id="Group_1100501" data-name="Group 1100501" clip-path="url(#clip-path-5)">
              <path id="Path_875400" data-name="Path 875400" d="M6.89,5.324,107.716,0l-6.89,122.535L0,127.859Z" transform="matrix(0.5, -0.866, 0.866, 0.5, -25.423, 37.422)" fill="#61dfe4"/>
            </g>
          </g>
          <g id="Group_1100507" data-name="Group 1100507" transform="translate(0 0)">
            <g id="Group_1100506" data-name="Group 1100506" clip-path="url(#clip-path-3)">
              <g id="Group_1100505" data-name="Group 1100505" transform="translate(5.013 2.881)" opacity="0.3">
                <g id="Group_1100504" data-name="Group 1100504">
                  <g id="Group_1100503" data-name="Group 1100503" clip-path="url(#clip-path-7)">
                    <path id="Path_875271" data-name="Path 875271" d="M59.141,3.241,53.925,1.677,42.339,9.4,3.311,35.8c2.159,4.413,4.309,9.253,8.3,11.368L55.958,18.128a5.908,5.908,0,0,1,3.183-.86Z" transform="translate(-3.311 -1.678)" fill="#0f054c"/>
                  </g>
                </g>
              </g>
            </g>
          </g>
          <g id="Group_1100509" data-name="Group 1100509" transform="translate(0.001)">
            <g id="Group_1100508" data-name="Group 1100508" clip-path="url(#clip-path-8)">
              <rect id="Rectangle_403413" data-name="Rectangle 403413" width="124.425" height="80.582" transform="translate(-1.369 0)" fill="#98baff"/>
            </g>
          </g>
          <g id="Group_1100511" data-name="Group 1100511" transform="translate(0 0)">
            <g id="Group_1100510" data-name="Group 1100510" clip-path="url(#clip-path-3)">
              <path id="Path_875273" data-name="Path 875273" d="M107.579,35.147,60.782,4.5a6.306,6.306,0,0,0-6.364,0L7.621,35.146a2.323,2.323,0,0,0-1.164,2.833,2.931,2.931,0,0,1,1.164-1.334L54.418,6a6.306,6.306,0,0,1,6.364,0l46.8,30.644a2.935,2.935,0,0,1,1.164,1.336,2.322,2.322,0,0,0-1.164-2.833" transform="translate(3.244 2.612)" fill="#fff"/>
              <path id="Path_875274" data-name="Path 875274" d="M117.577,29.4,70.78,60.039c-5.479,3.589-14.394,3.589-19.874,0L4.109,29.395A8.3,8.3,0,0,1,.049,23.637c-.321,2.6,1.03,5.272,4.061,7.257l46.8,30.644c5.479,3.587,14.394,3.587,19.874,0l46.8-30.644c3.03-1.983,4.38-4.655,4.059-7.255a8.3,8.3,0,0,1-4.059,5.758" transform="translate(0.001 16.954)" fill="#fff"/>
            </g>
          </g>
          <g id="Group_1100513" data-name="Group 1100513" transform="translate(1.868 1.223)">
            <g id="Group_1100512" data-name="Group 1100512" clip-path="url(#clip-path-10)">
              <rect id="Rectangle_403415" data-name="Rectangle 403415" width="120.326" height="78.015" transform="translate(-1.188 0)" fill="#98baff"/>
            </g>
          </g>
        </g>
      </g>
      <g id="Group_1100746" data-name="Group 1100746" transform="translate(24.709 10.596)">
        <g id="Group_1099618" data-name="Group 1099618" transform="translate(0 0)">
          <rect id="Rectangle_401104" data-name="Rectangle 401104" width="70.823" height="71.676" fill="none"/>
        </g>
        <g id="Grupo_156261" data-name="Grupo 156261" transform="translate(1.419 0.419)">
          <rect id="Rectángulo_47312" data-name="Rectángulo 47312" width="9.366" height="4.683" transform="translate(5.878 22.272)" fill="#0c2d70"/>
          <path id="Trazado_198297" data-name="Trazado 198297" d="M10.008,59.838h9.36l-4.683,5.853Z" transform="translate(-4.128 -24.68)" fill="#0c2d70"/>
          <g id="Grupo_156260" data-name="Grupo 156260" transform="translate(0 0)">
            <g id="Grupo_156259" data-name="Grupo 156259" clip-path="url(#clip-path-11)">
              <path id="Trazado_198298" data-name="Trazado 198298" d="M25.947,73.186a9.36,9.36,0,1,0,9.361-9.36,9.36,9.36,0,0,0-9.361,9.36m9.363,7.025a6.983,6.983,0,0,1-3.41-.887l3.974-4.967h6.356A7.029,7.029,0,0,1,35.31,80.21Zm6.925-8.2H36.484V66.268a7.035,7.035,0,0,1,5.749,5.748Zm-8.09-5.748v6.507l-4.063,5.08a7.008,7.008,0,0,1,4.063-11.589" transform="translate(-10.702 -26.324)" fill="#0c2d70"/>
              <rect id="Rectángulo_47313" data-name="Rectángulo 47313" width="2.342" height="2.342" transform="translate(15.245 58.566)" fill="#0c2d70"/>
              <rect id="Rectángulo_47314" data-name="Rectángulo 47314" width="14.049" height="2.342" transform="translate(19.929 58.566)" fill="#0c2d70"/>
              <rect id="Rectángulo_47315" data-name="Rectángulo 47315" width="18.732" height="2.342" transform="translate(15.245 63.25)" fill="#0c2d70"/>
              <rect id="Rectángulo_47316" data-name="Rectángulo 47316" width="2.342" height="2.342" transform="translate(41.002 58.566)" fill="#0c2d70"/>
              <rect id="Rectángulo_47317" data-name="Rectángulo 47317" width="14.049" height="2.342" transform="translate(45.686 58.566)" fill="#0c2d70"/>
              <rect id="Rectángulo_47318" data-name="Rectángulo 47318" width="18.732" height="2.342" transform="translate(41.002 63.25)" fill="#0c2d70"/>
              <rect id="Rectángulo_47319" data-name="Rectángulo 47319" width="2.342" height="2.342" transform="translate(43.343 11.733)" fill="#0c2d70"/>
              <rect id="Rectángulo_47320" data-name="Rectángulo 47320" width="11.708" height="2.342" transform="translate(48.027 11.733)" fill="#0c2d70"/>
              <rect id="Rectángulo_47321" data-name="Rectángulo 47321" width="16.391" height="2.342" transform="translate(43.343 16.416)" fill="#0c2d70"/>
              <rect id="Rectángulo_47322" data-name="Rectángulo 47322" width="2.342" height="2.342" transform="translate(43.343 24.612)" fill="#0c2d70"/>
              <rect id="Rectángulo_47323" data-name="Rectángulo 47323" width="11.708" height="2.342" transform="translate(48.027 24.612)" fill="#0c2d70"/>
              <rect id="Rectángulo_47324" data-name="Rectángulo 47324" width="16.391" height="2.342" transform="translate(43.343 29.295)" fill="#0c2d70"/>
              <path id="Trazado_198299" data-name="Trazado 198299" d="M72.951,82.552H87a1.17,1.17,0,0,0,1.17-1.171V72.02A1.17,1.17,0,0,0,87,70.849H83.489V65a1.17,1.17,0,0,0-1.17-1.171H77.635A1.17,1.17,0,0,0,76.464,65v3.509H72.952a1.17,1.17,0,0,0-1.17,1.171V81.389a1.17,1.17,0,0,0,1.169,1.164M85.83,80.218H83.489V73.19H85.83ZM78.808,66.167h2.342V80.218H78.808ZM74.125,70.85h2.341v9.36H74.124Z" transform="translate(-29.607 -26.324)" fill="#0c2d70"/>
              <path id="Trazado_198300" data-name="Trazado 198300" d="M43.061,27.348H57.111a1.17,1.17,0,0,0,1.17-1.17V19.152a1.17,1.17,0,0,0-1.17-1.17H43.061a1.17,1.17,0,0,0-1.171,1.17v7.025a1.17,1.17,0,0,0,1.169,1.171Zm1.17-7.026H55.944v4.685H44.232Z" transform="translate(-17.278 -7.416)" fill="#0c2d70"/>
              <path id="Trazado_198301" data-name="Trazado 198301" d="M43.061,49.272H57.111a1.17,1.17,0,0,0,1.17-1.17V41.078a1.17,1.17,0,0,0-1.17-1.171H43.061a1.17,1.17,0,0,0-1.171,1.171V48.1a1.17,1.17,0,0,0,1.171,1.17m1.17-7.024H55.944v4.683H44.232Z" transform="translate(-17.278 -16.459)" fill="#0c2d70"/>
              <path id="Trazado_198302" data-name="Trazado 198302" d="M4.705,19.321V35.152a1.172,1.172,0,0,0,.256.732l4.426,5.535V69.107a1.171,1.171,0,0,0,1.171,1.17H64.417a1.17,1.17,0,0,0,1.17-1.17V5.882a1.17,1.17,0,0,0-1.17-1.171h-45.1A10.538,10.538,0,1,0,4.705,19.321m9.361,6.469H7.052V23.445H14.07Zm-3.5,13.347L8.315,36.324h4.5ZM7.051,28.131H9.392v5.854H7.051Zm7.026,5.854H11.734V28.131h2.342ZM63.249,7.055V67.937H11.734V41.42l4.426-5.533a1.172,1.172,0,0,0,.256-.732V19.321A10.476,10.476,0,0,0,20.485,7.055ZM10.564,2.37a8.2,8.2,0,0,1,4.1,15.286,1.17,1.17,0,0,0-.587,1.013v2.437H11.734V14.566L14.9,11.394,13.249,9.738l-2.686,2.685L7.878,9.738,6.223,11.393l3.169,3.17V21.1H7.051V18.667a1.168,1.168,0,0,0-.586-1.013,8.2,8.2,0,0,1,4.1-15.286Z" transform="translate(0 0)" fill="#0c2d70"/>
            </g>
          </g>
        </g>
      </g>
      <g id="Group_1100747" data-name="Group 1100747" transform="translate(0 98.755)">
        <g id="Group_1100491" data-name="Group 1100491" transform="translate(0 0)" clip-path="url(#clip-path-12)">
          <path id="Path_875261" data-name="Path 875261" d="M32.76,22.99a1.256,1.256,0,1,1,1.256,1.255A1.256,1.256,0,0,1,32.76,22.99m-5.3,1.255a1.255,1.255,0,1,0-1.256-1.255,1.255,1.255,0,0,0,1.256,1.255m-6.552,0a1.255,1.255,0,1,0-1.256-1.255,1.255,1.255,0,0,0,1.256,1.255m-6.552,0A1.255,1.255,0,1,0,13.1,22.99a1.255,1.255,0,0,0,1.256,1.255m-6.552,0A1.255,1.255,0,1,0,6.552,22.99a1.255,1.255,0,0,0,1.256,1.255m-6.552,0A1.255,1.255,0,1,0,0,22.99a1.255,1.255,0,0,0,1.256,1.255m32.76-7.123a1.256,1.256,0,1,0-1.256-1.256,1.256,1.256,0,0,0,1.256,1.256m-6.552,0a1.256,1.256,0,1,0-1.256-1.256,1.256,1.256,0,0,0,1.256,1.256m-6.552,0a1.256,1.256,0,1,0-1.256-1.256,1.256,1.256,0,0,0,1.256,1.256m-6.552,0A1.256,1.256,0,1,0,13.1,15.867a1.256,1.256,0,0,0,1.256,1.256m-6.552,0a1.256,1.256,0,1,0-1.256-1.256,1.256,1.256,0,0,0,1.256,1.256m-6.552,0A1.256,1.256,0,1,0,0,15.867a1.256,1.256,0,0,0,1.256,1.256M34.016,10A1.256,1.256,0,1,0,32.76,8.744,1.256,1.256,0,0,0,34.016,10m5.3,12.99a1.256,1.256,0,1,1,1.256,1.255,1.256,1.256,0,0,1-1.256-1.255m1.256-5.868a1.256,1.256,0,1,0-1.256-1.256,1.256,1.256,0,0,0,1.256,1.256m0-7.123a1.256,1.256,0,1,0-1.256-1.256A1.256,1.256,0,0,0,40.568,10m-13.1,0a1.256,1.256,0,1,0-1.256-1.256A1.256,1.256,0,0,0,27.464,10m-6.552,0a1.256,1.256,0,1,0-1.256-1.256A1.256,1.256,0,0,0,20.912,10M14.36,10A1.256,1.256,0,1,0,13.1,8.744,1.256,1.256,0,0,0,14.36,10M7.808,10A1.256,1.256,0,1,0,6.552,8.744,1.256,1.256,0,0,0,7.808,10M1.256,10A1.256,1.256,0,1,0,0,8.744,1.256,1.256,0,0,0,1.256,10m32.76-7.489A1.256,1.256,0,1,0,32.76,1.256a1.256,1.256,0,0,0,1.256,1.256m6.552,0a1.256,1.256,0,1,0-1.256-1.256,1.256,1.256,0,0,0,1.256,1.256m-13.1,0a1.256,1.256,0,1,0-1.256-1.256,1.256,1.256,0,0,0,1.256,1.256m-6.552,0a1.256,1.256,0,1,0-1.256-1.256,1.256,1.256,0,0,0,1.256,1.256m-6.552,0A1.256,1.256,0,1,0,13.1,1.256,1.256,1.256,0,0,0,14.36,2.511m-6.552,0A1.256,1.256,0,1,0,6.552,1.256,1.256,1.256,0,0,0,7.808,2.511m-6.552,0A1.256,1.256,0,1,0,0,1.256,1.256,1.256,0,0,0,1.256,2.511" transform="translate(0 0)" fill="#fff"/>
        </g>
      </g>
      <g id="Group_1100749" data-name="Group 1100749" transform="translate(9.418)">
        <g id="Group_1100748" data-name="Group 1100748" clip-path="url(#clip-path-13)">
          <path id="Path_875398" data-name="Path 875398" d="M10.682,0h81.5a10.785,10.785,0,0,1,10.678,10.888l-.134,62.524L57.973,102.864a12.616,12.616,0,0,1-13.084,0L-.2,73.333,0,10.888A10.784,10.784,0,0,1,10.682,0" transform="translate(-0.001 0)" fill="#fff"/>
        </g>
      </g>
      <g id="Group_1100745" data-name="Group 1100745" transform="translate(0 17.918)">
        <g id="Group_1100096" data-name="Group 1100096" transform="translate(0 0)" clip-path="url(#clip-path-14)">
          <path id="Path_873771" data-name="Path 873771" d="M61.5,80.838a16.933,16.933,0,0,1-9.134-2.472L3.9,46.669C1.386,45.023,0,42.8,0,40.417s1.386-4.606,3.9-6.25L52.365,2.47C57.4-.823,65.6-.823,70.635,2.47l48.464,31.7c2.517,1.645,3.9,3.865,3.9,6.25s-1.386,4.606-3.9,6.252L70.637,78.365A16.938,16.938,0,0,1,61.5,80.838m0-79.89A16.161,16.161,0,0,0,52.79,3.3L4.328,35C2.084,36.467.85,38.39.85,40.417s1.234,3.952,3.478,5.419l48.465,31.7c4.8,3.139,12.616,3.139,17.419,0l48.462-31.7c2.244-1.467,3.478-3.391,3.478-5.419s-1.234-3.952-3.478-5.419L70.21,3.3A16.161,16.161,0,0,0,61.5.948" transform="translate(0 -0.001)" fill="#61dfe4"/>
        </g>
      </g>
      <rect id="Rectangle_403516" data-name="Rectangle 403516" width="102.859" height="53.446" transform="translate(9.418 14.158)" fill="#fff"/>
    </g>
    <g id="Group_1101805" data-name="Group 1101805" transform="translate(770.265 3843.38)">
      <g id="Group_1101804" data-name="Group 1101804" clip-path="url(#clip-path-15)">
        <path id="Path_876160" data-name="Path 876160" d="M3.426.044,56.3,0a3.971,3.971,0,0,1,3.833,3.833V56.151A3.976,3.976,0,0,1,56.3,60.133H3.982A3.976,3.976,0,0,1,0,56.3V3.833A3.963,3.963,0,0,1,3.426.044M58.173,7.972V3.688a2.61,2.61,0,0,0-1.529-1.627c-17.694-.168-35.459-.168-53.156,0A2.61,2.61,0,0,0,1.959,3.688V7.972Zm0,2.1H1.959V56.445a2.61,2.61,0,0,0,1.529,1.627c17.694.168,35.459.168,53.156,0a2.61,2.61,0,0,0,1.529-1.627Z" fill="#0c2d70"/>
        <path id="Path_876161" data-name="Path 876161" d="M320.215,28.664a1.049,1.049,0,0,1,.483-1.607H327.3A.993.993,0,0,1,327.15,29a41.676,41.676,0,0,1-6.16.015,1.478,1.478,0,0,1-.775-.351" transform="translate(-271.916 -22.99)" fill="#0c2d70"/>
        <path id="Path_876162" data-name="Path 876162" d="M62.876,28.214c-.57.7-3.24.564-2.743-1.016.24-.764,1.767-.751,2.384-.565a1.1,1.1,0,0,1,.359,1.581" transform="translate(-51.042 -22.54)" fill="#0c2d70"/>
        <path id="Path_876163" data-name="Path 876163" d="M29.532,26.923a1.727,1.727,0,0,1,.316.9c-.192,1.3-3.506,1.347-2.951-.536.225-.762,2.263-.72,2.635-.368" transform="translate(-22.801 -22.67)" fill="#0c2d70"/>
        <path id="Path_876164" data-name="Path 876164" d="M93.751,26.922c.37-.352,2.41-.394,2.635.369.509,1.727-2.21,1.783-2.735.932a1.067,1.067,0,0,1,.1-1.3" transform="translate(-79.428 -22.67)" fill="#0c2d70"/>
        <path id="Path_876165" data-name="Path 876165" d="M64.535,122.641a4.55,4.55,0,0,1-1.083.646c-1.97.669-8.1.69-10.057,0a3.2,3.2,0,0,1-2.019-2.64c-.073-.616.285-2.658-.517-2.441l-5.673,4.557c-.326.379.112.792.149,1.219a4.6,4.6,0,0,1-.358,2.624,4.076,4.076,0,0,1-6.97.346c-.34-.535-.481-1.612-.767-1.938-.263-.3-1.257-.457-1.71-.694-3.933-2.059-1.94-8.254,2.793-7.453.721.122,1.307.844,1.951.685.93-.23,3.191-2.779,4.252-3.271.48-.449-.032-1.14-.078-1.735-.128-1.659.573-2.681.585-3.6.008-.553-.533-2.029-.593-2.852a22.884,22.884,0,0,1,0-2.567c.029-.533.448-1.824.233-2.172l-4.395-3.436c-.555-.152-1.324.625-1.928.72a4.03,4.03,0,0,1-2.819-7.479c.468-.236,1.353-.331,1.636-.619s.477-1.465.842-2.013A4.025,4.025,0,0,1,45.346,91.2c-.042.5-.422,1.15-.228,1.576.2.448,2.544,1.854,3.011,2.382a14.175,14.175,0,0,1,20.59.021c.45-.6,2.77-1.915,3.012-2.4.2-.409-.18-.945-.232-1.426a4.025,4.025,0,0,1,7.492-2.533c.257.479.359,1.392.692,1.713.3.29,1.312.45,1.815.74,4.007,2.3,1.285,8.809-3.36,7.268-.494-.164-1.03-.776-1.569-.628l-4.395,3.436c-.216.348.2,1.639.233,2.172a22.919,22.919,0,0,1,0,2.567c-.059.817-.6,2.312-.593,2.853.018.985.715,1.929.586,3.6-.043.552-.482,1.189-.161,1.664,1.338.874,2.623,2.291,3.93,3.136,1.051.679,1.024-.09,2.012-.372a4.017,4.017,0,0,1,3.588,7.045c-.608.451-1.9.692-2.162.995-.286.326-.427,1.4-.767,1.938-2.193,3.454-7.815,1.841-7.329-2.969.032-.316.294-.672.282-.921-.031-.634-4.993-4.031-5.708-4.8-.932-.407-.538,1.9-.665,2.636a3.672,3.672,0,0,1-.886,1.744M45.5,99.4l1.34-2.609c-.072-.44-3.238-2.263-3.625-3.3-.56-1.492.729-2.6-.266-3.942a1.95,1.95,0,0,0-3.286.173c-.262.455-.272,1-.489,1.465-.814,1.752-2.535,1.185-3.355,2.356a1.975,1.975,0,0,0,2.294,3.045c2.938-2.274,5,1.541,7.388,2.807m25.858,0c1.575-.787,3.811-3.68,5.6-3.57.753.046,1.206.59,1.791.763a1.977,1.977,0,0,0,2.294-3.045c-.584-.835-1.177-.674-1.972-1.034-1.964-.89-1.219-2.773-2.647-3.515a1.927,1.927,0,0,0-2.509.557c-.988,1.262.061,2.188-.161,3.6s-2.873,2.523-3.732,3.638Zm-2.01,15.127a4.1,4.1,0,0,0,.88-4.005c-.132-.462-.53-1.015-.533-1.425,0-.692.652-2.232.739-3.178a12.058,12.058,0,1,0-24.035-.276c.073,1.069.769,2.691.764,3.454,0,.464-.587,1.353-.69,2.019a4.1,4.1,0,0,0,2.966,4.565c1.407.337,2.373-.073,3.428,1.381.921,1.269.351,3.624.792,4.094.331.354,2.728.612,3.336.646,1,.057,5.626-.03,6.2-.646.459-.488-.174-2.829.863-4.173,1.384-1.795,3.616-.7,5.286-2.455M48.5,117.434a9,9,0,0,1-2.713-1.6l-4.773,3.653c-1.834.714-2.2-.616-3.429-.7a2.039,2.039,0,0,0-1.935,2.85c.5,1.157,1.457.97,2.338,1.418,1.646.839,1.1,2.6,2.32,3.392a2.006,2.006,0,0,0,3.018-1.193c.179-.8-.242-1.341-.245-2.189a2.347,2.347,0,0,1,.663-1.825Zm24.6,3.81c1.482,1.6-.035,2.9.545,4.341a1.972,1.972,0,0,0,3.417.34c.63-.886.337-1.822,1.428-2.63.774-.572,1.666-.412,2.335-1.122a1.933,1.933,0,0,0-.4-3.065c-1.661-.977-3,1.135-4.7.337l-4.752-3.631a8.691,8.691,0,0,1-2.627,1.692Z" transform="translate(-28.358 -73.688)" fill="#0c2d70"/>
        <path id="Path_876166" data-name="Path 876166" d="M134.6,220.991c3.258-3.092,9.908.7,7.287,4.807-1.438,2.257-5.542,2.908-7.419.854a4.1,4.1,0,0,1,.132-5.661m5.307,4.1c2.583-2.57-4.283-4.937-4.469-1.381-.132,2.521,3.118,2.726,4.469,1.381" transform="translate(-113.349 -186.813)" fill="#0c2d70"/>
        <path id="Path_876167" data-name="Path 876167" d="M214.144,221.191a4.052,4.052,0,0,1-.529,6.2c-3.594,2.44-9.51-1.655-6.544-5.491,1.539-1.99,5.19-2.5,7.073-.712m-5.307,4.1c1.352,1.345,4.6,1.14,4.469-1.381-.186-3.556-7.052-1.188-4.469,1.381" transform="translate(-175.263 -187.013)" fill="#0c2d70"/>
        <path id="Path_876168" data-name="Path 876168" d="M180.18,276.756a1.073,1.073,0,0,1,.037-1.3,11.232,11.232,0,0,1,2.708-2.41c.6-.039,3.014,2.365,3.071,2.944a1.106,1.106,0,0,1-.988,1.111c-.748.049-1.39-1.112-1.964-1.491-.434-.076-1.789,2.47-2.864,1.148" transform="translate(-152.924 -232.003)" fill="#0c2d70"/>
      </g>
    </g>
  </g>
</svg>
