<svg xmlns="http://www.w3.org/2000/svg" xmlns:xlink="http://www.w3.org/1999/xlink" width="400" height="464" viewBox="0 0 400 464">
  <defs>
    <clipPath id="clip-path">
      <rect id="Rectangle_404064" data-name="Rectangle 404064" width="306.058" height="214.855" fill="none"/>
    </clipPath>
    <clipPath id="clip-path-2">
      <rect id="Rectangle_404090" data-name="Rectangle 404090" width="400" height="297.995" fill="none"/>
    </clipPath>
    <clipPath id="clip-path-4">
      <rect id="Rectangle_404065" data-name="Rectangle 404065" width="103.855" height="12.372" fill="none"/>
    </clipPath>
    <clipPath id="clip-path-5">
      <rect id="Rectangle_404070" data-name="Rectangle 404070" width="294.95" height="8.067" fill="none"/>
    </clipPath>
    <clipPath id="clip-path-6">
      <rect id="Rectangle_404071" data-name="Rectangle 404071" width="18.807" height="18.807" fill="none"/>
    </clipPath>
    <clipPath id="clip-path-7">
      <rect id="Rectangle_404072" data-name="Rectangle 404072" width="18.806" height="18.807" fill="none"/>
    </clipPath>
    <clipPath id="clip-path-10">
      <rect id="Rectangle_404075" data-name="Rectangle 404075" width="18.807" height="18.806" fill="none"/>
    </clipPath>
    <clipPath id="clip-path-11">
      <rect id="Rectangle_404076" data-name="Rectangle 404076" width="18.806" height="18.806" fill="none"/>
    </clipPath>
    <clipPath id="clip-path-15">
      <rect id="Rectangle_404083" data-name="Rectangle 404083" width="344.648" height="1.472" fill="none"/>
    </clipPath>
    <linearGradient id="linear-gradient" x1="-0.089" y1="1.79" x2="-0.087" y2="1.79" gradientUnits="objectBoundingBox">
      <stop offset="0"/>
      <stop offset="1" stop-color="#00070a"/>
    </linearGradient>
    <clipPath id="clip-path-17">
      <rect id="Rectangle_404084" data-name="Rectangle 404084" width="35.193" height="83.665" fill="none"/>
    </clipPath>
    <clipPath id="clip-path-18">
      <rect id="Rectangle_404085" data-name="Rectangle 404085" width="90.964" height="19.785" fill="none"/>
    </clipPath>
    <clipPath id="clip-path-19">
      <path id="Path_875980" data-name="Path 875980" d="M236.612,223.824a9.892,9.892,0,1,0,0,19.784h71.178a9.892,9.892,0,1,0,0-19.784Z" transform="translate(-226.719 -223.824)" fill="none"/>
    </clipPath>
    <linearGradient id="linear-gradient-2" x1="-1.868" y1="6.582" x2="-1.86" y2="6.582" gradientUnits="objectBoundingBox">
      <stop offset="0" stop-color="#fff"/>
      <stop offset="1" stop-color="#fff"/>
    </linearGradient>
  </defs>
  <g id="img20" transform="translate(-915 -4898)">
    <g id="Group_1101837" data-name="Group 1101837" transform="translate(931.942 4931.808)" opacity="0.48">
      <g id="Group_1101730" data-name="Group 1101730">
        <g id="Group_1101729" data-name="Group 1101729" clip-path="url(#clip-path)">
          <path id="Path_875844" data-name="Path 875844" d="M400.087,131.881h-25.9A12.693,12.693,0,0,0,361.5,144.574v.256a12.692,12.692,0,0,0,12.692,12.691h6.681A12.481,12.481,0,0,1,393.352,170v.253a12.481,12.481,0,0,1-12.48,12.48H327.226a11.013,11.013,0,0,0-11.013,11.012v.223a11.013,11.013,0,0,0,11.013,11.012h23.29a11.845,11.845,0,0,1,11.846,11.845v.24a11.847,11.847,0,0,1-11.846,11.846H168.741A11.847,11.847,0,0,1,156.9,217.066v-.24a11.845,11.845,0,0,1,11.846-11.845H219.2a11.013,11.013,0,0,0,11.013-11.012v-.223A11.013,11.013,0,0,0,219.2,182.734H150.759a12.481,12.481,0,0,1-12.48-12.48V170a12.481,12.481,0,0,1,12.48-12.479h88.547A12.692,12.692,0,0,0,252,144.831v-.256a12.693,12.693,0,0,0-12.692-12.693H227.511a12.691,12.691,0,0,1-12.691-12.69v-.259a12.692,12.692,0,0,1,12.691-12.69H233.5a9.519,9.519,0,0,0,9.52-9.518V96.53a9.518,9.518,0,0,0-9.52-9.517h-50.45a12.692,12.692,0,0,1-12.691-12.693v-.255a12.691,12.691,0,0,1,12.691-12.691h28.1a11.356,11.356,0,0,0,11.356-11.356v-.23c0-6.272-7.8-11.356-14.073-11.356H162.023a11.979,11.979,0,0,1-11.979-11.979V26.21a11.981,11.981,0,0,1,11.979-11.98h138.7A11.98,11.98,0,0,1,312.7,26.21v.242A11.979,11.979,0,0,1,300.72,38.431h-4.785a11.356,11.356,0,0,0-11.356,11.356v.23a11.356,11.356,0,0,0,11.356,11.356h87.913a12.691,12.691,0,0,1,12.692,12.691v.255a12.693,12.693,0,0,1-12.692,12.693h-3.856a9.517,9.517,0,0,0-9.518,9.517v.194a9.518,9.518,0,0,0,9.518,9.518h20.1a12.691,12.691,0,0,1,12.691,12.69v.259a12.69,12.69,0,0,1-12.691,12.69" transform="translate(-126.974 -14.231)" fill="#bacdff"/>
          <path id="Path_875845" data-name="Path 875845" d="M388.22,140.5h-4.313a12.327,12.327,0,0,0,0,24.653h4.313a12.327,12.327,0,1,0,0-24.653" transform="translate(-102.489 -118.962)" fill="#bacdff"/>
          <path id="Path_875846" data-name="Path 875846" d="M137.917,78.2a12.61,12.61,0,0,1-1.987-.67l-7.013-7.661a12.656,12.656,0,0,1-.494-2.039Z" transform="translate(-128.347 -6.768)" fill="#bacdff"/>
          <path id="Path_875847" data-name="Path 875847" d="M142.614,79.137h-1.373L128.355,65.062a12.692,12.692,0,0,1,.2-1.277Z" transform="translate(-128.356 -7.331)" fill="#bacdff"/>
          <path id="Path_875848" data-name="Path 875848" d="M146.782,79.49c-.415.041-.834.063-1.259.063h-.057L129.209,61.794q.217-.5.475-.981Z" transform="translate(-128.237 -7.745)" fill="#bacdff"/>
          <path id="Path_875849" data-name="Path 875849" d="M150.112,78.936c-.337.138-.68.263-1.031.373L130.723,59.254q.318-.4.666-.77Z" transform="translate(-128.026 -8.069)" fill="#bacdff"/>
          <path id="Path_875850" data-name="Path 875850" d="M152.688,77.559c-.271.205-.553.4-.841.581L132.739,57.267c.272-.205.554-.4.842-.58Z" transform="translate(-127.746 -8.319)" fill="#bacdff"/>
          <path id="Path_875851" data-name="Path 875851" d="M154.632,75.491q-.318.4-.665.772L135.251,55.819c.338-.137.682-.262,1.033-.37Z" transform="translate(-127.396 -8.492)" fill="#bacdff"/>
          <path id="Path_875852" data-name="Path 875852" d="M155.443,73.673,138.365,55.016c.4-.039.813-.06,1.227-.06h.09l16.235,17.735q-.217.5-.474.982" transform="translate(-126.962 -8.56)" fill="#bacdff"/>
          <path id="Path_875853" data-name="Path 875853" d="M156.359,69a12.723,12.723,0,0,1-.2,1.279L142.13,54.957H143.5Z" transform="translate(-126.438 -8.56)" fill="#bacdff"/>
          <path id="Path_875854" data-name="Path 875854" d="M155.191,63.558a12.547,12.547,0,0,1,.507,2.053l-9.445-10.318a12.626,12.626,0,0,1,2,.686Z" transform="translate(-125.864 -8.513)" fill="#bacdff"/>
          <path id="Path_875855" data-name="Path 875855" d="M335.737,47.551a12.636,12.636,0,0,1-1.986-.67l-7.013-7.661a12.642,12.642,0,0,1-.5-2.039Z" transform="translate(-100.802 -11.036)" fill="#bacdff"/>
          <path id="Path_875856" data-name="Path 875856" d="M340.434,48.487h-1.373L326.175,34.412a12.7,12.7,0,0,1,.2-1.277Z" transform="translate(-100.811 -11.599)" fill="#bacdff"/>
          <path id="Path_875857" data-name="Path 875857" d="M344.6,48.839c-.415.041-.834.063-1.259.063h-.057L327.03,31.143q.217-.5.475-.981Z" transform="translate(-100.692 -12.013)" fill="#bacdff"/>
          <path id="Path_875858" data-name="Path 875858" d="M347.932,48.285c-.337.138-.68.263-1.031.373L328.543,28.6q.318-.4.666-.77Z" transform="translate(-100.481 -12.337)" fill="#bacdff"/>
          <path id="Path_875859" data-name="Path 875859" d="M350.508,46.909c-.271.205-.552.4-.841.581L330.559,26.617c.272-.205.554-.4.842-.58Z" transform="translate(-100.201 -12.587)" fill="#bacdff"/>
          <path id="Path_875860" data-name="Path 875860" d="M352.452,44.841q-.318.4-.665.772L333.071,25.169c.338-.137.682-.262,1.033-.37Z" transform="translate(-99.851 -12.76)" fill="#bacdff"/>
          <path id="Path_875861" data-name="Path 875861" d="M353.263,43.023,336.185,24.366c.4-.039.813-.06,1.227-.06h.09l16.235,17.735q-.217.5-.474.982" transform="translate(-99.417 -12.828)" fill="#bacdff"/>
          <path id="Path_875862" data-name="Path 875862" d="M354.179,38.349a12.742,12.742,0,0,1-.2,1.279L339.95,24.306h1.373Z" transform="translate(-98.893 -12.828)" fill="#bacdff"/>
          <path id="Path_875863" data-name="Path 875863" d="M353.01,32.907a12.538,12.538,0,0,1,.507,2.053l-9.445-10.318a12.624,12.624,0,0,1,2,.686Z" transform="translate(-98.319 -12.781)" fill="#bacdff"/>
          <path id="Path_875864" data-name="Path 875864" d="M345.207,194.86a12.418,12.418,0,0,1-.313-1.842l10.042,10.969a12.118,12.118,0,0,1-1.809-.475Z" transform="translate(-98.205 10.664)" fill="#bacdff"/>
          <path id="Path_875865" data-name="Path 875865" d="M344.986,190.419a12.02,12.02,0,0,1,.261-1.217l14.209,15.521h-1.374Z" transform="translate(-98.192 10.132)" fill="#bacdff"/>
          <path id="Path_875866" data-name="Path 875866" d="M345.978,187.3c.159-.32.33-.632.516-.936l16.992,18.561q-.607.108-1.233.155Z" transform="translate(-98.054 9.737)" fill="#bacdff"/>
          <path id="Path_875867" data-name="Path 875867" d="M347.6,184.883c.224-.252.461-.493.708-.727L366.6,204.131c-.318.159-.644.3-.976.435Z" transform="translate(-97.828 9.43)" fill="#bacdff"/>
          <path id="Path_875868" data-name="Path 875868" d="M349.735,183.023c.287-.189.582-.368.885-.533l18.363,20.06c-.253.224-.513.44-.784.644Z" transform="translate(-97.531 9.198)" fill="#bacdff"/>
          <path id="Path_875869" data-name="Path 875869" d="M352.39,181.728q.542-.173,1.105-.293l17.232,18.824q-.285.432-.606.837Z" transform="translate(-97.161 9.051)" fill="#bacdff"/>
          <path id="Path_875870" data-name="Path 875870" d="M355.74,181.186h1.373l14.63,15.981c-.114.366-.245.723-.39,1.073Z" transform="translate(-96.694 9.016)" fill="#bacdff"/>
          <path id="Path_875871" data-name="Path 875871" d="M361.022,181.291l10.728,11.718c.006.167.013.335.013.5,0,.325-.017.646-.041.965l-12.166-13.289a12.681,12.681,0,0,1,1.466.1" transform="translate(-96.163 9.017)" fill="#bacdff"/>
          <path id="Path_875872" data-name="Path 875872" d="M370.107,188.548l-5.585-6.1a12.373,12.373,0,0,1,5.585,6.1" transform="translate(-95.472 9.192)" fill="#bacdff"/>
        </g>
      </g>
    </g>
    <g id="Group_1101783" data-name="Group 1101783" transform="translate(105 136)">
      <rect id="Rectangle_403818" data-name="Rectangle 403818" width="400" height="330" transform="translate(810 4896)" fill="none"/>
      <g id="Group_1101782" data-name="Group 1101782" transform="translate(810 4911.842)">
        <g id="Group_1101781" data-name="Group 1101781" clip-path="url(#clip-path-2)">
          <g id="Group_1101766" data-name="Group 1101766">
            <g id="Group_1101765" data-name="Group 1101765" clip-path="url(#clip-path-2)">
              <path id="Path_875873" data-name="Path 875873" d="M160.7,70.945S183.98,32.9,164,29.868s-3.3,41.077-3.3,41.077" transform="translate(-38.602 -7.441)" fill="#3e8f7d"/>
              <path id="Path_875874" data-name="Path 875874" d="M162.025,91.475c-.582-.657-.918-5.684-.921-5.735a44.507,44.507,0,0,1,.538-10.716c-2.609-14.674,2.127-28.381,2.175-28.518a.719.719,0,0,1,1.356.478c-.047.134-4.685,13.579-2.093,27.917a.71.71,0,0,1,0,.264,43.877,43.877,0,0,0,.106,15.474.718.718,0,0,1-1.159.836m1.076-.951h0" transform="translate(-40.276 -11.525)" fill="#276b5b"/>
              <path id="Path_875875" data-name="Path 875875" d="M131.546,41.193S150.288.719,130.087.009s1.459,41.184,1.459,41.184" transform="translate(-30.415 0)" fill="#3e8f7d"/>
              <path id="Path_875876" data-name="Path 875876" d="M173.7,101.416a.718.718,0,0,0,.43-1.295c-9.468-7.056-32.274-26.545-39.514-55.052l-.009-.031c-4.229-13.944-1.17-27.833-1.139-27.972a.719.719,0,1,0-1.4-.318c-.032.142-3.175,14.378,1.16,28.691,7.358,28.945,30.455,48.689,40.045,55.835a.716.716,0,0,0,.429.142" transform="translate(-32.783 -4.053)" fill="#276b5b"/>
              <path id="Path_875877" data-name="Path 875877" d="M115.021,50.168s-11.08-34.59-23.578-23.88,23.578,23.88,23.578,23.88" transform="translate(-22.237 -6.067)" fill="#3e8f7d"/>
              <path id="Path_875878" data-name="Path 875878" d="M129.324,59.963a.718.718,0,0,0,.043-1.436c-2.058-.126-8.543-4.364-10.869-5.986-.015-.01-.03-.02-.046-.029A50.059,50.059,0,0,1,102.4,36.423a.718.718,0,0,0-1.247.714,50.637,50.637,0,0,0,16.549,16.6c.992.691,8.774,6.054,11.582,6.226h.044" transform="translate(-25.303 -9.029)" fill="#276b5b"/>
              <path id="Path_875879" data-name="Path 875879" d="M131.917,94.219S105.711,55.783,94.266,73.488s37.651,20.731,37.651,20.731" transform="translate(-23.17 -17.233)" fill="#3e8f7d"/>
              <path id="Path_875880" data-name="Path 875880" d="M155.569,107.149a.718.718,0,0,0,.229-1.4c-.136-.046-13.586-4.585-19.231-8.594a.729.729,0,0,0-.243-.111c-14.753-3.679-25.558-13.854-25.665-13.956a.718.718,0,0,0-.992,1.04c.109.1,11.112,10.477,26.179,14.278,5.875,4.11,18.938,8.519,19.5,8.706a.716.716,0,0,0,.229.037" transform="translate(-27.403 -20.754)" fill="#276b5b"/>
              <path id="Path_875881" data-name="Path 875881" d="M464.235,250.051V304.08a32.008,32.008,0,0,0,8.63,1.911,32.422,32.422,0,0,0,13.714-1.911,49.371,49.371,0,0,0,22.2-59.7,49.364,49.364,0,0,0-44.54,5.669" transform="translate(-116.237 -60.46)" fill="#3e8f7d"/>
              <path id="Path_875882" data-name="Path 875882" d="M508.711,266.569a47.717,47.717,0,0,1-9.8.911,77.206,77.206,0,0,1-11.306-.863l-13.061,13.06c3.606.877,17.758,3.99,29.394,2.05a.514.514,0,1,1,.168,1.014,51.564,51.564,0,0,1-8.427.637,97.763,97.763,0,0,1-21.982-2.853l-9.267,9.267a.512.512,0,0,1-.726,0,.513.513,0,0,1,0-.726l3.2-3.2c-.475-2.115-3.373-15.762-2.226-29.114a.514.514,0,1,1,1.024.089c-1.05,12.241,1.341,24.748,2.067,28.161l12.12-12.121a95.363,95.363,0,0,1-2.284-22.652.513.513,0,0,1,1.025.043,93.57,93.57,0,0,0,2.12,21.748l6.313-6.311,6.51-6.509c-.334-1.632-1.924-9.869-1.18-15.269a.514.514,0,0,1,1.019.14c-.64,4.648.557,11.725,1.036,14.252l10.384-10.382a.513.513,0,1,1,.726.726L494.5,259.722l-.007.007-5.984,5.984c3,.428,12.267,1.505,19.991-.149a.514.514,0,0,1,.216,1.005" transform="translate(-116.066 -60.966)" fill="#53bda7"/>
              <path id="Path_875883" data-name="Path 875883" d="M464.235,200.784V252.8c9.106-6.006,18.766-16.321,25.776-34.015l-7.256-1.54,8.974-3.1a151.235,151.235,0,0,0,6.924-31.9,114.876,114.876,0,0,0-22.124,10.159l-1.865,10.483-2-8.106c-2.789,1.792-5.63,3.792-8.429,6.013" transform="translate(-116.237 -45.629)" fill="#276b5b"/>
              <path id="Path_875884" data-name="Path 875884" d="M490.364,313.517h0c-.233,0-.464,0-.695,0a79.425,79.425,0,0,1-25.434-4.2.514.514,0,0,0-.337.971,80.46,80.46,0,0,0,25.77,4.262q.351,0,.7,0a.514.514,0,0,0,0-1.028" transform="translate(-116.066 -77.441)" fill="#53bda7"/>
              <path id="Path_875885" data-name="Path 875885" d="M463.752,228a.513.513,0,0,0,.72-.1l1.51-1.988h17.812a.514.514,0,0,0,0-1.028H466.763l8.137-10.715H487.72a.514.514,0,1,0,0-1.028H475.68l4.663-6.139,11.061-.3a.514.514,0,0,0,.5-.527.519.519,0,0,0-.528-.5l-10.236.279,14.733-19.4a.514.514,0,1,0-.818-.622l-8.28,10.9v-5.253a.514.514,0,0,0-1.028,0v6.6l-15.061,19.832L469.664,203a.514.514,0,1,0-1.025.07l1.1,16.2-6.088,8.016a.514.514,0,0,0,.1.72" transform="translate(-116.066 -46.505)" fill="#3e8f7d"/>
              <path id="Path_875886" data-name="Path 875886" d="M464.108,252.554a.514.514,0,0,0-.089,1.023l10.22.891.046,0a.514.514,0,0,0,.044-1.025Z" transform="translate(-116.066 -63.235)" fill="#3e8f7d"/>
              <path id="Path_875887" data-name="Path 875887" d="M54.281,230.8v61.8a25.5,25.5,0,0,1-25.558,0A56.471,56.471,0,0,1,3.334,224.316,56.465,56.465,0,0,1,54.281,230.8" transform="translate(0 -55.331)" fill="#3e8f7d"/>
              <path id="Path_875888" data-name="Path 875888" d="M4.127,249.7a54.6,54.6,0,0,0,11.213,1.042,88.242,88.242,0,0,0,12.933-.987L43.214,264.69c-4.125,1-20.312,4.564-33.623,2.345a.588.588,0,0,0-.192,1.16,59.033,59.033,0,0,0,9.64.729,111.78,111.78,0,0,0,25.145-3.264l10.6,10.6a.586.586,0,0,0,.831,0,.587.587,0,0,0,0-.831l-3.655-3.657c.543-2.42,3.857-18.031,2.546-33.3a.588.588,0,0,0-1.172.1c1.2,14-1.534,28.308-2.364,32.213L37.106,256.918c.482-2.114,3.109-14.269,2.613-25.91a.587.587,0,0,0-1.173.049c.448,10.545-1.7,21.524-2.425,24.877L28.9,248.715l-7.446-7.446c.382-1.867,2.2-11.289,1.35-17.466a.588.588,0,0,0-1.166.16c.732,5.317-.636,13.413-1.185,16.3L8.575,228.389a.587.587,0,0,0-.831.831l12.644,12.644a.025.025,0,0,0,.007.008l6.845,6.844c-3.436.49-14.032,1.722-22.867-.17a.588.588,0,0,0-.247,1.15" transform="translate(-0.917 -55.91)" fill="#53bda7"/>
              <path id="Path_875889" data-name="Path 875889" d="M59.262,174.446v59.5c-10.416-6.87-21.466-18.669-29.484-38.909l8.3-1.761-10.264-3.552a173.01,173.01,0,0,1-7.92-36.493A131.419,131.419,0,0,1,45.2,164.85l2.133,11.99,2.286-9.271c3.189,2.049,6.438,4.337,9.642,6.878" transform="translate(-4.981 -38.366)" fill="#276b5b"/>
              <path id="Path_875890" data-name="Path 875890" d="M32.081,303.4h.005c.267,0,.531,0,.8,0a90.856,90.856,0,0,0,29.093-4.81.588.588,0,0,1,.385,1.11,92.048,92.048,0,0,1-29.479,4.875c-.267,0-.536,0-.805,0a.588.588,0,0,1,.005-1.175" transform="translate(-7.885 -74.755)" fill="#53bda7"/>
              <path id="Path_875891" data-name="Path 875891" d="M60.573,205.582a.587.587,0,0,1-.823-.112L58.023,203.2H37.649a.588.588,0,1,1,0-1.175H57.13l-9.309-12.256H33.157a.588.588,0,1,1,0-1.175H46.929L41.6,181.565l-12.652-.344a.588.588,0,1,1,.031-1.175l11.709.319-16.853-22.19a.587.587,0,0,1,.936-.711l9.471,12.47v-6.007a.588.588,0,1,1,1.175,0v7.555l17.228,22.684,1.17-17.183a.588.588,0,1,1,1.172.08l-1.261,18.527,6.963,9.169a.587.587,0,0,1-.112.823" transform="translate(-5.937 -39.368)" fill="#3e8f7d"/>
              <path id="Path_875892" data-name="Path 875892" d="M68.26,233.664a.588.588,0,0,1,.1,1.171l-11.691,1.019-.052,0a.588.588,0,0,1-.05-1.173Z" transform="translate(-14.03 -58.505)" fill="#3e8f7d"/>
              <path id="Path_875893" data-name="Path 875893" d="M32.629,100.724H75.721c-.558-3.033-3.031-5.958-6.11-6.148A9.186,9.186,0,0,0,62.9,87.448c-3.708-.917-7.127.977-9.548,3.7a10.064,10.064,0,0,0-7.539-.63,10.424,10.424,0,0,0-5.765,5.115,5.627,5.627,0,0,0-4.655.663,6.876,6.876,0,0,0-2.76,4.429" transform="translate(-8.17 -21.837)" fill="#bacdff"/>
              <path id="Path_875894" data-name="Path 875894" d="M10.2,72.1H58.988c-1.665-4.188-5.486-5.417-8.624-3.779-1.591-2.427-5.744-6.45-9.388-7.1s-7.457.957-10.29,4.343c-2.814-2.353-6.73-1-8.766,2.666C18.337,65.52,13.069,67.98,10.2,72.1" transform="translate(-2.553 -15.292)" fill="#bacdff"/>
              <path id="Path_875895" data-name="Path 875895" d="M240.445,69.228c2.409-5.078,8.458-7.1,12.268-3.835.951-4.126,5.843-6.013,8.537-3.561a7.57,7.57,0,0,1,5.453-4.22,7.217,7.217,0,0,1,6.253,2.849c5.712-3.649,13.292-1.114,16.986,5.683,1.307-1.942,4.4-1.3,5.324.991,1.8-3.551,5.359-6.314,8.6-6.589s6.537,1.535,8.668,4.753c2.537-1.28,6.206.519,7.022,3.929Z" transform="translate(-60.204 -14.415)" fill="#bacdff"/>
              <path id="Path_875896" data-name="Path 875896" d="M491.865,124.182H400.15a6.667,6.667,0,0,1-6.659-6.66V25.808a6.666,6.666,0,0,1,6.659-6.658h91.715a6.666,6.666,0,0,1,6.659,6.658v91.715a6.667,6.667,0,0,1-6.659,6.66M400.15,20.328a5.487,5.487,0,0,0-5.48,5.48v91.715A5.488,5.488,0,0,0,400.15,123h91.715a5.488,5.488,0,0,0,5.481-5.482V25.808a5.487,5.487,0,0,0-5.481-5.48Z" transform="translate(-98.524 -4.795)" fill="#83a0f0"/>
              <g id="Group_1101734" data-name="Group 1101734" transform="translate(295.556 14.944)" opacity="0.53">
                <g id="Group_1101733" data-name="Group 1101733">
                  <g id="Group_1101732" data-name="Group 1101732" clip-path="url(#clip-path-4)">
                    <path id="Path_875897" data-name="Path 875897" d="M496.192,32.307H396.121a1.844,1.844,0,0,1-1.844-1.844V26.586a6.65,6.65,0,0,1,6.651-6.651h91.06a6.143,6.143,0,0,1,6.144,6.143v4.289a1.94,1.94,0,0,1-1.94,1.94" transform="translate(-394.277 -19.935)" fill="#5e60f4"/>
                  </g>
                </g>
              </g>
              <path id="Path_875898" data-name="Path 875898" d="M508.408,28.166a3.386,3.386,0,1,1-3.386-3.386,3.386,3.386,0,0,1,3.386,3.386" transform="translate(-125.602 -6.205)" fill="#f9cf70"/>
              <path id="Path_875899" data-name="Path 875899" d="M494.268,28.166a3.386,3.386,0,1,1-3.386-3.386,3.386,3.386,0,0,1,3.386,3.386" transform="translate(-122.061 -6.205)" fill="#f9cf70"/>
              <path id="Path_875900" data-name="Path 875900" d="M522.941,28.166a3.386,3.386,0,1,1-3.386-3.386,3.386,3.386,0,0,1,3.386,3.386" transform="translate(-129.241 -6.205)" fill="#d65a29"/>
              <rect id="Rectangle_404066" data-name="Rectangle 404066" width="52.507" height="9.52" transform="translate(322.01 64.284)" fill="#1c2684"/>
              <path id="Path_875901" data-name="Path 875901" d="M482.051,85.881v32.676H429.476v-32.8h.067l6.11,7.505h39.233Z" transform="translate(-107.534 -21.472)" fill="#5e60f4"/>
              <path id="Path_875902" data-name="Path 875902" d="M455.762,52.138l-26.288,25.2H482.05Z" transform="translate(-107.534 -13.055)" fill="#1c2684"/>
              <path id="Path_875903" data-name="Path 875903" d="M464.067,113.3a6.989,6.989,0,0,1-3.416.768,5.712,5.712,0,0,1-5.815-5.987c0-3.953,2.744-7.369,7-7.369a5.33,5.33,0,0,1,5.585,5.546c0,2.879-1.612,4.567-3.416,4.567a1.42,1.42,0,0,1-1.42-1.689h-.077a3.014,3.014,0,0,1-2.705,1.689,2.176,2.176,0,0,1-2.073-2.418,4.532,4.532,0,0,1,4.548-4.548,5.06,5.06,0,0,1,2.053.4l-.652,3.474c-.288,1.459-.058,2.13.576,2.149.979.019,2.073-1.286,2.073-3.511,0-2.783-1.669-4.779-4.644-4.779-3.128,0-5.758,2.476-5.758,6.371,0,3.205,2.092,5.182,4.932,5.182a5.982,5.982,0,0,0,2.9-.672Zm-1.055-8.29a3.122,3.122,0,0,0-4.011,3.32c0,.844.423,1.459,1.267,1.459,1.113,0,2.13-1.421,2.341-2.61Z" transform="translate(-113.884 -25.217)" fill="#f5fffe"/>
              <rect id="Rectangle_404067" data-name="Rectangle 404067" width="35.212" height="33.612" transform="translate(330.622 37.995)" fill="#83a0f0"/>
              <path id="Path_875904" data-name="Path 875904" d="M473.9,58.524H446.673a.161.161,0,0,1,0-.322H473.9a.161.161,0,0,1,0,.322" transform="translate(-111.8 -14.573)" fill="#f5fffe"/>
              <path id="Path_875905" data-name="Path 875905" d="M473.9,65.1H446.673a.161.161,0,0,1,0-.322H473.9a.161.161,0,0,1,0,.322" transform="translate(-111.8 -16.22)" fill="#f5fffe"/>
              <path id="Path_875906" data-name="Path 875906" d="M473.9,71.68H446.673a.161.161,0,0,1,0-.322H473.9a.161.161,0,0,1,0,.322" transform="translate(-111.8 -17.867)" fill="#f5fffe"/>
              <path id="Path_875907" data-name="Path 875907" d="M473.9,78.258H446.673a.161.161,0,0,1,0-.322H473.9a.161.161,0,0,1,0,.322" transform="translate(-111.8 -19.514)" fill="#f5fffe"/>
              <path id="Path_875908" data-name="Path 875908" d="M473.9,84.836H446.673a.161.161,0,0,1,0-.322H473.9a.161.161,0,0,1,0,.322" transform="translate(-111.8 -21.161)" fill="#f5fffe"/>
              <path id="Path_875909" data-name="Path 875909" d="M473.9,91.414H446.673a.161.161,0,0,1,0-.322H473.9a.161.161,0,0,1,0,.322" transform="translate(-111.8 -22.808)" fill="#f5fffe"/>
              <path id="Path_875910" data-name="Path 875910" d="M429.476,119.9l20.267-24.138h-.42L429.476,119.4Z" transform="translate(-107.534 -23.979)" fill="#f5fffe"/>
              <path id="Path_875911" data-name="Path 875911" d="M493.036,118.727l-19.276-22.96h-.421l19.7,23.459Z" transform="translate(-118.517 -23.979)" fill="#f5fffe"/>
              <path id="Path_875912" data-name="Path 875912" d="M504.426,122.321H502.95v-7.746a5.753,5.753,0,0,0-11.505,0V122h-1.477v-7.426a7.229,7.229,0,0,1,14.458,0Z" transform="translate(-122.68 -26.878)" fill="#1c2684"/>
              <path id="Path_875913" data-name="Path 875913" d="M503.3,136.557h-14.2a3.1,3.1,0,0,1-3.1-3.1V122.982a3.1,3.1,0,0,1,3.1-3.1h14.2a3.1,3.1,0,0,1,3.1,3.1v10.477a3.1,3.1,0,0,1-3.1,3.1" transform="translate(-121.689 -30.017)" fill="#f9cf70"/>
              <path id="Path_875914" data-name="Path 875914" d="M500.988,126.094a2.087,2.087,0,1,0-2.966,1.89l-.514,4.705H500.3l-.514-4.705a2.085,2.085,0,0,0,1.207-1.89" transform="translate(-124.395 -31.05)" fill="#1c2684"/>
              <path id="Path_875915" data-name="Path 875915" d="M371.955,99.121H66.988a1.213,1.213,0,0,0-1.213,1.213V283.486a1.213,1.213,0,0,0,1.213,1.213H371.955a1.213,1.213,0,0,0,1.213-1.213V100.334a1.212,1.212,0,0,0-1.213-1.213" transform="translate(-16.469 -24.818)" fill="#1c2684"/>
              <rect id="Rectangle_404068" data-name="Rectangle 404068" width="294.95" height="170.286" transform="translate(55.528 80.734)" fill="#83a0f0"/>
              <g id="Group_1101737" data-name="Group 1101737" transform="translate(55.528 80.734)" opacity="0.53">
                <g id="Group_1101736" data-name="Group 1101736">
                  <g id="Group_1101735" data-name="Group 1101735" clip-path="url(#clip-path-5)">
                    <rect id="Rectangle_404069" data-name="Rectangle 404069" width="294.95" height="8.067" transform="translate(0)" fill="#5e60f4"/>
                  </g>
                </g>
              </g>
              <g id="Group_1101740" data-name="Group 1101740" transform="translate(320.574 102.46)" opacity="0.53">
                <g id="Group_1101739" data-name="Group 1101739">
                  <g id="Group_1101738" data-name="Group 1101738" clip-path="url(#clip-path-6)">
                    <path id="Path_875916" data-name="Path 875916" d="M441.609,136.684H432.5a4.85,4.85,0,0,0-4.85,4.85v9.106a4.85,4.85,0,0,0,4.85,4.85h9.106a4.85,4.85,0,0,0,4.85-4.85v-9.106a4.85,4.85,0,0,0-4.85-4.85" transform="translate(-427.652 -136.684)" fill="#5e60f4"/>
                  </g>
                </g>
              </g>
              <g id="Group_1101743" data-name="Group 1101743" transform="translate(289.365 102.46)" opacity="0.53">
                <g id="Group_1101742" data-name="Group 1101742">
                  <g id="Group_1101741" data-name="Group 1101741" clip-path="url(#clip-path-7)">
                    <path id="Path_875917" data-name="Path 875917" d="M399.974,136.684h-9.106a4.85,4.85,0,0,0-4.85,4.85v9.106a4.85,4.85,0,0,0,4.85,4.85h9.106a4.85,4.85,0,0,0,4.85-4.85v-9.106a4.85,4.85,0,0,0-4.85-4.85" transform="translate(-386.018 -136.684)" fill="#5e60f4"/>
                  </g>
                </g>
              </g>
              <g id="Group_1101746" data-name="Group 1101746" transform="translate(320.574 130.62)" opacity="0.53">
                <g id="Group_1101745" data-name="Group 1101745">
                  <g id="Group_1101744" data-name="Group 1101744" clip-path="url(#clip-path-6)">
                    <path id="Path_875918" data-name="Path 875918" d="M441.609,174.25H432.5a4.85,4.85,0,0,0-4.85,4.85v9.106a4.85,4.85,0,0,0,4.85,4.85h9.106a4.85,4.85,0,0,0,4.85-4.85V179.1a4.85,4.85,0,0,0-4.85-4.85" transform="translate(-427.652 -174.25)" fill="#5e60f4"/>
                  </g>
                </g>
              </g>
              <g id="Group_1101749" data-name="Group 1101749" transform="translate(289.365 130.62)" opacity="0.53">
                <g id="Group_1101748" data-name="Group 1101748">
                  <g id="Group_1101747" data-name="Group 1101747" clip-path="url(#clip-path-7)">
                    <path id="Path_875919" data-name="Path 875919" d="M399.974,174.25h-9.106a4.85,4.85,0,0,0-4.85,4.85v9.106a4.85,4.85,0,0,0,4.85,4.85h9.106a4.85,4.85,0,0,0,4.85-4.85V179.1a4.85,4.85,0,0,0-4.85-4.85" transform="translate(-386.018 -174.25)" fill="#5e60f4"/>
                  </g>
                </g>
              </g>
              <g id="Group_1101752" data-name="Group 1101752" transform="translate(320.574 158.781)" opacity="0.53">
                <g id="Group_1101751" data-name="Group 1101751">
                  <g id="Group_1101750" data-name="Group 1101750" clip-path="url(#clip-path-10)">
                    <path id="Path_875920" data-name="Path 875920" d="M441.609,211.816H432.5a4.85,4.85,0,0,0-4.85,4.85v9.106a4.85,4.85,0,0,0,4.85,4.85h9.106a4.85,4.85,0,0,0,4.85-4.85v-9.106a4.85,4.85,0,0,0-4.85-4.85" transform="translate(-427.652 -211.816)" fill="#5e60f4"/>
                  </g>
                </g>
              </g>
              <g id="Group_1101755" data-name="Group 1101755" transform="translate(289.365 158.781)" opacity="0.53">
                <g id="Group_1101754" data-name="Group 1101754">
                  <g id="Group_1101753" data-name="Group 1101753" clip-path="url(#clip-path-11)">
                    <path id="Path_875921" data-name="Path 875921" d="M399.974,211.816h-9.106a4.85,4.85,0,0,0-4.85,4.85v9.106a4.85,4.85,0,0,0,4.85,4.85h9.106a4.85,4.85,0,0,0,4.85-4.85v-9.106a4.85,4.85,0,0,0-4.85-4.85" transform="translate(-386.018 -211.816)" fill="#5e60f4"/>
                  </g>
                </g>
              </g>
              <g id="Group_1101758" data-name="Group 1101758" transform="translate(320.574 186.941)" opacity="0.53">
                <g id="Group_1101757" data-name="Group 1101757">
                  <g id="Group_1101756" data-name="Group 1101756" clip-path="url(#clip-path-10)">
                    <path id="Path_875922" data-name="Path 875922" d="M441.609,249.382H432.5a4.85,4.85,0,0,0-4.85,4.85v9.106a4.85,4.85,0,0,0,4.85,4.85h9.106a4.85,4.85,0,0,0,4.85-4.85v-9.106a4.85,4.85,0,0,0-4.85-4.85" transform="translate(-427.652 -249.382)" fill="#5e60f4"/>
                  </g>
                </g>
              </g>
              <g id="Group_1101761" data-name="Group 1101761" transform="translate(289.365 186.941)" opacity="0.53">
                <g id="Group_1101760" data-name="Group 1101760">
                  <g id="Group_1101759" data-name="Group 1101759" clip-path="url(#clip-path-11)">
                    <path id="Path_875923" data-name="Path 875923" d="M399.974,249.382h-9.106a4.85,4.85,0,0,0-4.85,4.85v9.106a4.85,4.85,0,0,0,4.85,4.85h9.106a4.85,4.85,0,0,0,4.85-4.85v-9.106a4.85,4.85,0,0,0-4.85-4.85" transform="translate(-386.018 -249.382)" fill="#5e60f4"/>
                  </g>
                </g>
              </g>
              <g id="Group_1101764" data-name="Group 1101764" transform="translate(320.574 215.101)" opacity="0.53">
                <g id="Group_1101763" data-name="Group 1101763">
                  <g id="Group_1101762" data-name="Group 1101762" clip-path="url(#clip-path-6)">
                    <path id="Path_875924" data-name="Path 875924" d="M441.609,286.948H432.5a4.85,4.85,0,0,0-4.85,4.85V300.9a4.85,4.85,0,0,0,4.85,4.85h9.106a4.85,4.85,0,0,0,4.85-4.85V291.8a4.85,4.85,0,0,0-4.85-4.85" transform="translate(-427.652 -286.948)" fill="#5e60f4"/>
                  </g>
                </g>
              </g>
              <rect id="Rectangle_404080" data-name="Rectangle 404080" width="55.207" height="27.342" transform="translate(175.399 259.88)" fill="#0c1756"/>
              <path id="Path_875925" data-name="Path 875925" d="M301.923,383.161H199.162a9.292,9.292,0,0,0-9.292,9.292H311.215a9.292,9.292,0,0,0-9.292-9.292" transform="translate(-47.541 -95.938)" fill="#1c2684"/>
            </g>
          </g>
          <g id="Group_1101768" data-name="Group 1101768" transform="translate(30.679 295.36)">
            <g id="Group_1101767" data-name="Group 1101767" clip-path="url(#clip-path-15)">
              <rect id="Rectangle_404082" data-name="Rectangle 404082" width="344.648" height="1.472" transform="translate(0)" fill="url(#linear-gradient)"/>
            </g>
          </g>
          <g id="Group_1101776" data-name="Group 1101776">
            <g id="Group_1101775" data-name="Group 1101775" clip-path="url(#clip-path-2)">
              <path id="Path_875926" data-name="Path 875926" d="M416.787,193.724a5.446,5.446,0,0,0,2.048-1.082c.052-.039.1-.081.154-.124a12.837,12.837,0,0,1-1.732,3.1c-.131-.3-.276-.6-.426-.9a4.112,4.112,0,0,0-.044-1" transform="translate(-104.357 -48.204)" fill="#1c2684"/>
              <path id="Path_875927" data-name="Path 875927" d="M415.032,193.258l1.349,6.281s-1.876,3.327-4.3,3.973-4.3-2.366-4.3-2.366l.57-3.385,4.946-4.5Z" transform="translate(-102.101 -48.389)" fill="#a55c37"/>
              <path id="Path_875928" data-name="Path 875928" d="M413.291,193.258h1.74l.481,2.236a10.574,10.574,0,0,1-2.4,4.319,5.654,5.654,0,0,1-4.773,1.684,4.242,4.242,0,0,1-.56-.352l.571-3.385Z" transform="translate(-102.1 -48.389)" fill="#8e492b"/>
              <path id="Path_875929" data-name="Path 875929" d="M403.1,182.582c-.561,4.321-.217,12.639,2.9,13.784a7.347,7.347,0,0,0,5.616-.843,4.627,4.627,0,0,0,1.691-4.286,5.457,5.457,0,0,0,2.048-1.082,2.656,2.656,0,0,0,1.083-1.834,1.842,1.842,0,0,0-.946-1.83,1.3,1.3,0,0,0-1.731.759,14.971,14.971,0,0,0-.657,2.061l-1.123-.3q-.22-2.163-.639-4.3a3.318,3.318,0,0,0-.516-1.409c-.678-.884-1.959-.8-3.013-.575a9.04,9.04,0,0,1-4.714-.151" transform="translate(-100.873 -45.716)" fill="#a55c37"/>
              <path id="Path_875930" data-name="Path 875930" d="M411.967,187.579a.793.793,0,0,1-.568.779,2.316,2.316,0,0,1-1.033.037c-.394-.045-.873-.159-.977-.542a.681.681,0,0,1,.352-.717,1.891,1.891,0,0,1,.825-.2,2.149,2.149,0,0,1,.848.051.778.778,0,0,1,.552.592" transform="translate(-102.501 -46.801)" fill="#1c2684"/>
              <path id="Path_875931" data-name="Path 875931" d="M405.577,187.862c-.253.984-2.475.62-1.995-.484.286-.657,1.937-.619,2.013.206a.814.814,0,0,1-.019.278" transform="translate(-101.034 -46.802)" fill="#1c2684"/>
              <path id="Path_875932" data-name="Path 875932" d="M410.984,191.678a.64.64,0,0,1-1.1-.4.64.64,0,1,1,1.1.4" transform="translate(-102.628 -47.723)" fill="#0c1756"/>
              <path id="Path_875933" data-name="Path 875933" d="M405.717,191.99a.64.64,0,0,1-1.1-.4.64.64,0,1,1,1.1.4" transform="translate(-101.31 -47.801)" fill="#0c1756"/>
              <path id="Path_875934" data-name="Path 875934" d="M417.887,191.534a2.619,2.619,0,0,1,.048-1.3.9.9,0,0,1,1.034-.6.865.865,0,0,1,.288,1.3,1.786,1.786,0,0,1-1.37.6" transform="translate(-104.618 -47.473)" fill="#8e492b"/>
              <path id="Path_875935" data-name="Path 875935" d="M401.262,180.986a5.2,5.2,0,0,1,.669-3.226c.725-1.16,1.558-1.246,2.8-1.232l4.832.055a7.1,7.1,0,0,1,4.361,1.012,6.174,6.174,0,0,1,1.989,4.116,13.465,13.465,0,0,1-.065,4.073,1.6,1.6,0,0,0-.769-.808,1.3,1.3,0,0,0-1.73.759,14.76,14.76,0,0,0-.657,2.061l-1.124-.3q-.22-2.165-.639-4.3a3.342,3.342,0,0,0-.516-1.409c-.679-.884-1.96-.8-3.014-.575-.4.085-4.729,1.388-4.666.373-.1,1.572.1,2.355,0,3.927a20.346,20.346,0,0,1-.98-2.486,8.556,8.556,0,0,1-.49-2.044" transform="translate(-100.462 -44.199)" fill="#1c2684"/>
              <path id="Path_875936" data-name="Path 875936" d="M386.652,377a36.485,36.485,0,0,0,.989,5.594c.483,1.073,3.54,1.4,5.91.433a55.01,55.01,0,0,0,.072-6.837Z" transform="translate(-96.812 -94.191)" fill="#a55c37"/>
              <path id="Path_875937" data-name="Path 875937" d="M417.211,376.79l1.254,7.1a13.774,13.774,0,0,0,5.577-.652,59.34,59.34,0,0,0,.139-7.259Z" transform="translate(-104.463 -94.139)" fill="#a55c37"/>
              <path id="Path_875938" data-name="Path 875938" d="M391.323,262.564s-14.425,30.473-16.349,36.78,1.726,38.779,4.883,49.375c0,0,4.131,2.163,12.662.3,0,0,.792-35.188-1.492-45.54,0,0,11.842-13.506,13.316-22.347l2.2-16.336Z" transform="translate(-93.754 -65.742)" fill="#0c1756"/>
              <path id="Path_875939" data-name="Path 875939" d="M408.351,264.074s-2.6,16.445-1.227,20.72c0,0,1.555,18.5,2.261,21.749s1.135,37.144,1.447,41.417c0,0,2.225,3.881,12.091,1.094,0,0,5.858-44.1,6-56.576.052-4.734,1.468-9.567,1.608-13.484a44.042,44.042,0,0,0-1.468-13.219s-17.818-1.067-20.707-1.7" transform="translate(-101.837 -66.12)" fill="#0c1756"/>
              <path id="Path_875940" data-name="Path 875940" d="M382.5,384.087s3.622,1.7,5.985-.311c1.59-1.355,1.621,4.418,1.457,6.462a.977.977,0,0,1-.834.888,39.492,39.492,0,0,1-7.241.523s-7.235-.125-10.929-.125c-5.474,0-4.8-1.1-4.8-1.1s.364-3.2,5.67-4.118c.451-.078.935-.137,1.454-.175a6.8,6.8,0,0,0,3.7-1.435,20.989,20.989,0,0,1,3.615-2.447c1.459-.574,1.921,1.839,1.921,1.839" transform="translate(-91.668 -95.687)" fill="#0c1756"/>
              <path id="Path_875941" data-name="Path 875941" d="M370.716,387.971s1.567,1.547,1.222,5.011c0,0-5.727.449-6.228-1.1,0,0,.761-3.138,5.006-3.907" transform="translate(-91.568 -97.142)" fill="#83a0f0"/>
              <path id="Path_875942" data-name="Path 875942" d="M365.622,393.122s.481,1.439,9.9.939,12.564.211,14.229-1.125c0,0,.408,1.341,0,1.773s-9.851.766-12.688.858-10.456.51-11.441-.858a1.352,1.352,0,0,1,0-1.587" transform="translate(-91.48 -98.385)" fill="#83a0f0"/>
              <path id="Path_875943" data-name="Path 875943" d="M378.51,386.649a5.481,5.481,0,0,1,1.79,1.218.311.311,0,0,0,.233.135c.151.01.373-.052.238-.449-.216-.639-1.538-1.25-1.538-1.25s-.6.038-.723.346" transform="translate(-94.773 -96.724)" fill="#83a0f0"/>
              <path id="Path_875944" data-name="Path 875944" d="M380.588,385.436a4.968,4.968,0,0,1,1.739,1.226.336.336,0,0,0,.256.148c.166.011.409-.058.262-.493-.238-.7-1.693-1.376-1.693-1.376a1.064,1.064,0,0,0-.565.494" transform="translate(-95.293 -96.384)" fill="#83a0f0"/>
              <path id="Path_875945" data-name="Path 875945" d="M382.377,384.1a4.907,4.907,0,0,1,1.715,1.209.332.332,0,0,0,.253.146c.163.011.4-.056.258-.486-.234-.693-1.668-1.357-1.668-1.357a1.051,1.051,0,0,0-.558.487" transform="translate(-95.741 -96.052)" fill="#83a0f0"/>
              <path id="Path_875946" data-name="Path 875946" d="M390.133,392.717l-.155-.052a5.95,5.95,0,0,1,2.3-3.082,5.564,5.564,0,0,1,3.621-.816.274.274,0,0,1,.222.157.133.133,0,0,1-.039.141l-.11-.121a.034.034,0,0,0-.006.032.14.14,0,0,0-.086-.046,5.4,5.4,0,0,0-3.514.792,5.777,5.777,0,0,0-2.228,3" transform="translate(-97.645 -97.331)" fill="#83a0f0"/>
              <path id="Path_875947" data-name="Path 875947" d="M384.86,231.592s-1.263,7.829-1.659,9.642c0,0-15.429-.58-20.58,2.109,0,0-.388,3.543,1.309,4.142s17.672,2.893,24.449,1.664c0,0,5.681-9.539,5.3-13.379,0,0,.923-4.935-8.818-4.177" transform="translate(-90.785 -57.967)" fill="#a55c37"/>
              <path id="Path_875948" data-name="Path 875948" d="M396.211,208.164s-6.223,5.025-5.058,17.078a9.106,9.106,0,0,0,5.888,1.567s3.04-10.582-.83-18.646" transform="translate(-97.902 -52.121)" fill="#f9cf70"/>
              <path id="Path_875949" data-name="Path 875949" d="M403.6,202.292s5.558,3.676,11.082-2.953a17.7,17.7,0,0,0,2.458,1.113s8.325,2.465,10.548,4.875a44.626,44.626,0,0,1,1.79,13.156c-.265,6.569-.756,27.706-2.187,33.053,0,0-1.9,2.675-9.321,2.648-5.031-.018-12.6-1.279-23.838-5.461,0,0,3.585-12.278,4.537-18.749,0,0-1.959-7.708-1-12.774,0,0-2.211-8.073-.681-11.246a39.6,39.6,0,0,0,4.537-2.315c1.4-.945,2.073-1.347,2.073-1.347" transform="translate(-98.685 -49.911)" fill="#f9cf70"/>
              <path id="Path_875950" data-name="Path 875950" d="M425.893,231.319s2.6,4.7,4.305,6c0,0-7.725.241-19.968,5.361a5.623,5.623,0,0,1-3.638.129,9.4,9.4,0,0,0-4.1-.334l-1.765.364a.359.359,0,0,0-.132.648,4.4,4.4,0,0,0,2.3.789c1.78.071,2.081.207,1.978.51s-3.069.615-4.118.695-3.556-1.252-4.365-1.284a1.707,1.707,0,0,0-1.259.442s4.086,2.377,5.438,2.4,5,.849,8.312-.4c0,0,6.969,2,16.891.139s12.952-4.917,14.159-5.89c0,0-3.708-14.01-5.639-15.763,0,0-7.381,6.068-8.4,6.2" transform="translate(-98.935 -56.367)" fill="#a55c37"/>
              <path id="Path_875951" data-name="Path 875951" d="M434.631,205.339s-4.675,5.566-4.57,10.309c.13,5.909,5.032,11.9,5.032,11.9a54.128,54.128,0,0,0,9.258-5.423s-3.456-14.238-9.72-16.789" transform="translate(-107.68 -51.414)" fill="#f9cf70"/>
              <path id="Path_875952" data-name="Path 875952" d="M392.407,251.973s5.729,4.33,10.426,3.781a29.05,29.05,0,0,0,8.561-2.473l-2.269-1.045s-5.962,1.442-7.6,1.38-7.076-2.464-7.076-2.464-1.675-.147-2.042.821" transform="translate(-98.253 -62.883)" fill="#a55c37"/>
              <path id="Path_875953" data-name="Path 875953" d="M418.241,383.388s.365-1.451,1.567-1.718c2.258-.5,3.307.167,4.01,1.728,0,0,.022.142.223.05a.4.4,0,0,1,.545.222,9.612,9.612,0,0,1,.475,2.7c.1,2.119.283,3.491.283,3.491s-7.508.295-8.358,0c-.62-.215.005-4.241.373-5.843.136-.59.729-.322.883-.633" transform="translate(-104.341 -95.523)" fill="#0c1756"/>
              <path id="Path_875954" data-name="Path 875954" d="M416.488,392.334a3.7,3.7,0,0,1,3.015-3.764c3.141-.6,5.5.273,6.041,3.764,0,0-5.039,2.99-9.056,0" transform="translate(-104.282 -97.248)" fill="#83a0f0"/>
              <path id="Path_875955" data-name="Path 875955" d="M416.421,393.65s-.48,1.744.05,2.143c1.124.847,7.193,1.366,9.006-.51.364-1.312,0-1.633,0-1.633s-5.563,2.143-9.056,0" transform="translate(-104.216 -98.564)" fill="#83a0f0"/>
              <path id="Path_875956" data-name="Path 875956" d="M419.225,384.564a5.555,5.555,0,0,1,4.015-.255c1.4.6.551,1.094.551,1.094a5.342,5.342,0,0,0-4.962.184s-.349-.547.4-1.023" transform="translate(-104.848 -96.152)" fill="#83a0f0"/>
              <path id="Path_875957" data-name="Path 875957" d="M419.225,386.452a5.555,5.555,0,0,1,4.015-.255c1.4.6.551,1.094.551,1.094a5.342,5.342,0,0,0-4.962.184s-.349-.547.4-1.023" transform="translate(-104.848 -96.625)" fill="#83a0f0"/>
              <g id="Group_1101771" data-name="Group 1101771" transform="translate(291.452 200.287)" opacity="0.7">
                <g id="Group_1101770" data-name="Group 1101770">
                  <g id="Group_1101769" data-name="Group 1101769" clip-path="url(#clip-path-17)">
                    <path id="Path_875958" data-name="Path 875958" d="M407.251,287.341a8.686,8.686,0,0,1-1.8-2.844,7.5,7.5,0,0,1-.266-2.163,26.521,26.521,0,0,1,1.828-9.9c.057-.145.115-.289.174-.434a10.552,10.552,0,0,0,.707-2.2l.193.032a10.7,10.7,0,0,1-.718,2.239q-.088.216-.173.432a26.315,26.315,0,0,0-1.814,9.828,7.329,7.329,0,0,0,.257,2.106,8.543,8.543,0,0,0,1.765,2.777Z" transform="translate(-392.903 -267.841)" fill="#83a0f0"/>
                    <path id="Path_875959" data-name="Path 875959" d="M407.919,293.9c-1.424-4.207,3.855-22.139,4.081-22.9l.188.055c-.055.186-5.487,18.633-4.083,22.782Z" transform="translate(-393.528 -268.14)" fill="#83a0f0"/>
                    <path id="Path_875960" data-name="Path 875960" d="M433,282.9c-7.431-3.594-5.392-10.369-5.371-10.437l.187.059a8.589,8.589,0,0,0-.125,3.771c.362,1.918,1.592,4.591,5.394,6.43Z" transform="translate(-398.455 -268.508)" fill="#83a0f0"/>
                    <path id="Path_875961" data-name="Path 875961" d="M391.039,273.337l-.062-.186c2.791-.937,6.594-5.914,6.633-5.965l.157.119c-.157.207-3.879,5.076-6.727,6.031" transform="translate(-389.347 -267.186)" fill="#83a0f0"/>
                    <path id="Path_875962" data-name="Path 875962" d="M391.882,357.32l-.195-.022c.7-6.214-2.5-44.53-2.877-47.295-.391-2.833,13.745-16.407,14.347-16.983l.136.142c-.147.14-14.665,14.079-14.288,16.814.382,2.767,3.583,41.119,2.877,47.343" transform="translate(-388.802 -273.654)" fill="#83a0f0"/>
                    <path id="Path_875963" data-name="Path 875963" d="M426.689,351.241l-.2-.018c.041-.458,4.174-45.864,5.1-53.468s1.63-26.136,1.637-26.322l.2.007c-.007.187-.708,18.733-1.639,26.339s-5.063,53-5.1,53.462" transform="translate(-398.239 -268.249)" fill="#83a0f0"/>
                  </g>
                </g>
              </g>
              <path id="Path_875964" data-name="Path 875964" d="M388.8,376.962a35.585,35.585,0,0,1-7.586-.93l.04-.159c.083.021,8.348,2.071,12.954,0l.067.15a13.768,13.768,0,0,1-5.476.935" transform="translate(-95.45 -94.113)" fill="#83a0f0"/>
              <path id="Path_875965" data-name="Path 875965" d="M418.509,376.094a9.684,9.684,0,0,1-6.49-2.274l.115-.115c.045.044,4.529,4.385,12.256.824l.069.149a14.163,14.163,0,0,1-5.95,1.417" transform="translate(-103.163 -93.57)" fill="#83a0f0"/>
              <path id="Path_875966" data-name="Path 875966" d="M431.056,207.34s-6.295,9.139,2.077,18.372c0,0-6.457-7.355-2.077-18.372" transform="translate(-107.361 -51.915)" fill="#e5b961"/>
              <path id="Path_875967" data-name="Path 875967" d="M397.55,209.418s-2.846,11.211.868,17.706c0,0-1.849-6.145-.868-17.706" transform="translate(-99.279 -52.435)" fill="#e5b961"/>
              <path id="Path_875968" data-name="Path 875968" d="M350.812,252.5h33.355v-2.419H349.481v1.088a1.331,1.331,0,0,0,1.331,1.331" transform="translate(-87.505 -62.616)" fill="#1c2684"/>
              <path id="Path_875969" data-name="Path 875969" d="M393.509,252.5h16.942a1.331,1.331,0,0,0,1.331-1.331v-1.088H391.8v.707a1.713,1.713,0,0,0,1.712,1.712" transform="translate(-98.1 -62.616)" fill="#1c2684"/>
              <path id="Path_875970" data-name="Path 875970" d="M374.685,219.451H344.793a1.037,1.037,0,0,0-.853,1.315l4.176,21.644h31.691l-4.27-22.135a.933.933,0,0,0-.853-.825" transform="translate(-86.111 -54.947)" fill="#1c2684"/>
              <path id="Path_875971" data-name="Path 875971" d="M363.926,234.579a2.354,2.354,0,1,0,2.354-2.354,2.354,2.354,0,0,0-2.354,2.354" transform="translate(-91.121 -58.146)" fill="#f9cf70"/>
              <path id="Path_875972" data-name="Path 875972" d="M350.391,248.6c.516.083,1.591.109,1.62-.745.024-.713-.714-1.2-1.594-1.462.388-.052,1.208-.049,1.367-.676.237-.937-.81-1.22-1.834-1.434.406-.043,1.263-.193,1.348-.769.2-1.365-4.5-1.114-4.5-1.114-.765,0-1.092.985-.848,1.633a1.512,1.512,0,0,0,0,1.781c-.563.57-.449,1.912-.032,2.106a1.12,1.12,0,0,0-.337,1c-.005,1,1.647,1.07,1.647,1.07s3.134.639,4.2.322c.736-.218.5-1.594-1.037-1.717" transform="translate(-86.525 -60.688)" fill="#a55c37"/>
              <path id="Path_875973" data-name="Path 875973" d="M408.295,194.175a.138.138,0,0,0,.067-.259,1.962,1.962,0,0,0-.684-.153c-.26-.029-.615-.07-.675-.183-.07-.131.046-.294.217-.51.028-.034.055-.069.08-.1.585-.773.177-2.062-.121-3-.046-.146-.089-.283-.124-.406a.139.139,0,0,0-.266.077c.036.125.08.264.127.412.28.884.663,2.094.165,2.754l-.076.1c-.18.226-.4.509-.246.81.127.243.5.285.888.329a1.861,1.861,0,0,1,.579.118.141.141,0,0,0,.069.018" transform="translate(-101.832 -47.437)" fill="#0c1756"/>
              <path id="Path_875974" data-name="Path 875974" d="M411.594,196.042a7.111,7.111,0,0,1-4.4.806,2.879,2.879,0,0,1,.531.787,2.615,2.615,0,0,0,.586.948,1.219,1.219,0,0,0,1.073.155,2.363,2.363,0,0,0,.934-.589,4.955,4.955,0,0,0,1.273-2.107" transform="translate(-101.956 -49.086)" fill="#e9f2ff"/>
              <path id="Path_875975" data-name="Path 875975" d="M411.594,196.042a4.354,4.354,0,0,1-.161.449,6.524,6.524,0,0,1-2.8,1.064,4.969,4.969,0,0,1-.927.04,2.755,2.755,0,0,0-.51-.747,7.111,7.111,0,0,0,4.4-.806" transform="translate(-101.956 -49.086)" fill="#e7e6e8"/>
              <path id="Path_875976" data-name="Path 875976" d="M252.191,149.006c-43.755-.873-66.182-20.092-66.187-20.1s-22.426,19.222-66.187,20.1c-.193,22.025.957,44.979,6.5,66.332,8.576,33.058,32.1,45.9,59.691,55.412,27.589-9.513,51.116-22.354,59.691-55.412,5.54-21.353,6.69-44.307,6.5-66.332" transform="translate(-29.995 -32.277)" fill="#fff"/>
              <path id="Path_875977" data-name="Path 875977" d="M249.659,153.288c-41.243-.824-62.381-18.939-62.384-18.942s-21.138,18.118-62.384,18.942c-.183,20.76.9,42.394,6.122,62.52,8.083,31.159,30.258,43.261,56.262,52.228,26-8.967,48.178-21.069,56.261-52.228,5.221-20.126,6.305-41.76,6.123-62.52" transform="translate(-31.266 -33.638)" fill="#f9cf70"/>
              <path id="Path_875978" data-name="Path 875978" d="M265,159.489c-37.6-.751-56.874-17.267-56.877-17.27V264.107c23.708-8.175,43.925-19.21,51.295-47.618,4.76-18.349,5.749-38.074,5.582-57" transform="translate(-52.11 -35.609)" fill="#e5b961"/>
              <g id="Group_1101774" data-name="Group 1101774" transform="translate(172.503 170.332)" opacity="0.1">
                <g id="Group_1101773" data-name="Group 1101773">
                  <g id="Group_1101772" data-name="Group 1101772" clip-path="url(#clip-path-18)">
                    <path id="Path_875979" data-name="Path 875979" d="M311.194,247.012H240.015a9.892,9.892,0,1,1,0-19.785h71.179a9.892,9.892,0,1,1,0,19.785" transform="translate(-230.122 -227.226)"/>
                  </g>
                </g>
              </g>
            </g>
          </g>
          <g id="Group_1101778" data-name="Group 1101778" transform="translate(169.952 167.782)">
            <g id="Group_1101777" data-name="Group 1101777" clip-path="url(#clip-path-19)">
              <rect id="Rectangle_404087" data-name="Rectangle 404087" width="90.964" height="19.784" fill="url(#linear-gradient-2)"/>
            </g>
          </g>
          <g id="Group_1101780" data-name="Group 1101780">
            <g id="Group_1101779" data-name="Group 1101779" clip-path="url(#clip-path-2)">
              <path id="Path_875981" data-name="Path 875981" d="M261.893,231.834l-2.534,2.977.025.071,3.727-.75V236.5l-3.752-.657-.023.07,2.556,2.884-2.087,1.219-1.337-3.634-.047.023-1.36,3.611-2.018-1.219,2.51-2.93v-.048l-3.683.681v-2.368l3.636.726.022-.047-2.486-2.955,2.088-1.195,1.312,3.588h.048l1.337-3.588Z" transform="translate(-63.566 -57.754)" fill="#f9cf70"/>
              <path id="Path_875982" data-name="Path 875982" d="M276.1,231.834l-2.534,2.977.025.071,3.727-.75V236.5l-3.752-.657-.022.07L276.1,238.8l-2.087,1.219-1.337-3.634-.047.023-1.36,3.611-2.016-1.219,2.508-2.93v-.048l-3.683.681v-2.368l3.635.726.023-.047-2.483-2.955,2.086-1.195,1.312,3.588h.048l1.337-3.588Z" transform="translate(-67.124 -57.754)" fill="#f9cf70"/>
              <path id="Path_875983" data-name="Path 875983" d="M290.31,231.834l-2.534,2.977.025.071,3.727-.75V236.5l-3.752-.657-.023.07,2.556,2.884-2.087,1.219-1.337-3.634-.048.023-1.359,3.611-2.016-1.219,2.508-2.93v-.048l-3.683.681v-2.368l3.635.726.023-.047-2.483-2.955,2.086-1.195,1.312,3.588h.048l1.337-3.588Z" transform="translate(-70.681 -57.754)" fill="#f9cf70"/>
              <path id="Path_875984" data-name="Path 875984" d="M304.52,231.834l-2.534,2.977.025.071,3.727-.75V236.5l-3.752-.657-.022.07,2.556,2.884-2.087,1.219-1.337-3.634-.047.023-1.36,3.611-2.018-1.219,2.51-2.93v-.048l-3.683.681v-2.368l3.635.726.023-.047-2.486-2.955,2.088-1.195,1.312,3.588h.048l1.337-3.588Z" transform="translate(-74.239 -57.754)" fill="#f9cf70"/>
              <path id="Path_875985" data-name="Path 875985" d="M318.73,231.834l-2.534,2.977.025.071,3.727-.75V236.5l-3.752-.657-.022.07,2.556,2.884-2.087,1.219-1.337-3.634-.047.023-1.36,3.611-2.016-1.219,2.509-2.93v-.048l-3.683.681v-2.368l3.636.726.022-.047-2.484-2.955,2.087-1.195,1.312,3.588h.048l1.337-3.588Z" transform="translate(-77.797 -57.754)" fill="#f9cf70"/>
              <path id="Path_875986" data-name="Path 875986" d="M332.937,231.834l-2.534,2.977.025.071,3.727-.75V236.5l-3.752-.657-.023.07,2.557,2.884-2.087,1.219-1.337-3.634-.047.023-1.36,3.611L326.09,238.8l2.509-2.93v-.048l-3.683.681v-2.368l3.635.726.023-.047-2.484-2.955,2.087-1.195,1.312,3.588h.047l1.337-3.588Z" transform="translate(-81.354 -57.754)" fill="#f9cf70"/>
              <path id="Path_875987" data-name="Path 875987" d="M206.2,245.062h-2.1a5.693,5.693,0,0,1-5.693-5.693V223.91a5.693,5.693,0,0,1,5.693-5.693h2.1a5.693,5.693,0,0,1,5.693,5.693v15.46a5.693,5.693,0,0,1-5.693,5.693" transform="translate(-49.679 -54.638)" fill="#83a0f0"/>
              <path id="Path_875988" data-name="Path 875988" d="M186.728,210.744V197.135a13.942,13.942,0,0,1,27.883,0v13.609h6.866V197.135a20.809,20.809,0,0,0-41.619,0v13.609Z" transform="translate(-45.034 -44.149)" fill="#fff"/>
              <path id="Path_875989" data-name="Path 875989" d="M234.833,210.262H207.439v7.327a4.919,4.919,0,0,1,1.69,9.527l2.343,11.4a.957.957,0,0,1-.816,1.213h-3.217v8.007h27.394a1.254,1.254,0,0,0,1.254-1.254v-34.97a1.254,1.254,0,0,0-1.254-1.254" transform="translate(-51.94 -52.646)" fill="#0c1756"/>
              <path id="Path_875990" data-name="Path 875990" d="M197.809,239.733h-3.248a.957.957,0,0,1-.813-1.213l2.333-11.4a4.93,4.93,0,0,1,.8-9.462,5.06,5.06,0,0,1,.972-.067v-7.327H170.405a1.254,1.254,0,0,0-1.254,1.254v34.97a1.254,1.254,0,0,0,1.254,1.254h27.447v-8.007Z" transform="translate(-42.353 -52.646)" fill="#1c2684"/>
              <path id="Path_875991" data-name="Path 875991" d="M178.535,220.569v-.007H134.048a15.242,15.242,0,0,0-30.167,3.092c0,.1.006.208.008.311h6.1c0-.1-.016-.205-.016-.311a9.145,9.145,0,0,1,18.29,0c0,.106-.013.208-.016.311h53.371c.005-.076.022-.149.022-.227a3.172,3.172,0,0,0-3.11-3.169" transform="translate(-26.01 -52.183)" fill="#5e60f4"/>
              <path id="Path_875992" data-name="Path 875992" d="M178.538,229.16H128.255a9.134,9.134,0,0,1-18.258,0h-6.1a15.238,15.238,0,0,0,30.119,2.955h32.211v7.016a2.164,2.164,0,1,0,4.328-.008v-7.007h1.737v2.741a2.235,2.235,0,0,0,2.235,2.235A2.094,2.094,0,0,0,176.616,235v-2.884h1.922V232.1a3.164,3.164,0,0,0,3.088-2.942Z" transform="translate(-26.013 -57.378)" fill="#5258db"/>
              <path id="Path_875993" data-name="Path 875993" d="M106.35,123.271h-62.6a2.582,2.582,0,0,1-2.31-3.737l31.3-62.6a2.583,2.583,0,0,1,4.62,0l31.3,62.6a2.582,2.582,0,0,1-2.31,3.737" transform="translate(-10.306 -13.897)" fill="#0c1756"/>
              <line id="Line_3257" data-name="Line 3257" y1="18.462" transform="translate(64.742 69.103)" fill="none" stroke="#fff" stroke-linecap="round" stroke-linejoin="round" stroke-width="10"/>
              <path id="Path_875994" data-name="Path 875994" d="M88.158,128.043a2.688,2.688,0,1,1-2.689-2.689,2.689,2.689,0,0,1,2.689,2.689" transform="translate(-20.727 -31.387)" fill="#fff"/>
              <path id="Path_875995" data-name="Path 875995" d="M352.118,83.066H287.842a4.209,4.209,0,0,1-4.209-4.209V68.077a4.209,4.209,0,0,1,4.209-4.209h64.276a4.209,4.209,0,0,1,4.209,4.209V78.857a4.209,4.209,0,0,1-4.209,4.209" transform="translate(-71.017 -15.992)" fill="#f9cf70"/>
              <path id="Path_875996" data-name="Path 875996" d="M370.608,63.876A8.048,8.048,0,1,0,366,75.733l4.988,8.3a2.006,2.006,0,1,0,3.438-2.066l-4.988-8.3a8.05,8.05,0,0,0,1.166-9.792m-5.132,8.207a4.431,4.431,0,1,1,1.705-6.817,4.438,4.438,0,0,1-1.705,6.817" transform="translate(-89.052 -15.016)" fill="#0b315e"/>
              <path id="Path_875997" data-name="Path 875997" d="M285.278,69.444a8.373,8.373,0,1,1,8.373-8.374,8.383,8.383,0,0,1-8.373,8.374m0-16.131a7.757,7.757,0,1,0,7.757,7.757,7.766,7.766,0,0,0-7.757-7.757" transform="translate(-69.333 -13.195)" fill="#0b315e"/>
              <path id="Path_875998" data-name="Path 875998" d="M286.621,69.444c-2.442,0-4.354-3.678-4.354-8.374s1.912-8.372,4.354-8.372,4.353,3.678,4.353,8.372-1.912,8.374-4.353,8.374m0-16.131c-2.027,0-3.738,3.552-3.738,7.757s1.711,7.758,3.738,7.758,3.738-3.552,3.738-7.758-1.711-7.757-3.738-7.757" transform="translate(-70.675 -13.195)" fill="#0b315e"/>
              <rect id="Rectangle_404088" data-name="Rectangle 404088" width="16.131" height="0.615" transform="translate(207.88 47.568)" fill="#0b315e"/>
              <path id="Path_875999" data-name="Path 875999" d="M285.761,58.881c-4.161,0-7.184-.287-7.229-.292l.06-.612a85.9,85.9,0,0,0,14.031,0l.055.613c-2.436.218-4.822.291-6.917.291" transform="translate(-69.74 -14.517)" fill="#0b315e"/>
              <path id="Path_876000" data-name="Path 876000" d="M292.623,69.234a86,86,0,0,0-14.031,0l-.058-.613a86.8,86.8,0,0,1,14.145,0Z" transform="translate(-69.74 -17.109)" fill="#0b315e"/>
              <path id="Path_876001" data-name="Path 876001" d="M317.778,73.356,315.8,79.389h-1.5L312.977,75.3l-1.37,4.085h-1.491l-1.983-6.033h1.448l1.362,4.241,1.421-4.241h1.294l1.379,4.275,1.4-4.275Z" transform="translate(-77.152 -18.367)" fill="#0b315e"/>
              <path id="Path_876002" data-name="Path 876002" d="M331.15,73.356l-1.974,6.033h-1.5L326.349,75.3l-1.37,4.085h-1.491l-1.983-6.033h1.448l1.362,4.241,1.421-4.241h1.294l1.379,4.275,1.4-4.275Z" transform="translate(-80.5 -18.367)" fill="#0b315e"/>
              <path id="Path_876003" data-name="Path 876003" d="M344.522,73.356l-1.974,6.033h-1.5L339.721,75.3l-1.37,4.085H336.86l-1.983-6.033h1.448l1.362,4.241,1.421-4.241H340.4l1.379,4.275,1.4-4.275Z" transform="translate(-83.848 -18.367)" fill="#0b315e"/>
            </g>
          </g>
        </g>
      </g>
    </g>
    <g id="Group_1101836" data-name="Group 1101836" transform="translate(4022.623 11318.198)">
      <path id="Path_876340" data-name="Path 876340" d="M305.488,162.986v-3.637h-3.425a12.643,12.643,0,0,0-2.4-5.786l2.422-2.423-2.569-2.573-2.423,2.426a12.606,12.606,0,0,0-5.78-2.4v-3.428h-3.632V148.6a12.607,12.607,0,0,0-5.779,2.4l-2.423-2.426-2.57,2.573,2.422,2.424a12.664,12.664,0,0,0-2.394,5.785h-3.423v3.637h3.423a12.664,12.664,0,0,0,2.394,5.785l-2.422,2.425,2.57,2.571,2.423-2.424a12.62,12.62,0,0,0,5.779,2.4v3.429h3.632v-3.429a12.593,12.593,0,0,0,5.78-2.4l2.423,2.424,2.569-2.571-2.422-2.425a12.635,12.635,0,0,0,2.4-5.785ZM289.5,170.52a9.353,9.353,0,1,1,9.345-9.355,9.35,9.35,0,0,1-9.345,9.355" transform="translate(-3131.825 -6426.012)" fill="#44789d"/>
      <path id="Path_876341" data-name="Path 876341" d="M290.054,164.478a2.758,2.758,0,1,1,2.757-2.758,2.757,2.757,0,0,1-2.757,2.758" transform="translate(-3132.377 -6426.565)" fill="#44789d"/>
      <path id="Path_876342" data-name="Path 876342" d="M257.761,17.82V14.182h-3.425A12.652,12.652,0,0,0,251.942,8.4l2.421-2.424L251.8,3.4l-2.424,2.426a12.6,12.6,0,0,0-5.779-2.4V0h-3.633V3.429a12.6,12.6,0,0,0-5.778,2.4L231.758,3.4l-2.571,2.572L231.609,8.4a12.674,12.674,0,0,0-2.393,5.785h-3.424V17.82h3.424a12.674,12.674,0,0,0,2.393,5.785l-2.422,2.425,2.571,2.571,2.423-2.424a12.617,12.617,0,0,0,5.778,2.4V32h3.633V28.572a12.585,12.585,0,0,0,5.779-2.4L251.8,28.6l2.568-2.571L251.942,23.6a12.644,12.644,0,0,0,2.394-5.785Zm-15.985,7.535A9.353,9.353,0,1,1,251.12,16a9.35,9.35,0,0,1-9.344,9.355" transform="translate(-3129.914 -6420.199)" fill="#83a0f0"/>
      <path id="Path_876343" data-name="Path 876343" d="M242.328,19.311a2.758,2.758,0,1,1,2.756-2.758,2.756,2.756,0,0,1-2.756,2.758" transform="translate(-3130.466 -6420.751)" fill="#83a0f0"/>
      <path id="Path_876345" data-name="Path 876345" d="M300.09,84.668l-8.654.08a4.109,4.109,0,0,0-4.069,4.151l.046,4.866a4.111,4.111,0,0,0,4.149,4.073l1.194-.01,3.162,3.1,3.1-3.162,1.2-.012a4.108,4.108,0,0,0,4.068-4.152l-.047-4.865a4.109,4.109,0,0,0-4.147-4.073m-8.479,7.618a.994.994,0,1,1,.983-1,.995.995,0,0,1-.983,1m4.108-.038a.994.994,0,1,1,.983-1,.992.992,0,0,1-.983,1m4.11-.037a.995.995,0,1,1,.983-1,1,1,0,0,1-.983,1" transform="translate(-3132.38 -6423.59)" fill="#83a0f0"/>
      <path id="Path_876346" data-name="Path 876346" d="M316.456,86.436l-10.715.1a5.09,5.09,0,0,0-5.04,5.14l.058,6.026a5.092,5.092,0,0,0,5.136,5.044l1.481-.012,3.914,3.843,3.84-3.916,1.481-.013a5.087,5.087,0,0,0,5.037-5.141l-.057-6.024a5.091,5.091,0,0,0-5.135-5.044m-10.5,9.433a1.231,1.231,0,1,1,1.216-1.241,1.231,1.231,0,0,1-1.216,1.241m5.086-.048a1.23,1.23,0,1,1,1.218-1.241,1.228,1.228,0,0,1-1.218,1.241m5.089-.046a1.231,1.231,0,1,1,1.217-1.242,1.229,1.229,0,0,1-1.217,1.242" transform="translate(-3132.914 -6423.661)" fill="#44789d"/>
      <rect id="Rectangle_404356" data-name="Rectangle 404356" width="29.021" height="19.645" transform="translate(-2845.014 -6384.049)" fill="#44789d"/>
      <path id="Path_876347" data-name="Path 876347" d="M301.878,51.469,287.366,37.657h29.021Z" transform="translate(-3132.38 -6421.707)" fill="#0c1756"/>
      <path id="Path_876348" data-name="Path 876348" d="M292.859,37.241a5.73,5.73,0,1,1-5.731-5.735,5.733,5.733,0,0,1,5.731,5.735" transform="translate(-3132.141 -6421.461)" fill="#f04b4a"/>
      <path id="Path_876349" data-name="Path 876349" d="M289.679,38.513l-1.144-1.145,1.144-1.143a.907.907,0,1,0-1.283-1.283l-1.142,1.144-1.143-1.144a.908.908,0,0,0-1.283,1.284l1.144,1.142-1.144,1.145A.907.907,0,0,0,286.11,39.8l1.143-1.143L288.4,39.8a.907.907,0,1,0,1.283-1.283" transform="translate(-3132.268 -6421.588)" fill="#fff"/>
      <path id="Path_876350" data-name="Path 876350" d="M419.8,35.175c-.8-4.115-5.015-2.216-5.311-2.137,0,0-.514-4.079-5.329-4.079a7.76,7.76,0,0,0-7.439,5.56H401.3a3.468,3.468,0,0,0-3.15,3.716,3.469,3.469,0,0,0,3.15,3.718h16.715a3.471,3.471,0,0,0,3.152-3.718,3.931,3.931,0,0,0-1.37-3.06" transform="translate(-3136.816 -6421.359)" fill="#83a0f0"/>
      <line id="Line_3270" data-name="Line 3270" x2="5.821" transform="translate(-2734.986 -6386.918)" fill="#83a0f0"/>
      <path id="Path_876351" data-name="Path 876351" d="M33.554,99.845c.528-2.729,3.325-1.471,3.521-1.418a3.285,3.285,0,0,1,3.535-2.7,5.147,5.147,0,0,1,4.931,3.686h.276a2.5,2.5,0,0,1,0,4.929H34.736a2.3,2.3,0,0,1-2.09-2.465,2.6,2.6,0,0,1,.908-2.028" transform="translate(-3122.18 -6424.032)" fill="#83a0f0"/>
      <line id="Line_3271" data-name="Line 3271" x1="3.858" transform="translate(-3080.571 -6324.674)" fill="#83a0f0"/>
      <path id="Path_876353" data-name="Path 876353" d="M28.849,113.885c-.553-2.861-3.485-1.54-3.692-1.485a3.442,3.442,0,0,0-3.7-2.836,5.4,5.4,0,0,0-5.17,3.865h-.289a2.618,2.618,0,0,0,0,5.166H27.611a2.41,2.41,0,0,0,2.189-2.582,2.725,2.725,0,0,0-.95-2.127" transform="translate(-3121.426 -6424.586)" fill="#44789d"/>
      <line id="Line_3273" data-name="Line 3273" x2="4.044" transform="translate(-3105.064 -6311.212)" fill="#44789d"/>
      <path id="Path_876355" data-name="Path 876355" d="M175.457,39.211h1.384V36.6h.026a6.21,6.21,0,0,1,11.968-1.786,3.836,3.836,0,0,1,4.734,4.393h.452a2.144,2.144,0,0,1,0,4.288H175.457a2.144,2.144,0,0,1,0-4.288" transform="translate(-3127.813 -6421.436)" fill="#83a0f0"/>
      <path id="Path_876356" data-name="Path 876356" d="M184.6,38.74h2.226a4.9,4.9,0,0,1,2.984-3.857" transform="translate(-3128.265 -6421.596)" fill="#83a0f0"/>
      <path id="Path_876357" data-name="Path 876357" d="M42.949,11.037H41.327V7.986H41.3A7.263,7.263,0,0,0,27.3,5.9a4.485,4.485,0,0,0-5.609,4.366,4.563,4.563,0,0,0,.071.773h-.529a2.508,2.508,0,0,0,0,5.016H42.949a2.508,2.508,0,0,0,0-5.016" transform="translate(-3121.623 -6420.251)" fill="#44789d"/>
      <path id="Path_876358" data-name="Path 876358" d="M33.111,10.485H30.505a5.725,5.725,0,0,0-3.489-4.512" transform="translate(-3121.955 -6420.438)" fill="#44789d"/>
      <path id="Path_876359" data-name="Path 876359" d="M427.576,41.939h-1.3V39.486h-.024a5.842,5.842,0,0,0-11.26-1.679,3.575,3.575,0,0,0-.889-.115,3.625,3.625,0,0,0-3.624,3.627,3.667,3.667,0,0,0,.057.621h-.425a2.018,2.018,0,0,0,0,4.036h17.47a2.018,2.018,0,0,0,0-4.036" transform="translate(-3137.214 -6421.565)" fill="#44789d"/>
      <path id="Path_876360" data-name="Path 876360" d="M419.662,41.5h-2.1a4.606,4.606,0,0,0-2.807-3.63" transform="translate(-3137.481 -6421.715)" fill="#44789d"/>
      <path id="Path_876371" data-name="Path 876371" d="M253.2,75.594a3.231,3.231,0,0,1-3.211,3.25H186.119a3.232,3.232,0,0,1-3.213-3.25v-3.9a3.231,3.231,0,0,1,3.213-3.249h63.872a3.231,3.231,0,0,1,3.211,3.249Z" transform="translate(-3128.197 -6422.94)" fill="#44789d"/>
      <path id="Path_876372" data-name="Path 876372" d="M188.365,72.6a1.467,1.467,0,1,1-1.467-1.468,1.467,1.467,0,0,1,1.467,1.468" transform="translate(-3128.298 -6423.047)" fill="#83a0f0"/>
      <path id="Path_876373" data-name="Path 876373" d="M193.075,72.6a1.467,1.467,0,1,1-1.469-1.468,1.467,1.467,0,0,1,1.469,1.468" transform="translate(-3128.487 -6423.047)" fill="#83a0f0"/>
      <path id="Path_876374" data-name="Path 876374" d="M197.785,72.6a1.467,1.467,0,1,1-1.468-1.468,1.467,1.467,0,0,1,1.468,1.468" transform="translate(-3128.675 -6423.047)" fill="#83a0f0"/>
      <rect id="Rectangle_404393" data-name="Rectangle 404393" width="70.311" height="7.407" transform="translate(-2945.291 -6301.458)" fill="#83a0f0"/>
      <rect id="Rectangle_404394" data-name="Rectangle 404394" width="70.311" height="45.547" transform="translate(-2945.291 -6347.005)" fill="#0c1756"/>
      <path id="Path_876375" data-name="Path 876375" d="M216.426,93.2,228.2,99.7l-11.773,6.493Z" transform="translate(-3129.54 -6423.932)" fill="#83a0f0"/>
      <path id="Path_876376" data-name="Path 876376" d="M220.473,114.406a15.064,15.064,0,1,1,15.064-15.065,15.081,15.081,0,0,1-15.064,15.065m0-28.276a13.213,13.213,0,1,0,13.213,13.212A13.227,13.227,0,0,0,220.473,86.13" transform="translate(-3129.098 -6423.574)" fill="#83a0f0"/>
      <rect id="Rectangle_404395" data-name="Rectangle 404395" width="62.794" height="1.547" transform="translate(-2940.996 -6298.438)" fill="#95cada"/>
      <rect id="Rectangle_404396" data-name="Rectangle 404396" width="69.774" height="78.804" transform="translate(-3065.154 -6413.051)" fill="#83a0f0"/>
      <rect id="Rectangle_404397" data-name="Rectangle 404397" width="61.757" height="26.839" transform="translate(-3061.146 -6408.812)" fill="#0c1756"/>
      <rect id="Rectangle_404398" data-name="Rectangle 404398" width="16.934" height="0.958" transform="translate(-3060.592 -6377.876)" fill="#fff"/>
      <rect id="Rectangle_404399" data-name="Rectangle 404399" width="16.934" height="0.96" transform="translate(-3060.592 -6375.411)" fill="#fff"/>
      <rect id="Rectangle_404400" data-name="Rectangle 404400" width="16.934" height="0.959" transform="translate(-3060.592 -6372.946)" fill="#fff"/>
      <rect id="Rectangle_404401" data-name="Rectangle 404401" width="16.934" height="0.961" transform="translate(-3060.592 -6370.481)" fill="#fff"/>
      <rect id="Rectangle_404402" data-name="Rectangle 404402" width="16.934" height="0.961" transform="translate(-3060.592 -6368.015)" fill="#fff"/>
      <rect id="Rectangle_404403" data-name="Rectangle 404403" width="16.934" height="0.958" transform="translate(-3038.735 -6377.876)" fill="#fff"/>
      <rect id="Rectangle_404404" data-name="Rectangle 404404" width="16.934" height="0.96" transform="translate(-3038.735 -6375.411)" fill="#fff"/>
      <rect id="Rectangle_404405" data-name="Rectangle 404405" width="16.934" height="0.959" transform="translate(-3038.735 -6372.946)" fill="#fff"/>
      <rect id="Rectangle_404406" data-name="Rectangle 404406" width="16.934" height="0.961" transform="translate(-3038.735 -6370.481)" fill="#fff"/>
      <rect id="Rectangle_404407" data-name="Rectangle 404407" width="16.934" height="0.961" transform="translate(-3038.735 -6368.015)" fill="#fff"/>
      <rect id="Rectangle_404408" data-name="Rectangle 404408" width="16.933" height="0.958" transform="translate(-3016.877 -6377.876)" fill="#fff"/>
      <rect id="Rectangle_404409" data-name="Rectangle 404409" width="16.933" height="0.96" transform="translate(-3016.877 -6375.411)" fill="#fff"/>
      <rect id="Rectangle_404410" data-name="Rectangle 404410" width="16.933" height="0.959" transform="translate(-3016.877 -6372.946)" fill="#fff"/>
      <rect id="Rectangle_404411" data-name="Rectangle 404411" width="16.933" height="0.961" transform="translate(-3016.877 -6370.481)" fill="#fff"/>
      <rect id="Rectangle_404412" data-name="Rectangle 404412" width="16.933" height="0.961" transform="translate(-3016.877 -6368.015)" fill="#fff"/>
      <rect id="Rectangle_404413" data-name="Rectangle 404413" width="43.244" height="0.958" transform="translate(-3042.553 -6361.551)" fill="#fff"/>
      <rect id="Rectangle_404414" data-name="Rectangle 404414" width="43.244" height="0.959" transform="translate(-3042.553 -6359.085)" fill="#fff"/>
      <rect id="Rectangle_404415" data-name="Rectangle 404415" width="43.244" height="0.959" transform="translate(-3042.553 -6356.621)" fill="#fff"/>
      <rect id="Rectangle_404416" data-name="Rectangle 404416" width="43.244" height="0.961" transform="translate(-3042.553 -6354.156)" fill="#fff"/>
      <rect id="Rectangle_404417" data-name="Rectangle 404417" width="43.244" height="0.961" transform="translate(-3042.553 -6351.69)" fill="#fff"/>
      <rect id="Rectangle_404418" data-name="Rectangle 404418" width="43.244" height="0.958" transform="translate(-3042.553 -6348.527)" fill="#fff"/>
      <rect id="Rectangle_404419" data-name="Rectangle 404419" width="43.244" height="0.959" transform="translate(-3042.553 -6346.062)" fill="#fff"/>
      <rect id="Rectangle_404420" data-name="Rectangle 404420" width="43.244" height="0.959" transform="translate(-3042.553 -6343.597)" fill="#fff"/>
      <rect id="Rectangle_404421" data-name="Rectangle 404421" width="43.244" height="0.961" transform="translate(-3042.553 -6341.132)" fill="#fff"/>
      <rect id="Rectangle_404422" data-name="Rectangle 404422" width="43.244" height="0.96" transform="translate(-3042.553 -6338.666)" fill="#fff"/>
      <rect id="Rectangle_404423" data-name="Rectangle 404423" width="16.557" height="23.844" transform="translate(-3061.532 -6361.551)" fill="#fff"/>
      <path id="Path_876377" data-name="Path 876377" d="M125.775,2.1H60.086a2.054,2.054,0,0,0-2.043,2.067V6.642a2.053,2.053,0,0,0,2.043,2.065h65.689a2.053,2.053,0,0,0,2.042-2.065V4.162A2.054,2.054,0,0,0,125.775,2.1" transform="translate(-3123.197 -6420.283)" fill="#44789d"/>
      <path id="Path_876378" data-name="Path 876378" d="M61.513,4.734a.933.933,0,1,1-.932-.932.933.933,0,0,1,.932.932" transform="translate(-3123.261 -6420.352)" fill="#83a0f0"/>
      <path id="Path_876379" data-name="Path 876379" d="M64.509,4.734a.934.934,0,1,1-.934-.932.934.934,0,0,1,.934.932" transform="translate(-3123.381 -6420.352)" fill="#83a0f0"/>
      <path id="Path_876380" data-name="Path 876380" d="M67.5,4.734A.933.933,0,1,1,66.57,3.8a.933.933,0,0,1,.932.932" transform="translate(-3123.501 -6420.352)" fill="#83a0f0"/>
      <rect id="Rectangle_404424" data-name="Rectangle 404424" width="69.774" height="2.066" transform="translate(-3065.154 -6413.642)" fill="#44789d"/>
      <path id="Path_876390" data-name="Path 876390" d="M224.822,198.784a4.627,4.627,0,1,1-4.626-4.626,4.626,4.626,0,0,1,4.626,4.626" transform="translate(-3129.505 -6427.974)" fill="#e5b961"/>
      <path id="Path_876391" data-name="Path 876391" d="M224.822,141.791a4.627,4.627,0,1,1-4.626-4.626,4.626,4.626,0,0,1,4.626,4.626" transform="translate(-3129.505 -6425.691)" fill="#e5b961"/>
      <path id="Path_876392" data-name="Path 876392" d="M220.331,198.12a1.388,1.388,0,0,1-1.388-1.388V144.3a1.388,1.388,0,0,1,2.776,0v52.433a1.388,1.388,0,0,1-1.388,1.388" transform="translate(-3129.64 -6425.922)" fill="#e5b961"/>
      <path id="Path_876393" data-name="Path 876393" d="M224.519,170.041a4.627,4.627,0,1,1-4.626-4.626,4.626,4.626,0,0,1,4.626,4.626" transform="translate(-3129.493 -6426.823)" fill="#e5b961"/>
      <path id="Path_876394" data-name="Path 876394" d="M152.435,50.894a4.627,4.627,0,1,1-4.626-4.625,4.625,4.625,0,0,1,4.626,4.625" transform="translate(-3126.606 -6422.052)" fill="#e5b961"/>
      <path id="Path_876395" data-name="Path 876395" d="M275.043,98.669a4.626,4.626,0,1,1-4.626-4.626,4.626,4.626,0,0,1,4.626,4.626" transform="translate(-3131.516 -6423.965)" fill="#e5b961"/>
      <path id="Path_876396" data-name="Path 876396" d="M384.309,48.164a4.627,4.627,0,1,1-4.626-4.626,4.626,4.626,0,0,1,4.626,4.626" transform="translate(-3135.891 -6421.942)" fill="#e5b961"/>
      <path id="Path_876397" data-name="Path 876397" d="M147.944,107.224a1.388,1.388,0,0,1-1.388-1.388V53.4a1.388,1.388,0,1,1,2.776,0v52.433a1.388,1.388,0,0,1-1.388,1.388" transform="translate(-3126.742 -6422.282)" fill="#e5b961"/>
      <path id="Path_876399" data-name="Path 876399" d="M216.166,169.14H147.943a1.389,1.389,0,0,1-1.388-1.388v-58.1a1.388,1.388,0,1,1,2.776,0v56.716h66.835a1.388,1.388,0,0,1,0,2.776" transform="translate(-3126.741 -6424.534)" fill="#e5b961"/>
      <path id="Path_876400" data-name="Path 876400" d="M270.551,99.044a1.388,1.388,0,0,1-1.388-1.388V22.365a1.388,1.388,0,0,1,1.388-1.388H330.4a1.388,1.388,0,0,1,1.388,1.388V47.192h45.14a1.388,1.388,0,0,1,0,2.776H330.4a1.388,1.388,0,0,1-1.388-1.388V23.753H271.939v73.9a1.388,1.388,0,0,1-1.388,1.388" transform="translate(-3131.651 -6421.039)" fill="#e5b961"/>
      <path id="Path_876401" data-name="Path 876401" d="M119.133,138.541a7.491,7.491,0,0,0-7.491,7.491c0,4.138,7.491,14.871,7.491,14.871s7.491-10.732,7.491-14.871a7.491,7.491,0,0,0-7.491-7.491m0,8.483a2.628,2.628,0,1,1,2.627-2.628,2.628,2.628,0,0,1-2.627,2.628" transform="translate(-3125.344 -6425.747)" fill="#83a0f0"/>
      <path id="Path_876402" data-name="Path 876402" d="M378.412.9a10.141,10.141,0,0,0-10.143,10.142c0,5.6,10.143,20.135,10.143,20.135s10.142-14.533,10.142-20.135A10.14,10.14,0,0,0,378.412.9m0,11.486a3.559,3.559,0,1,1,3.559-3.56,3.561,3.561,0,0,1-3.559,3.56" transform="translate(-3135.62 -6420.235)" fill="#f04b4a"/>
    </g>
    <g id="Group_1101838" data-name="Group 1101838" transform="translate(4005 11602.32)">
      <path id="Path_876365" data-name="Path 876365" d="M395.5,68.671a2.9,2.9,0,0,1-2.863,2.942H335.72a2.9,2.9,0,0,1-2.862-2.942v-3.53A2.9,2.9,0,0,1,335.72,62.2h56.914a2.9,2.9,0,0,1,2.863,2.941Z" transform="translate(-3096.945 -6700.409)" fill="#44789d"/>
      <rect id="Rectangle_404360" data-name="Rectangle 404360" width="62.575" height="71.934" transform="translate(-2764.024 -6631.216)" fill="#83a0f0"/>
      <rect id="Rectangle_404361" data-name="Rectangle 404361" width="31.195" height="18.689" transform="translate(-2760.455 -6627.162)" fill="#0c1756"/>
      <path id="Path_876366" data-name="Path 876366" d="M357.972,87.836l5.093,2.81-5.093,2.81Z" transform="translate(-3104.836 -6708.464)" fill="#83a0f0"/>
      <rect id="Rectangle_404362" data-name="Rectangle 404362" width="31.195" height="2.118" transform="translate(-2760.521 -6606.688)" fill="#fff"/>
      <rect id="Rectangle_404363" data-name="Rectangle 404363" width="55.485" height="10.508" transform="translate(-2760.299 -6599.816)" fill="#a4d7ef"/>
      <rect id="Rectangle_404364" data-name="Rectangle 404364" width="57.365" height="8.797" transform="translate(-2761.403 -6570.251)" fill="#a4d7ef"/>
      <rect id="Rectangle_404365" data-name="Rectangle 404365" width="13.433" height="0.76" transform="translate(-2758.761 -6584.166)" fill="#fff"/>
      <rect id="Rectangle_404366" data-name="Rectangle 404366" width="13.433" height="0.762" transform="translate(-2758.761 -6582.211)" fill="#fff"/>
      <rect id="Rectangle_404367" data-name="Rectangle 404367" width="13.433" height="0.761" transform="translate(-2758.761 -6580.255)" fill="#fff"/>
      <rect id="Rectangle_404368" data-name="Rectangle 404368" width="13.433" height="0.762" transform="translate(-2758.761 -6578.298)" fill="#fff"/>
      <rect id="Rectangle_404369" data-name="Rectangle 404369" width="13.433" height="0.762" transform="translate(-2758.761 -6576.343)" fill="#fff"/>
      <rect id="Rectangle_404370" data-name="Rectangle 404370" width="13.433" height="0.76" transform="translate(-2738.561 -6584.166)" fill="#fff"/>
      <rect id="Rectangle_404371" data-name="Rectangle 404371" width="13.433" height="0.762" transform="translate(-2738.561 -6582.211)" fill="#fff"/>
      <rect id="Rectangle_404372" data-name="Rectangle 404372" width="13.433" height="0.761" transform="translate(-2738.561 -6580.255)" fill="#fff"/>
      <rect id="Rectangle_404373" data-name="Rectangle 404373" width="13.433" height="0.762" transform="translate(-2738.561 -6578.298)" fill="#fff"/>
      <rect id="Rectangle_404374" data-name="Rectangle 404374" width="13.433" height="0.762" transform="translate(-2738.561 -6576.343)" fill="#fff"/>
      <rect id="Rectangle_404375" data-name="Rectangle 404375" width="13.434" height="0.76" transform="translate(-2720.432 -6584.166)" fill="#fff"/>
      <rect id="Rectangle_404376" data-name="Rectangle 404376" width="13.434" height="0.762" transform="translate(-2720.432 -6582.211)" fill="#fff"/>
      <rect id="Rectangle_404377" data-name="Rectangle 404377" width="13.434" height="0.761" transform="translate(-2720.432 -6580.255)" fill="#fff"/>
      <rect id="Rectangle_404378" data-name="Rectangle 404378" width="13.434" height="0.762" transform="translate(-2720.432 -6578.298)" fill="#fff"/>
      <rect id="Rectangle_404379" data-name="Rectangle 404379" width="13.434" height="0.762" transform="translate(-2720.432 -6576.343)" fill="#fff"/>
      <rect id="Rectangle_404380" data-name="Rectangle 404380" width="21.689" height="0.665" transform="translate(-2726.502 -6626.619)" fill="#fff"/>
      <rect id="Rectangle_404381" data-name="Rectangle 404381" width="21.689" height="0.665" transform="translate(-2726.502 -6624.684)" fill="#fff"/>
      <rect id="Rectangle_404382" data-name="Rectangle 404382" width="21.689" height="0.665" transform="translate(-2726.502 -6622.747)" fill="#fff"/>
      <rect id="Rectangle_404383" data-name="Rectangle 404383" width="21.689" height="0.665" transform="translate(-2726.502 -6620.811)" fill="#fff"/>
      <rect id="Rectangle_404384" data-name="Rectangle 404384" width="21.689" height="0.665" transform="translate(-2726.502 -6618.875)" fill="#fff"/>
      <rect id="Rectangle_404385" data-name="Rectangle 404385" width="21.689" height="0.665" transform="translate(-2726.502 -6616.938)" fill="#fff"/>
      <rect id="Rectangle_404386" data-name="Rectangle 404386" width="21.689" height="0.665" transform="translate(-2726.502 -6615.002)" fill="#fff"/>
      <rect id="Rectangle_404387" data-name="Rectangle 404387" width="21.689" height="0.666" transform="translate(-2726.502 -6613.066)" fill="#fff"/>
      <rect id="Rectangle_404388" data-name="Rectangle 404388" width="21.689" height="0.665" transform="translate(-2726.502 -6611.129)" fill="#fff"/>
      <rect id="Rectangle_404389" data-name="Rectangle 404389" width="21.689" height="0.665" transform="translate(-2726.502 -6609.193)" fill="#fff"/>
      <rect id="Rectangle_404390" data-name="Rectangle 404390" width="21.689" height="0.665" transform="translate(-2726.502 -6607.257)" fill="#fff"/>
      <rect id="Rectangle_404391" data-name="Rectangle 404391" width="21.689" height="0.665" transform="translate(-2726.502 -6605.321)" fill="#fff"/>
      <rect id="Rectangle_404392" data-name="Rectangle 404392" width="44.58" height="2.103" transform="translate(-2754.461 -6595.824)" fill="#daf1fd"/>
      <path id="Path_876367" data-name="Path 876367" d="M338.707,66.933a1.327,1.327,0,1,1-1.327-1.327,1.326,1.326,0,0,1,1.327,1.327" transform="translate(-3097.949 -6701.479)" fill="#83a0f0"/>
      <path id="Path_876368" data-name="Path 876368" d="M344.672,66.933a1.327,1.327,0,1,1-1.328-1.327,1.327,1.327,0,0,1,1.328,1.327" transform="translate(-3099.823 -6701.479)" fill="#83a0f0"/>
      <path id="Path_876369" data-name="Path 876369" d="M350.634,66.933a1.327,1.327,0,1,1-1.327-1.327,1.327,1.327,0,0,1,1.327,1.327" transform="translate(-3101.696 -6701.479)" fill="#83a0f0"/>
      <path id="Path_876370" data-name="Path 876370" d="M357.7,95.607a6.778,6.778,0,1,1,6.778-6.778,6.786,6.786,0,0,1-6.778,6.778m0-12.235a5.456,5.456,0,1,0,5.456,5.456,5.463,5.463,0,0,0-5.456-5.456" transform="translate(-3102.62 -6706.646)" fill="#83a0f0"/>
    </g>
  </g>
</svg>
