<svg xmlns="http://www.w3.org/2000/svg" xmlns:xlink="http://www.w3.org/1999/xlink" width="505" height="417" viewBox="0 0 505 417">
  <defs>
    <clipPath id="clip-path">
      <rect id="Rectangle_404090" data-name="Rectangle 404090" width="505" height="376.219" fill="none"/>
    </clipPath>
    <clipPath id="clip-path-3">
      <rect id="Rectangle_404064" data-name="Rectangle 404064" width="254.248" height="178.484" fill="none"/>
    </clipPath>
    <clipPath id="clip-path-4">
      <rect id="Rectangle_404065" data-name="Rectangle 404065" width="131.117" height="15.62" fill="none"/>
    </clipPath>
    <clipPath id="clip-path-5">
      <rect id="Rectangle_404070" data-name="Rectangle 404070" width="372.375" height="10.185" fill="none"/>
    </clipPath>
    <clipPath id="clip-path-6">
      <rect id="Rectangle_404071" data-name="Rectangle 404071" width="23.744" height="23.744" fill="none"/>
    </clipPath>
    <clipPath id="clip-path-7">
      <rect id="Rectangle_404072" data-name="Rectangle 404072" width="23.743" height="23.744" fill="none"/>
    </clipPath>
    <clipPath id="clip-path-10">
      <rect id="Rectangle_404075" data-name="Rectangle 404075" width="23.744" height="23.743" fill="none"/>
    </clipPath>
    <clipPath id="clip-path-11">
      <rect id="Rectangle_404076" data-name="Rectangle 404076" width="23.743" height="23.743" fill="none"/>
    </clipPath>
    <clipPath id="clip-path-15">
      <rect id="Rectangle_404083" data-name="Rectangle 404083" width="435.118" height="1.859" fill="none"/>
    </clipPath>
    <linearGradient id="linear-gradient" x1="-0.089" y1="1.79" x2="-0.087" y2="1.79" gradientUnits="objectBoundingBox">
      <stop offset="0"/>
      <stop offset="1" stop-color="#00070a"/>
    </linearGradient>
    <clipPath id="clip-path-17">
      <rect id="Rectangle_404084" data-name="Rectangle 404084" width="44.431" height="105.627" fill="none"/>
    </clipPath>
    <clipPath id="clip-path-18">
      <rect id="Rectangle_404085" data-name="Rectangle 404085" width="114.842" height="24.979" fill="none"/>
    </clipPath>
    <clipPath id="clip-path-19">
      <path id="Path_875980" data-name="Path 875980" d="M239.209,223.824a12.489,12.489,0,1,0,0,24.977h89.863a12.489,12.489,0,1,0,0-24.977Z" transform="translate(-226.719 -223.824)" fill="none"/>
    </clipPath>
    <linearGradient id="linear-gradient-2" x1="-1.868" y1="6.582" x2="-1.86" y2="6.582" gradientUnits="objectBoundingBox">
      <stop offset="0" stop-color="#fff"/>
      <stop offset="1" stop-color="#fff"/>
    </linearGradient>
  </defs>
  <g id="img20" transform="translate(-810 -4896)">
    <rect id="Rectangle_403818" data-name="Rectangle 403818" width="505" height="417" transform="translate(810 4896)" fill="none"/>
    <g id="Group_1101782" data-name="Group 1101782" transform="translate(810 4916)">
      <g id="Group_1101781" data-name="Group 1101781" clip-path="url(#clip-path)">
        <g id="Group_1101766" data-name="Group 1101766">
          <g id="Group_1101765" data-name="Group 1101765" clip-path="url(#clip-path)">
            <g id="Group_1101731" data-name="Group 1101731" transform="translate(121.475 13.468)" opacity="0.48">
              <g id="Group_1101730" data-name="Group 1101730">
                <g id="Group_1101729" data-name="Group 1101729" clip-path="url(#clip-path-3)">
                  <path id="Path_875844" data-name="Path 875844" d="M355.768,111.965H334.255a10.545,10.545,0,0,0-10.544,10.545v.213a10.544,10.544,0,0,0,10.544,10.543h5.55a10.368,10.368,0,0,1,10.368,10.367v.21a10.368,10.368,0,0,1-10.368,10.368H295.24a9.148,9.148,0,0,0-9.149,9.148v.186a9.148,9.148,0,0,0,9.149,9.148h19.347a9.84,9.84,0,0,1,9.841,9.84v.2a9.841,9.841,0,0,1-9.841,9.841h-151a9.841,9.841,0,0,1-9.841-9.841v-.2a9.84,9.84,0,0,1,9.841-9.84H205.5a9.148,9.148,0,0,0,9.149-9.148v-.186a9.148,9.148,0,0,0-9.149-9.148H148.647a10.368,10.368,0,0,1-10.368-10.368v-.21a10.368,10.368,0,0,1,10.368-10.367H222.2a10.544,10.544,0,0,0,10.544-10.543v-.213A10.545,10.545,0,0,0,222.2,111.965h-9.8a10.543,10.543,0,0,1-10.543-10.542v-.215a10.543,10.543,0,0,1,10.543-10.542h4.979a7.908,7.908,0,0,0,7.908-7.907V82.6a7.907,7.907,0,0,0-7.908-7.906h-41.91a10.544,10.544,0,0,1-10.543-10.545v-.212a10.543,10.543,0,0,1,10.543-10.543H198.82a9.434,9.434,0,0,0,9.434-9.434v-.191c0-5.21-6.481-9.434-11.691-9.434H158a9.951,9.951,0,0,1-9.951-9.951v-.2A9.952,9.952,0,0,1,158,14.23H273.222a9.952,9.952,0,0,1,9.951,9.952v.2a9.951,9.951,0,0,1-9.951,9.951h-3.975a9.434,9.434,0,0,0-9.434,9.434v.191a9.434,9.434,0,0,0,9.434,9.434h73.031a10.543,10.543,0,0,1,10.544,10.543v.212a10.544,10.544,0,0,1-10.544,10.545h-3.2a7.906,7.906,0,0,0-7.907,7.906v.161a7.907,7.907,0,0,0,7.907,7.907h16.693a10.543,10.543,0,0,1,10.543,10.542v.215a10.542,10.542,0,0,1-10.543,10.542" transform="translate(-128.888 -14.231)" fill="#bacdff"/>
                  <path id="Path_875845" data-name="Path 875845" d="M385.4,140.5H381.82a10.24,10.24,0,1,0,0,20.48H385.4a10.24,10.24,0,1,0,0-20.48" transform="translate(-141.395 -21)" fill="#bacdff"/>
                  <path id="Path_875846" data-name="Path 875846" d="M136.31,76.446a10.475,10.475,0,0,1-1.65-.556l-5.826-6.364a10.509,10.509,0,0,1-.411-1.694Z" transform="translate(-128.36 -17.105)" fill="#bacdff"/>
                  <path id="Path_875847" data-name="Path 875847" d="M140.2,76.539h-1.14l-10.7-11.693a10.541,10.541,0,0,1,.169-1.061Z" transform="translate(-128.356 -16.888)" fill="#bacdff"/>
                  <path id="Path_875848" data-name="Path 875848" d="M143.807,76.328c-.344.034-.693.052-1.046.052h-.047l-13.5-14.752q.18-.417.395-.815Z" transform="translate(-128.402 -16.728)" fill="#bacdff"/>
                  <path id="Path_875849" data-name="Path 875849" d="M146.83,75.474c-.28.115-.565.219-.856.309l-15.25-16.659q.264-.331.554-.64Z" transform="translate(-128.483 -16.603)" fill="#bacdff"/>
                  <path id="Path_875850" data-name="Path 875850" d="M149.311,74.026c-.225.17-.459.33-.7.483l-15.874-17.34c.226-.17.46-.329.7-.482Z" transform="translate(-128.591 -16.507)" fill="#bacdff"/>
                  <path id="Path_875851" data-name="Path 875851" d="M151.351,72.1q-.264.332-.553.642L135.251,55.757c.281-.114.567-.218.858-.308Z" transform="translate(-128.726 -16.441)" fill="#bacdff"/>
                  <path id="Path_875852" data-name="Path 875852" d="M152.552,70.5l-14.187-15.5c.335-.032.676-.05,1.019-.05h.075l13.487,14.732q-.18.417-.394.816" transform="translate(-128.893 -16.414)" fill="#bacdff"/>
                  <path id="Path_875853" data-name="Path 875853" d="M153.95,66.623a10.57,10.57,0,0,1-.167,1.063L142.13,54.957h1.14Z" transform="translate(-129.094 -16.414)" fill="#bacdff"/>
                  <path id="Path_875854" data-name="Path 875854" d="M153.677,62.159a10.42,10.42,0,0,1,.421,1.705l-7.847-8.571a10.489,10.489,0,0,1,1.662.57Z" transform="translate(-129.315 -16.432)" fill="#bacdff"/>
                  <path id="Path_875855" data-name="Path 875855" d="M334.13,45.795a10.5,10.5,0,0,1-1.65-.556l-5.826-6.364a10.5,10.5,0,0,1-.412-1.694Z" transform="translate(-138.965 -15.461)" fill="#bacdff"/>
                  <path id="Path_875856" data-name="Path 875856" d="M338.02,45.889h-1.14L326.175,34.2a10.546,10.546,0,0,1,.169-1.061Z" transform="translate(-138.961 -15.244)" fill="#bacdff"/>
                  <path id="Path_875857" data-name="Path 875857" d="M341.628,45.677c-.344.034-.693.052-1.046.052h-.047l-13.5-14.752q.18-.417.395-.815Z" transform="translate(-139.007 -15.085)" fill="#bacdff"/>
                  <path id="Path_875858" data-name="Path 875858" d="M344.65,44.823c-.28.115-.565.219-.856.309l-15.25-16.659q.264-.331.554-.64Z" transform="translate(-139.088 -14.96)" fill="#bacdff"/>
                  <path id="Path_875859" data-name="Path 875859" d="M347.131,43.376c-.225.17-.459.33-.7.483l-15.874-17.34c.226-.17.46-.329.7-.482Z" transform="translate(-139.196 -14.864)" fill="#bacdff"/>
                  <path id="Path_875860" data-name="Path 875860" d="M349.171,41.448q-.264.332-.553.642L333.071,25.107c.281-.114.567-.218.858-.308Z" transform="translate(-139.331 -14.798)" fill="#bacdff"/>
                  <path id="Path_875861" data-name="Path 875861" d="M350.372,39.854l-14.187-15.5c.335-.032.676-.05,1.019-.05h.075l13.487,14.732q-.18.417-.394.816" transform="translate(-139.498 -14.771)" fill="#bacdff"/>
                  <path id="Path_875862" data-name="Path 875862" d="M351.77,35.972a10.579,10.579,0,0,1-.167,1.063L339.95,24.306h1.14Z" transform="translate(-139.7 -14.771)" fill="#bacdff"/>
                  <path id="Path_875863" data-name="Path 875863" d="M351.5,31.508a10.417,10.417,0,0,1,.421,1.705l-7.847-8.571a10.487,10.487,0,0,1,1.662.57Z" transform="translate(-139.921 -14.789)" fill="#bacdff"/>
                  <path id="Path_875864" data-name="Path 875864" d="M345.154,194.548a10.312,10.312,0,0,1-.26-1.53l8.342,9.112a10.073,10.073,0,0,1-1.5-.395Z" transform="translate(-139.965 -23.816)" fill="#bacdff"/>
                  <path id="Path_875865" data-name="Path 875865" d="M344.986,190.213a9.989,9.989,0,0,1,.217-1.011l11.8,12.894h-1.141Z" transform="translate(-139.97 -23.611)" fill="#bacdff"/>
                  <path id="Path_875866" data-name="Path 875866" d="M345.978,187.143c.133-.266.274-.525.429-.778l14.115,15.419q-.5.089-1.024.129Z" transform="translate(-140.023 -23.459)" fill="#bacdff"/>
                  <path id="Path_875867" data-name="Path 875867" d="M347.6,184.76c.186-.209.383-.41.588-.6l15.191,16.594c-.264.132-.535.252-.811.362Z" transform="translate(-140.11 -23.341)" fill="#bacdff"/>
                  <path id="Path_875868" data-name="Path 875868" d="M349.735,182.933c.238-.157.484-.306.735-.443l15.255,16.664c-.21.186-.426.365-.651.535Z" transform="translate(-140.224 -23.251)" fill="#bacdff"/>
                  <path id="Path_875869" data-name="Path 875869" d="M352.39,181.678c.3-.1.607-.176.918-.243l14.315,15.637q-.237.359-.5.7Z" transform="translate(-140.367 -23.195)" fill="#bacdff"/>
                  <path id="Path_875870" data-name="Path 875870" d="M355.74,181.186h1.14l12.154,13.276c-.095.3-.2.6-.324.891Z" transform="translate(-140.546 -23.182)" fill="#bacdff"/>
                  <path id="Path_875871" data-name="Path 875871" d="M360.774,181.273l8.912,9.735c0,.139.01.278.01.418,0,.27-.014.537-.034.8l-10.106-11.04a10.54,10.54,0,0,1,1.218.085" transform="translate(-140.751 -23.182)" fill="#bacdff"/>
                  <path id="Path_875872" data-name="Path 875872" d="M369.161,187.515l-4.639-5.068a10.278,10.278,0,0,1,4.639,5.068" transform="translate(-141.017 -23.249)" fill="#bacdff"/>
                </g>
              </g>
            </g>
            <path id="Path_875873" data-name="Path 875873" d="M162.412,81.768s29.393-48.031,4.162-51.86-4.162,51.86-4.162,51.86" transform="translate(-8.265 -1.593)" fill="#3e8f7d"/>
            <path id="Path_875874" data-name="Path 875874" d="M162.332,103.406c-.735-.829-1.158-7.176-1.163-7.24a56.189,56.189,0,0,1,.68-13.529c-3.294-18.526,2.685-35.831,2.745-36a.908.908,0,0,1,1.712.6c-.06.169-5.915,17.144-2.642,35.245a.9.9,0,0,1,0,.333,55.394,55.394,0,0,0,.133,19.536.906.906,0,0,1-1.463,1.055m1.359-1.2,0,0,0,0" transform="translate(-8.624 -2.468)" fill="#276b5b"/>
            <path id="Path_875875" data-name="Path 875875" d="M134.191,52.006S157.852.908,132.349.011s1.842,51.995,1.842,51.995" transform="translate(-6.512 0)" fill="#3e8f7d"/>
            <path id="Path_875876" data-name="Path 875876" d="M184.923,123.789a.907.907,0,0,0,.542-1.634c-11.954-8.908-40.746-33.513-49.887-69.5l-.011-.04c-5.339-17.6-1.477-35.139-1.438-35.315a.907.907,0,1,0-1.77-.4c-.041.179-4.008,18.152,1.465,36.222,9.29,36.543,38.45,61.47,50.557,70.492a.9.9,0,0,0,.541.18" transform="translate(-7.019 -0.868)" fill="#276b5b"/>
            <path id="Path_875877" data-name="Path 875877" d="M121.9,56.977s-13.989-43.67-29.768-30.148S121.9,56.977,121.9,56.977" transform="translate(-4.761 -1.299)" fill="#3e8f7d"/>
            <path id="Path_875878" data-name="Path 875878" d="M136.745,66.237a.907.907,0,0,0,.054-1.812c-2.6-.159-10.786-5.509-13.723-7.557-.019-.013-.038-.026-.058-.037-12.879-7.595-20.2-20.186-20.27-20.312a.907.907,0,0,0-1.574.9c.3.533,7.621,13.118,20.892,20.955,1.252.873,11.077,7.643,14.622,7.86l.056,0" transform="translate(-5.418 -1.933)" fill="#276b5b"/>
            <path id="Path_875879" data-name="Path 875879" d="M142.255,100.885S109.169,52.359,94.72,74.712s47.534,26.173,47.534,26.173" transform="translate(-4.961 -3.69)" fill="#3e8f7d"/>
            <path id="Path_875880" data-name="Path 875880" d="M167.677,113.517a.907.907,0,0,0,.289-1.767c-.171-.058-17.152-5.789-24.28-10.85a.92.92,0,0,0-.307-.14c-18.626-4.645-32.267-17.491-32.4-17.62a.907.907,0,0,0-1.252,1.313c.138.132,14.029,13.227,33.051,18.026,7.417,5.189,23.91,10.756,24.613,10.991a.9.9,0,0,0,.289.047" transform="translate(-5.867 -4.444)" fill="#276b5b"/>
            <path id="Path_875881" data-name="Path 875881" d="M464.235,252.3v68.212a40.411,40.411,0,0,0,10.895,2.413,40.932,40.932,0,0,0,17.314-2.413,62.33,62.33,0,0,0,28.023-75.369,62.322,62.322,0,0,0-56.232,7.157" transform="translate(-24.888 -12.945)" fill="#3e8f7d"/>
            <path id="Path_875882" data-name="Path 875882" d="M520.566,272.627a60.244,60.244,0,0,1-12.376,1.15,97.468,97.468,0,0,1-14.274-1.089l-16.49,16.488c4.553,1.107,22.419,5.038,37.11,2.588a.648.648,0,1,1,.212,1.28,65.1,65.1,0,0,1-10.639.8,123.426,123.426,0,0,1-27.753-3.6l-11.7,11.7a.647.647,0,0,1-.916,0,.648.648,0,0,1,0-.917l4.034-4.036c-.6-2.671-4.258-19.9-2.811-36.756a.649.649,0,1,1,1.293.113c-1.326,15.455,1.693,31.244,2.609,35.553l15.3-15.3c-.532-2.333-3.431-15.749-2.884-28.6a.648.648,0,0,1,1.295.054c-.495,11.639,1.877,23.757,2.676,27.457l7.97-7.968,8.218-8.217c-.421-2.06-2.428-12.46-1.49-19.277a.649.649,0,0,1,1.286.177c-.808,5.868.7,14.8,1.308,17.993l13.11-13.107a.648.648,0,1,1,.916.917l-13.955,13.955-.009.009-7.555,7.555c3.793.54,15.488,1.9,25.238-.188a.649.649,0,0,1,.273,1.269" transform="translate(-24.851 -13.054)" fill="#53bda7"/>
            <path id="Path_875883" data-name="Path 875883" d="M464.235,205.653v65.667c11.5-7.582,23.692-20.6,32.542-42.943l-9.161-1.944,11.329-3.92a190.937,190.937,0,0,0,8.742-40.277,145.03,145.03,0,0,0-27.932,12.825L477.4,208.3l-2.523-10.233c-3.521,2.262-7.107,4.787-10.642,7.591" transform="translate(-24.888 -9.77)" fill="#276b5b"/>
            <path id="Path_875884" data-name="Path 875884" d="M497.4,314.627H497.4c-.294,0-.586,0-.877,0a100.275,100.275,0,0,1-32.11-5.308.649.649,0,1,0-.425,1.226,101.581,101.581,0,0,0,32.535,5.38q.443,0,.889,0a.649.649,0,0,0-.006-1.3" transform="translate(-24.851 -16.581)" fill="#53bda7"/>
            <path id="Path_875885" data-name="Path 875885" d="M463.805,239.1a.647.647,0,0,0,.909-.124l1.907-2.51h22.487a.649.649,0,0,0,0-1.3h-21.5l10.273-13.528h16.186a.649.649,0,1,0,0-1.3h-15.2l5.887-7.751,13.964-.38a.648.648,0,0,0,.631-.665.656.656,0,0,0-.666-.631l-12.923.352,18.6-24.491a.649.649,0,1,0-1.033-.786l-10.453,13.764v-6.631a.649.649,0,0,0-1.3,0v8.339L472.561,226.5l-1.291-18.965a.649.649,0,1,0-1.295.088l1.392,20.448-7.686,10.12a.649.649,0,0,0,.124.909" transform="translate(-24.851 -9.957)" fill="#3e8f7d"/>
            <path id="Path_875886" data-name="Path 875886" d="M464.254,252.555a.648.648,0,1,0-.113,1.292l12.9,1.124.058,0a.649.649,0,0,0,.055-1.295Z" transform="translate(-24.851 -13.539)" fill="#3e8f7d"/>
            <path id="Path_875887" data-name="Path 875887" d="M68.53,233.378V311.4a32.191,32.191,0,0,1-32.267,0A71.3,71.3,0,0,1,4.209,225.192a71.287,71.287,0,0,1,64.321,8.186" transform="translate(0 -11.847)" fill="#3e8f7d"/>
            <path id="Path_875888" data-name="Path 875888" d="M4.249,256.626A68.927,68.927,0,0,0,18.4,257.941,111.4,111.4,0,0,0,34.733,256.7L53.6,275.556c-5.208,1.266-25.644,5.763-42.449,2.96a.742.742,0,0,0-.242,1.464,74.525,74.525,0,0,0,12.171.92,141.119,141.119,0,0,0,31.746-4.121L68.2,290.162a.74.74,0,0,0,1.049,0,.741.741,0,0,0,0-1.049L64.636,284.5c.685-3.055,4.869-22.764,3.215-42.044a.742.742,0,0,0-1.479.129c1.516,17.679-1.936,35.739-2.985,40.669l-17.5-17.505c.609-2.669,3.925-18.015,3.3-32.712a.741.741,0,0,0-1.481.062c.566,13.313-2.147,27.175-3.062,31.407l-9.117-9.114-9.4-9.4c.483-2.357,2.778-14.253,1.7-22.051a.743.743,0,0,0-1.472.2c.925,6.713-.8,16.934-1.5,20.582l-15-14.994a.741.741,0,0,0-1.049,1.049l15.963,15.963a.031.031,0,0,0,.009.01l8.641,8.641c-4.338.619-17.715,2.174-28.87-.215a.742.742,0,0,0-.311,1.452" transform="translate(-0.196 -11.971)" fill="#53bda7"/>
            <path id="Path_875889" data-name="Path 875889" d="M69.6,180.016v75.115c-13.15-8.674-27.1-23.57-37.223-49.122l10.478-2.223L29.893,199.3a218.425,218.425,0,0,1-10-46.072A165.918,165.918,0,0,1,51.844,167.9l2.693,15.137,2.886-11.7c4.026,2.586,8.129,5.476,12.172,8.683" transform="translate(-1.067 -8.215)" fill="#276b5b"/>
            <path id="Path_875890" data-name="Path 875890" d="M32.235,304.668h.007c.337,0,.67,0,1,0A114.7,114.7,0,0,0,69.975,298.6a.742.742,0,0,1,.486,1.4,116.211,116.211,0,0,1-37.217,6.154c-.337,0-.677,0-1.016,0a.742.742,0,0,1,.007-1.484" transform="translate(-1.688 -16.006)" fill="#53bda7"/>
            <path id="Path_875891" data-name="Path 875891" d="M70.25,218.274a.741.741,0,0,1-1.039-.142l-2.18-2.871H41.307a.742.742,0,0,1,0-1.484H65.9L54.151,198.3H35.636a.742.742,0,0,1,0-1.484H53.024l-6.734-8.867-15.973-.434a.742.742,0,1,1,.04-1.483l14.783.4L23.862,158.423a.742.742,0,1,1,1.181-.9L37,173.269v-7.584a.742.742,0,1,1,1.484,0v9.539l21.75,28.639,1.477-21.693a.742.742,0,1,1,1.48.1L61.6,205.66l8.791,11.575a.741.741,0,0,1-.142,1.039" transform="translate(-1.271 -8.429)" fill="#3e8f7d"/>
            <path id="Path_875892" data-name="Path 875892" d="M71.47,233.665a.742.742,0,0,1,.129,1.478l-14.76,1.286-.065,0a.742.742,0,0,1-.063-1.481Z" transform="translate(-3.004 -12.527)" fill="#3e8f7d"/>
            <path id="Path_875893" data-name="Path 875893" d="M32.629,104.271h54.4c-.705-3.829-3.827-7.522-7.714-7.762a11.6,11.6,0,0,0-8.478-9c-4.681-1.157-9,1.234-12.054,4.671a12.706,12.706,0,0,0-9.518-.8,13.16,13.16,0,0,0-7.279,6.458,7.1,7.1,0,0,0-5.877.837,8.681,8.681,0,0,0-3.485,5.591" transform="translate(-1.749 -4.676)" fill="#bacdff"/>
            <path id="Path_875894" data-name="Path 875894" d="M10.2,74.991H71.8c-2.1-5.287-6.926-6.839-10.887-4.771-2.009-3.063-7.251-8.144-11.853-8.966s-9.415,1.209-12.991,5.483C32.512,63.766,27.568,65.473,25,70.1c-4.524-3.416-11.175-.309-14.8,4.888" transform="translate(-0.547 -3.274)" fill="#bacdff"/>
            <path id="Path_875895" data-name="Path 875895" d="M240.445,72.288c3.042-6.411,10.678-8.97,15.489-4.842,1.2-5.209,7.377-7.592,10.778-4.5a9.558,9.558,0,0,1,6.884-5.327,9.112,9.112,0,0,1,7.894,3.6c7.211-4.607,16.781-1.406,21.445,7.175,1.65-2.452,5.555-1.642,6.721,1.251,2.27-4.483,6.766-7.971,10.851-8.319s8.253,1.938,10.943,6c3.2-1.615,7.835.655,8.865,4.96Z" transform="translate(-12.89 -3.086)" fill="#bacdff"/>
            <path id="Path_875896" data-name="Path 875896" d="M517.688,151.753H401.9a8.417,8.417,0,0,1-8.407-8.408V27.556A8.416,8.416,0,0,1,401.9,19.15h115.79a8.416,8.416,0,0,1,8.407,8.406v115.79a8.417,8.417,0,0,1-8.407,8.408M401.9,20.637a6.927,6.927,0,0,0-6.919,6.919v115.79a6.928,6.928,0,0,0,6.919,6.921h115.79a6.928,6.928,0,0,0,6.92-6.921V27.556a6.927,6.927,0,0,0-6.92-6.919Z" transform="translate(-21.095 -1.027)" fill="#83a0f0"/>
            <g id="Group_1101734" data-name="Group 1101734" transform="translate(373.14 18.866)" opacity="0.53">
              <g id="Group_1101733" data-name="Group 1101733">
                <g id="Group_1101732" data-name="Group 1101732" clip-path="url(#clip-path-4)">
                  <path id="Path_875897" data-name="Path 875897" d="M522.944,35.555H396.605a2.328,2.328,0,0,1-2.328-2.328v-4.9a8.4,8.4,0,0,1,8.4-8.4H517.637a7.756,7.756,0,0,1,7.757,7.756v5.415a2.45,2.45,0,0,1-2.449,2.449" transform="translate(-394.277 -19.935)" fill="#5e60f4"/>
                </g>
              </g>
            </g>
            <path id="Path_875898" data-name="Path 875898" d="M510.186,29.055a4.275,4.275,0,1,1-4.275-4.275,4.274,4.274,0,0,1,4.275,4.275" transform="translate(-26.893 -1.328)" fill="#f9cf70"/>
            <path id="Path_875899" data-name="Path 875899" d="M496.046,29.055a4.275,4.275,0,1,1-4.275-4.275,4.274,4.274,0,0,1,4.275,4.275" transform="translate(-26.135 -1.328)" fill="#f9cf70"/>
            <path id="Path_875900" data-name="Path 875900" d="M524.719,29.055a4.275,4.275,0,1,1-4.275-4.275,4.274,4.274,0,0,1,4.275,4.275" transform="translate(-27.672 -1.328)" fill="#d65a29"/>
            <rect id="Rectangle_404066" data-name="Rectangle 404066" width="66.29" height="12.019" transform="translate(406.538 81.159)" fill="#1c2684"/>
            <path id="Path_875901" data-name="Path 875901" d="M495.852,85.913v41.253H429.476V85.755h.085l7.714,9.475h49.531Z" transform="translate(-23.024 -4.597)" fill="#5e60f4"/>
            <path id="Path_875902" data-name="Path 875902" d="M462.663,52.138,429.474,83.954h66.378Z" transform="translate(-23.024 -2.795)" fill="#1c2684"/>
            <path id="Path_875903" data-name="Path 875903" d="M466.49,116.606a8.823,8.823,0,0,1-4.313.969,7.211,7.211,0,0,1-7.341-7.559c0-4.991,3.465-9.3,8.843-9.3a6.729,6.729,0,0,1,7.051,7c0,3.634-2.035,5.766-4.313,5.766a1.792,1.792,0,0,1-1.792-2.132h-.1a3.8,3.8,0,0,1-3.415,2.132,2.748,2.748,0,0,1-2.617-3.053,5.721,5.721,0,0,1,5.742-5.742,6.388,6.388,0,0,1,2.592.508l-.823,4.386c-.363,1.842-.073,2.69.727,2.713,1.236.025,2.617-1.623,2.617-4.433,0-3.514-2.108-6.033-5.863-6.033-3.949,0-7.269,3.126-7.269,8.043,0,4.047,2.641,6.542,6.227,6.542a7.552,7.552,0,0,0,3.658-.849Zm-1.333-10.466a3.942,3.942,0,0,0-5.064,4.192c0,1.066.534,1.842,1.6,1.842,1.405,0,2.69-1.793,2.956-3.3Z" transform="translate(-24.384 -5.399)" fill="#f5fffe"/>
            <rect id="Rectangle_404067" data-name="Rectangle 404067" width="44.455" height="42.435" transform="translate(417.411 47.969)" fill="#83a0f0"/>
            <path id="Path_875904" data-name="Path 875904" d="M481.09,58.608H446.716a.2.2,0,0,1,0-.406H481.09a.2.2,0,0,1,0,.406" transform="translate(-23.938 -3.12)" fill="#f5fffe"/>
            <path id="Path_875905" data-name="Path 875905" d="M481.09,65.186H446.716a.2.2,0,0,1,0-.406H481.09a.2.2,0,0,1,0,.406" transform="translate(-23.938 -3.473)" fill="#f5fffe"/>
            <path id="Path_875906" data-name="Path 875906" d="M481.09,71.764H446.716a.2.2,0,0,1,0-.406H481.09a.2.2,0,0,1,0,.406" transform="translate(-23.938 -3.826)" fill="#f5fffe"/>
            <path id="Path_875907" data-name="Path 875907" d="M481.09,78.342H446.716a.2.2,0,0,1,0-.406H481.09a.2.2,0,0,1,0,.406" transform="translate(-23.938 -4.178)" fill="#f5fffe"/>
            <path id="Path_875908" data-name="Path 875908" d="M481.09,84.92H446.716a.2.2,0,0,1,0-.406H481.09a.2.2,0,0,1,0,.406" transform="translate(-23.938 -4.531)" fill="#f5fffe"/>
            <path id="Path_875909" data-name="Path 875909" d="M481.09,91.5H446.716a.2.2,0,0,1,0-.406H481.09a.2.2,0,0,1,0,.406" transform="translate(-23.938 -4.883)" fill="#f5fffe"/>
            <path id="Path_875910" data-name="Path 875910" d="M429.476,126.241l25.588-30.474h-.53l-25.058,29.839Z" transform="translate(-23.024 -5.134)" fill="#f5fffe"/>
            <path id="Path_875911" data-name="Path 875911" d="M498.206,124.754,473.87,95.767h-.531l24.867,29.617Z" transform="translate(-25.376 -5.134)" fill="#f5fffe"/>
            <path id="Path_875912" data-name="Path 875912" d="M508.221,126.252h-1.863v-9.779a7.263,7.263,0,0,0-14.525,0v9.375h-1.864v-9.375a9.127,9.127,0,0,1,18.253,0Z" transform="translate(-26.267 -5.755)" fill="#1c2684"/>
            <path id="Path_875913" data-name="Path 875913" d="M507.845,140.934H489.92a3.912,3.912,0,0,1-3.912-3.912V123.8a3.912,3.912,0,0,1,3.912-3.913h17.925a3.913,3.913,0,0,1,3.912,3.913v13.227a3.913,3.913,0,0,1-3.912,3.912" transform="translate(-26.055 -6.427)" fill="#f9cf70"/>
            <path id="Path_875914" data-name="Path 875914" d="M502.084,126.642a2.634,2.634,0,1,0-3.745,2.386l-.649,5.94h3.52l-.649-5.94a2.632,2.632,0,0,0,1.524-2.386" transform="translate(-26.635 -6.648)" fill="#1c2684"/>
            <path id="Path_875915" data-name="Path 875915" d="M452.327,99.121H67.306a1.531,1.531,0,0,0-1.531,1.531V331.882a1.531,1.531,0,0,0,1.531,1.531H452.327a1.531,1.531,0,0,0,1.531-1.531V100.652a1.531,1.531,0,0,0-1.531-1.531" transform="translate(-3.526 -5.314)" fill="#1c2684"/>
            <rect id="Rectangle_404068" data-name="Rectangle 404068" width="372.374" height="214.986" transform="translate(70.104 101.927)" fill="#83a0f0"/>
            <g id="Group_1101737" data-name="Group 1101737" transform="translate(70.104 101.926)" opacity="0.53">
              <g id="Group_1101736" data-name="Group 1101736">
                <g id="Group_1101735" data-name="Group 1101735" clip-path="url(#clip-path-5)">
                  <rect id="Rectangle_404069" data-name="Rectangle 404069" width="372.374" height="10.185" transform="translate(0)" fill="#5e60f4"/>
                </g>
              </g>
            </g>
            <g id="Group_1101740" data-name="Group 1101740" transform="translate(404.725 129.356)" opacity="0.53">
              <g id="Group_1101739" data-name="Group 1101739">
                <g id="Group_1101738" data-name="Group 1101738" clip-path="url(#clip-path-6)">
                  <path id="Path_875916" data-name="Path 875916" d="M445.273,136.684h-11.5a6.123,6.123,0,0,0-6.123,6.123v11.5a6.123,6.123,0,0,0,6.123,6.123h11.5A6.123,6.123,0,0,0,451.4,154.3v-11.5a6.123,6.123,0,0,0-6.123-6.123" transform="translate(-427.652 -136.684)" fill="#5e60f4"/>
                </g>
              </g>
            </g>
            <g id="Group_1101743" data-name="Group 1101743" transform="translate(365.323 129.356)" opacity="0.53">
              <g id="Group_1101742" data-name="Group 1101742">
                <g id="Group_1101741" data-name="Group 1101741" clip-path="url(#clip-path-7)">
                  <path id="Path_875917" data-name="Path 875917" d="M403.638,136.684h-11.5a6.123,6.123,0,0,0-6.123,6.123v11.5a6.123,6.123,0,0,0,6.123,6.123h11.5a6.123,6.123,0,0,0,6.123-6.123v-11.5a6.123,6.123,0,0,0-6.123-6.123" transform="translate(-386.018 -136.684)" fill="#5e60f4"/>
                </g>
              </g>
            </g>
            <g id="Group_1101746" data-name="Group 1101746" transform="translate(404.725 164.908)" opacity="0.53">
              <g id="Group_1101745" data-name="Group 1101745">
                <g id="Group_1101744" data-name="Group 1101744" clip-path="url(#clip-path-6)">
                  <path id="Path_875918" data-name="Path 875918" d="M445.273,174.25h-11.5a6.123,6.123,0,0,0-6.123,6.123v11.5a6.123,6.123,0,0,0,6.123,6.123h11.5a6.123,6.123,0,0,0,6.123-6.123v-11.5a6.123,6.123,0,0,0-6.123-6.123" transform="translate(-427.652 -174.25)" fill="#5e60f4"/>
                </g>
              </g>
            </g>
            <g id="Group_1101749" data-name="Group 1101749" transform="translate(365.323 164.908)" opacity="0.53">
              <g id="Group_1101748" data-name="Group 1101748">
                <g id="Group_1101747" data-name="Group 1101747" clip-path="url(#clip-path-7)">
                  <path id="Path_875919" data-name="Path 875919" d="M403.638,174.25h-11.5a6.123,6.123,0,0,0-6.123,6.123v11.5a6.123,6.123,0,0,0,6.123,6.123h11.5a6.123,6.123,0,0,0,6.123-6.123v-11.5a6.123,6.123,0,0,0-6.123-6.123" transform="translate(-386.018 -174.25)" fill="#5e60f4"/>
                </g>
              </g>
            </g>
            <g id="Group_1101752" data-name="Group 1101752" transform="translate(404.725 200.46)" opacity="0.53">
              <g id="Group_1101751" data-name="Group 1101751">
                <g id="Group_1101750" data-name="Group 1101750" clip-path="url(#clip-path-10)">
                  <path id="Path_875920" data-name="Path 875920" d="M445.273,211.816h-11.5a6.123,6.123,0,0,0-6.123,6.123v11.5a6.123,6.123,0,0,0,6.123,6.123h11.5a6.123,6.123,0,0,0,6.123-6.123v-11.5a6.123,6.123,0,0,0-6.123-6.123" transform="translate(-427.652 -211.816)" fill="#5e60f4"/>
                </g>
              </g>
            </g>
            <g id="Group_1101755" data-name="Group 1101755" transform="translate(365.323 200.46)" opacity="0.53">
              <g id="Group_1101754" data-name="Group 1101754">
                <g id="Group_1101753" data-name="Group 1101753" clip-path="url(#clip-path-11)">
                  <path id="Path_875921" data-name="Path 875921" d="M403.638,211.816h-11.5a6.123,6.123,0,0,0-6.123,6.123v11.5a6.123,6.123,0,0,0,6.123,6.123h11.5a6.123,6.123,0,0,0,6.123-6.123v-11.5a6.123,6.123,0,0,0-6.123-6.123" transform="translate(-386.018 -211.816)" fill="#5e60f4"/>
                </g>
              </g>
            </g>
            <g id="Group_1101758" data-name="Group 1101758" transform="translate(404.725 236.012)" opacity="0.53">
              <g id="Group_1101757" data-name="Group 1101757">
                <g id="Group_1101756" data-name="Group 1101756" clip-path="url(#clip-path-10)">
                  <path id="Path_875922" data-name="Path 875922" d="M445.273,249.382h-11.5a6.123,6.123,0,0,0-6.123,6.123V267a6.123,6.123,0,0,0,6.123,6.123h11.5A6.123,6.123,0,0,0,451.4,267v-11.5a6.123,6.123,0,0,0-6.123-6.123" transform="translate(-427.652 -249.382)" fill="#5e60f4"/>
                </g>
              </g>
            </g>
            <g id="Group_1101761" data-name="Group 1101761" transform="translate(365.323 236.012)" opacity="0.53">
              <g id="Group_1101760" data-name="Group 1101760">
                <g id="Group_1101759" data-name="Group 1101759" clip-path="url(#clip-path-11)">
                  <path id="Path_875923" data-name="Path 875923" d="M403.638,249.382h-11.5a6.123,6.123,0,0,0-6.123,6.123V267a6.123,6.123,0,0,0,6.123,6.123h11.5A6.123,6.123,0,0,0,409.761,267v-11.5a6.123,6.123,0,0,0-6.123-6.123" transform="translate(-386.018 -249.382)" fill="#5e60f4"/>
                </g>
              </g>
            </g>
            <g id="Group_1101764" data-name="Group 1101764" transform="translate(404.725 271.565)" opacity="0.53">
              <g id="Group_1101763" data-name="Group 1101763">
                <g id="Group_1101762" data-name="Group 1101762" clip-path="url(#clip-path-10)">
                  <path id="Path_875924" data-name="Path 875924" d="M445.273,286.948h-11.5a6.123,6.123,0,0,0-6.123,6.123v11.5a6.123,6.123,0,0,0,6.123,6.123h11.5a6.123,6.123,0,0,0,6.123-6.123v-11.5a6.123,6.123,0,0,0-6.123-6.123" transform="translate(-427.652 -286.948)" fill="#5e60f4"/>
                </g>
              </g>
            </g>
            <rect id="Rectangle_404080" data-name="Rectangle 404080" width="69.699" height="34.52" transform="translate(221.441 328.099)" fill="#0c1756"/>
            <path id="Path_875925" data-name="Path 875925" d="M331.337,383.161H201.6a11.732,11.732,0,0,0-11.731,11.731h153.2a11.732,11.732,0,0,0-11.731-11.731" transform="translate(-10.179 -20.541)" fill="#1c2684"/>
          </g>
        </g>
        <g id="Group_1101768" data-name="Group 1101768" transform="translate(38.732 372.893)">
          <g id="Group_1101767" data-name="Group 1101767" clip-path="url(#clip-path-15)">
            <rect id="Rectangle_404082" data-name="Rectangle 404082" width="435.118" height="1.859" transform="translate(0)" fill="url(#linear-gradient)"/>
          </g>
        </g>
        <g id="Group_1101776" data-name="Group 1101776">
          <g id="Group_1101775" data-name="Group 1101775" clip-path="url(#clip-path)">
            <path id="Path_875926" data-name="Path 875926" d="M416.787,194.041a6.875,6.875,0,0,0,2.586-1.366c.066-.049.131-.1.194-.157a16.206,16.206,0,0,1-2.186,3.916c-.166-.384-.348-.759-.538-1.13a5.191,5.191,0,0,0-.056-1.263" transform="translate(-22.344 -10.321)" fill="#1c2684"/>
            <path id="Path_875927" data-name="Path 875927" d="M416.937,193.258l1.7,7.93s-2.368,4.2-5.431,5.016-5.433-2.987-5.433-2.987l.72-4.273,6.244-5.686Z" transform="translate(-21.861 -10.361)" fill="#a55c37"/>
            <path id="Path_875928" data-name="Path 875928" d="M414.739,193.258h2.2l.607,2.823a13.35,13.35,0,0,1-3.036,5.453,7.139,7.139,0,0,1-6.026,2.127,5.353,5.353,0,0,1-.707-.444l.721-4.273Z" transform="translate(-21.861 -10.361)" fill="#8e492b"/>
            <path id="Path_875929" data-name="Path 875929" d="M403.154,182.582c-.709,5.455-.274,15.956,3.662,17.4a9.276,9.276,0,0,0,7.09-1.065,5.841,5.841,0,0,0,2.135-5.411,6.89,6.89,0,0,0,2.586-1.366,3.353,3.353,0,0,0,1.367-2.316,2.326,2.326,0,0,0-1.194-2.31,1.638,1.638,0,0,0-2.185.959,18.9,18.9,0,0,0-.829,2.6l-1.418-.374q-.278-2.731-.807-5.426a4.189,4.189,0,0,0-.651-1.779c-.856-1.116-2.474-1.014-3.8-.726a11.412,11.412,0,0,1-5.951-.191" transform="translate(-21.598 -9.788)" fill="#a55c37"/>
            <path id="Path_875930" data-name="Path 875930" d="M412.648,187.753a1,1,0,0,1-.717.983,2.924,2.924,0,0,1-1.3.047c-.5-.057-1.1-.2-1.233-.684a.86.86,0,0,1,.445-.9,2.387,2.387,0,0,1,1.042-.254,2.712,2.712,0,0,1,1.07.064.983.983,0,0,1,.7.748" transform="translate(-21.947 -10.021)" fill="#1c2684"/>
            <path id="Path_875931" data-name="Path 875931" d="M406.118,188.109c-.319,1.242-3.125.783-2.518-.611.361-.83,2.445-.782,2.542.26a1.027,1.027,0,0,1-.024.351" transform="translate(-21.633 -10.021)" fill="#1c2684"/>
            <path id="Path_875932" data-name="Path 875932" d="M411.273,191.961a.808.808,0,0,1-1.388-.505.808.808,0,1,1,1.388.505" transform="translate(-21.974 -10.218)" fill="#0c1756"/>
            <path id="Path_875933" data-name="Path 875933" d="M406.006,192.273a.808.808,0,0,1-1.388-.505.808.808,0,1,1,1.388.505" transform="translate(-21.692 -10.235)" fill="#0c1756"/>
            <path id="Path_875934" data-name="Path 875934" d="M417.9,192.042a3.307,3.307,0,0,1,.061-1.645,1.139,1.139,0,0,1,1.306-.754,1.092,1.092,0,0,1,.363,1.638,2.255,2.255,0,0,1-1.73.761" transform="translate(-22.4 -10.165)" fill="#8e492b"/>
            <path id="Path_875935" data-name="Path 875935" d="M401.27,182.157a6.564,6.564,0,0,1,.845-4.073c.915-1.465,1.967-1.573,3.533-1.556l6.1.069c1.911.022,3.961.089,5.506,1.278a7.8,7.8,0,0,1,2.511,5.2,17,17,0,0,1-.082,5.142,2.015,2.015,0,0,0-.971-1.02,1.635,1.635,0,0,0-2.184.958,18.637,18.637,0,0,0-.829,2.6l-1.419-.373q-.278-2.733-.806-5.427a4.22,4.22,0,0,0-.651-1.779c-.857-1.116-2.475-1.014-3.805-.726-.5.108-5.97,1.752-5.891.47-.122,1.985.123,2.974,0,4.958a25.684,25.684,0,0,1-1.237-3.139,10.8,10.8,0,0,1-.619-2.581" transform="translate(-21.51 -9.464)" fill="#1c2684"/>
            <path id="Path_875936" data-name="Path 875936" d="M386.652,377.211s.639,5.707,1.248,7.062,4.47,1.771,7.461.546a69.446,69.446,0,0,0,.091-8.632Z" transform="translate(-20.729 -20.168)" fill="#a55c37"/>
            <path id="Path_875937" data-name="Path 875937" d="M417.211,377l1.583,8.964a17.39,17.39,0,0,0,7.041-.823s.5-7.177.175-9.165Z" transform="translate(-22.367 -20.156)" fill="#a55c37"/>
            <path id="Path_875938" data-name="Path 875938" d="M395.755,262.564S377.544,301.036,375.115,309s2.18,48.959,6.165,62.336c0,0,5.216,2.73,15.985.38,0,0,1-44.425-1.884-57.494,0,0,14.95-17.051,16.812-28.213l2.781-20.625Z" transform="translate(-20.074 -14.076)" fill="#0c1756"/>
            <path id="Path_875939" data-name="Path 875939" d="M408.778,264.074s-3.289,20.762-1.549,26.159c0,0,1.963,23.357,2.854,27.458s1.433,46.895,1.827,52.289c0,0,2.809,4.9,15.265,1.381,0,0,7.4-55.676,7.569-71.428.066-5.976,1.854-12.079,2.03-17.024a55.6,55.6,0,0,0-1.853-16.69s-22.495-1.347-26.143-2.145" transform="translate(-21.805 -14.157)" fill="#0c1756"/>
            <path id="Path_875940" data-name="Path 875940" d="M386.8,384.593s4.573,2.15,7.556-.393c2.007-1.711,2.047,5.578,1.839,8.158a1.233,1.233,0,0,1-1.052,1.121,49.863,49.863,0,0,1-9.141.661s-9.135-.158-13.8-.158c-6.911,0-6.059-1.389-6.059-1.389s.46-4.039,7.158-5.2c.57-.1,1.18-.173,1.835-.221a8.59,8.59,0,0,0,4.673-1.811,26.5,26.5,0,0,1,4.563-3.089c1.842-.725,2.425,2.321,2.425,2.321" transform="translate(-19.627 -20.488)" fill="#0c1756"/>
            <path id="Path_875941" data-name="Path 875941" d="M372.03,387.971s1.979,1.953,1.543,6.327c0,0-7.23.567-7.863-1.394,0,0,.961-3.962,6.32-4.933" transform="translate(-19.606 -20.799)" fill="#83a0f0"/>
            <path id="Path_875942" data-name="Path 875942" d="M365.691,393.171s.608,1.817,12.5,1.186,15.861.267,17.964-1.421c0,0,.515,1.693,0,2.238s-12.436.967-16.019,1.084-13.2.644-14.445-1.084a1.707,1.707,0,0,1,0-2" transform="translate(-19.587 -21.066)" fill="#83a0f0"/>
            <path id="Path_875943" data-name="Path 875943" d="M378.51,386.74a6.92,6.92,0,0,1,2.26,1.538.392.392,0,0,0,.294.17c.191.012.47-.066.3-.567-.273-.806-1.942-1.579-1.942-1.579s-.752.048-.913.437" transform="translate(-20.292 -20.71)" fill="#83a0f0"/>
            <path id="Path_875944" data-name="Path 875944" d="M380.588,385.566a6.272,6.272,0,0,1,2.2,1.548.424.424,0,0,0,.324.187c.21.014.517-.073.331-.623-.3-.888-2.137-1.737-2.137-1.737a1.343,1.343,0,0,0-.714.624" transform="translate(-20.404 -20.637)" fill="#83a0f0"/>
            <path id="Path_875945" data-name="Path 875945" d="M382.377,384.232a6.2,6.2,0,0,1,2.165,1.527.42.42,0,0,0,.319.185c.206.014.509-.071.326-.613-.3-.875-2.106-1.713-2.106-1.713a1.326,1.326,0,0,0-.7.615" transform="translate(-20.499 -20.566)" fill="#83a0f0"/>
            <path id="Path_875946" data-name="Path 875946" d="M390.174,393.765l-.2-.066a7.512,7.512,0,0,1,2.9-3.891,7.024,7.024,0,0,1,4.572-1.031.346.346,0,0,1,.28.2.168.168,0,0,1-.049.178L397.54,389a.043.043,0,0,0-.008.041.177.177,0,0,0-.109-.059,6.812,6.812,0,0,0-4.437,1,7.293,7.293,0,0,0-2.813,3.782" transform="translate(-20.907 -20.84)" fill="#83a0f0"/>
            <path id="Path_875947" data-name="Path 875947" d="M390.708,231.612s-1.595,9.884-2.094,12.172c0,0-19.479-.733-25.982,2.662,0,0-.49,4.473,1.652,5.229s22.311,3.652,30.866,2.1c0,0,7.173-12.043,6.691-16.891,0,0,1.165-6.231-11.133-5.273" transform="translate(-19.438 -12.412)" fill="#a55c37"/>
            <path id="Path_875948" data-name="Path 875948" d="M397.577,208.164s-7.856,6.345-6.386,21.562a11.5,11.5,0,0,0,7.434,1.979s3.839-13.359-1.048-23.54" transform="translate(-20.962 -11.16)" fill="#f9cf70"/>
            <path id="Path_875949" data-name="Path 875949" d="M406.089,203.068s7.017,4.641,13.99-3.729a22.354,22.354,0,0,0,3.1,1.405s10.511,3.113,13.317,6.155a56.341,56.341,0,0,1,2.26,16.609c-.335,8.293-.955,34.979-2.762,41.729,0,0-2.4,3.377-11.767,3.343-6.352-.023-15.91-1.615-30.1-6.894,0,0,4.526-15.5,5.728-23.67,0,0-2.473-9.731-1.258-16.127,0,0-2.791-10.192-.86-14.2a50,50,0,0,0,5.728-2.922c1.768-1.192,2.617-1.7,2.617-1.7" transform="translate(-21.13 -10.687)" fill="#f9cf70"/>
            <path id="Path_875950" data-name="Path 875950" d="M433.968,232.945s3.28,5.935,5.435,7.575c0,0-9.753.3-25.21,6.768a7.1,7.1,0,0,1-4.593.163,11.865,11.865,0,0,0-5.176-.421l-2.229.459a.453.453,0,0,0-.167.818,5.559,5.559,0,0,0,2.9,1c2.248.09,2.627.261,2.5.644s-3.875.776-5.2.877-4.49-1.58-5.511-1.621a2.156,2.156,0,0,0-1.589.558s5.159,3,6.865,3.032,6.307,1.071,10.494-.507c0,0,8.8,2.519,21.325.176s16.352-6.208,17.876-7.437c0,0-4.681-17.688-7.119-19.9,0,0-9.319,7.661-10.6,7.822" transform="translate(-21.183 -12.069)" fill="#a55c37"/>
            <path id="Path_875951" data-name="Path 875951" d="M435.831,205.339s-5.9,7.027-5.77,13.015c.165,7.46,6.353,15.028,6.353,15.028s7.5-3.443,11.689-6.846c0,0-4.363-17.976-12.272-21.2" transform="translate(-23.056 -11.008)" fill="#f9cf70"/>
            <path id="Path_875952" data-name="Path 875952" d="M392.407,252.191s7.233,5.466,13.162,4.774a36.675,36.675,0,0,0,10.808-3.122l-2.865-1.319s-7.528,1.821-9.594,1.742-8.933-3.111-8.933-3.111-2.114-.186-2.578,1.036" transform="translate(-21.037 -13.464)" fill="#a55c37"/>
            <path id="Path_875953" data-name="Path 875953" d="M418.639,383.882s.461-1.831,1.978-2.169c2.851-.635,4.175.211,5.062,2.181,0,0,.028.18.281.063a.5.5,0,0,1,.688.28,12.135,12.135,0,0,1,.6,3.414c.124,2.675.357,4.407.357,4.407s-9.479.372-10.551,0c-.783-.272.007-5.354.471-7.377.171-.745.92-.406,1.115-.8" transform="translate(-22.341 -20.453)" fill="#0c1756"/>
            <path id="Path_875954" data-name="Path 875954" d="M416.488,393.368a4.675,4.675,0,0,1,3.806-4.752c3.965-.761,6.94.345,7.627,4.752,0,0-6.362,3.775-11.433,0" transform="translate(-22.328 -20.822)" fill="#83a0f0"/>
            <path id="Path_875955" data-name="Path 875955" d="M416.474,393.65s-.606,2.2.063,2.706c1.419,1.069,9.082,1.724,11.37-.644.46-1.656,0-2.062,0-2.062s-7.023,2.706-11.433,0" transform="translate(-22.314 -21.104)" fill="#83a0f0"/>
            <path id="Path_875956" data-name="Path 875956" d="M419.351,384.708s2.759-1.312,5.069-.322c1.773.759.7,1.381.7,1.381a6.745,6.745,0,0,0-6.264.233s-.441-.691.5-1.292" transform="translate(-22.449 -20.587)" fill="#83a0f0"/>
            <path id="Path_875957" data-name="Path 875957" d="M419.351,386.6s2.759-1.312,5.069-.322c1.773.759.7,1.381.7,1.381a6.745,6.745,0,0,0-6.264.233s-.441-.691.5-1.292" transform="translate(-22.449 -20.689)" fill="#83a0f0"/>
            <g id="Group_1101771" data-name="Group 1101771" transform="translate(367.958 252.862)" opacity="0.7">
              <g id="Group_1101770" data-name="Group 1101770">
                <g id="Group_1101769" data-name="Group 1101769" clip-path="url(#clip-path-17)">
                  <path id="Path_875958" data-name="Path 875958" d="M407.794,291.945a10.967,10.967,0,0,1-2.275-3.591,9.468,9.468,0,0,1-.336-2.73,33.484,33.484,0,0,1,2.307-12.5c.072-.183.146-.365.22-.548a13.32,13.32,0,0,0,.892-2.774l.244.041a13.512,13.512,0,0,1-.907,2.827q-.111.273-.219.545a33.224,33.224,0,0,0-2.29,12.408,9.253,9.253,0,0,0,.325,2.658,10.785,10.785,0,0,0,2.229,3.505Z" transform="translate(-389.68 -267.326)" fill="#83a0f0"/>
                  <path id="Path_875959" data-name="Path 875959" d="M407.983,299.908c-1.8-5.311,4.867-27.951,5.152-28.911l.238.07c-.07.235-6.928,23.524-5.155,28.762Z" transform="translate(-389.814 -267.39)" fill="#83a0f0"/>
                  <path id="Path_875960" data-name="Path 875960" d="M434.477,285.641c-9.382-4.537-6.807-13.09-6.781-13.177l.237.075a10.843,10.843,0,0,0-.158,4.76c.457,2.422,2.01,5.8,6.81,8.118Z" transform="translate(-390.869 -267.469)" fill="#83a0f0"/>
                  <path id="Path_875961" data-name="Path 875961" d="M391.056,274.951l-.079-.235c3.523-1.183,8.325-7.467,8.374-7.53l.2.15c-.2.261-4.9,6.408-8.493,7.615" transform="translate(-388.919 -267.186)" fill="#83a0f0"/>
                  <path id="Path_875962" data-name="Path 875962" d="M392.691,374.2l-.246-.027c.89-7.846-3.151-56.219-3.632-59.71-.494-3.576,17.353-20.714,18.113-21.441l.171.18c-.185.177-18.515,17.775-18.038,21.228.482,3.493,4.524,51.913,3.632,59.771" transform="translate(-388.802 -268.571)" fill="#83a0f0"/>
                  <path id="Path_875963" data-name="Path 875963" d="M426.74,372.19l-.247-.023c.052-.578,5.27-57.9,6.445-67.5s2.058-33,2.067-33.232l.248.008c-.009.236-.893,23.65-2.069,33.253s-6.392,66.917-6.444,67.5" transform="translate(-390.823 -267.414)" fill="#83a0f0"/>
                </g>
              </g>
            </g>
            <path id="Path_875964" data-name="Path 875964" d="M390.792,377.248a44.926,44.926,0,0,1-9.577-1.174l.051-.2c.105.027,10.54,2.615,16.355.006l.085.189a17.383,17.383,0,0,1-6.913,1.18" transform="translate(-20.437 -20.151)" fill="#83a0f0"/>
            <path id="Path_875965" data-name="Path 875965" d="M420.213,376.721a12.226,12.226,0,0,1-8.194-2.871l.146-.146c.057.056,5.718,5.535,15.473,1.04l.087.188a17.881,17.881,0,0,1-7.512,1.789" transform="translate(-22.089 -20.034)" fill="#83a0f0"/>
            <path id="Path_875966" data-name="Path 875966" d="M431.652,207.34s-7.947,11.537,2.622,23.194c0,0-8.152-9.286-2.622-23.194" transform="translate(-22.987 -11.116)" fill="#e5b961"/>
            <path id="Path_875967" data-name="Path 875967" d="M397.823,209.418s-3.592,14.154,1.1,22.354c0,0-2.335-7.758-1.1-22.354" transform="translate(-21.257 -11.227)" fill="#e5b961"/>
            <path id="Path_875968" data-name="Path 875968" d="M351.162,253.133h42.111v-3.054H349.481v1.373a1.681,1.681,0,0,0,1.681,1.681" transform="translate(-18.736 -13.407)" fill="#1c2684"/>
            <path id="Path_875969" data-name="Path 875969" d="M393.959,253.133h21.389a1.68,1.68,0,0,0,1.68-1.681v-1.373H391.8v.892a2.162,2.162,0,0,0,2.162,2.162" transform="translate(-21.004 -13.407)" fill="#1c2684"/>
            <path id="Path_875970" data-name="Path 875970" d="M382.762,219.451H345.023a1.309,1.309,0,0,0-1.077,1.66l5.272,27.326h40.01l-5.391-27.945a1.178,1.178,0,0,0-1.077-1.041" transform="translate(-18.438 -11.765)" fill="#1c2684"/>
            <path id="Path_875971" data-name="Path 875971" d="M363.926,235.2a2.972,2.972,0,1,0,2.972-2.972,2.972,2.972,0,0,0-2.972,2.972" transform="translate(-19.51 -12.45)" fill="#f9cf70"/>
            <path id="Path_875972" data-name="Path 875972" d="M351.657,250.231c.651.105,2.008.138,2.045-.941.03-.9-.9-1.516-2.012-1.845.489-.066,1.526-.062,1.725-.854.3-1.183-1.023-1.54-2.315-1.81.512-.055,1.595-.243,1.7-.971.253-1.723-5.678-1.406-5.678-1.406-.965,0-1.379,1.244-1.07,2.061a1.909,1.909,0,0,0,0,2.249c-.711.719-.567,2.413-.041,2.658a1.414,1.414,0,0,0-.426,1.268c-.007,1.268,2.079,1.351,2.079,1.351s3.957.806,5.3.407c.929-.275.633-2.013-1.309-2.167" transform="translate(-18.526 -12.994)" fill="#a55c37"/>
            <path id="Path_875973" data-name="Path 875973" d="M408.712,195.413a.175.175,0,0,0,.085-.327,2.477,2.477,0,0,0-.864-.193c-.328-.037-.777-.088-.852-.231-.088-.166.059-.371.274-.644.035-.044.069-.087.1-.13.738-.976.223-2.6-.153-3.792-.058-.185-.113-.357-.157-.513a.175.175,0,0,0-.336.1c.045.158.1.333.16.521.353,1.116.837,2.644.208,3.477l-.1.123c-.227.286-.511.643-.31,1.023.161.307.627.36,1.121.415a2.35,2.35,0,0,1,.732.15.178.178,0,0,0,.087.023" transform="translate(-21.804 -10.157)" fill="#0c1756"/>
            <path id="Path_875974" data-name="Path 875974" d="M412.749,196.042a8.978,8.978,0,0,1-5.552,1.017,3.636,3.636,0,0,1,.67.994,3.3,3.3,0,0,0,.74,1.2,1.539,1.539,0,0,0,1.355.2,2.983,2.983,0,0,0,1.179-.744,6.256,6.256,0,0,0,1.607-2.66" transform="translate(-21.83 -10.51)" fill="#e9f2ff"/>
            <path id="Path_875975" data-name="Path 875975" d="M412.749,196.042a5.508,5.508,0,0,1-.2.567,8.238,8.238,0,0,1-3.535,1.343,6.274,6.274,0,0,1-1.17.051,3.48,3.48,0,0,0-.644-.944,8.978,8.978,0,0,0,5.552-1.017" transform="translate(-21.83 -10.51)" fill="#e7e6e8"/>
            <path id="Path_875976" data-name="Path 875976" d="M286.944,154.282c-55.241-1.1-83.555-25.366-83.561-25.372s-28.313,24.268-83.561,25.372c-.243,27.807,1.209,56.786,8.2,83.744,10.828,41.736,40.53,57.946,75.36,69.957,34.831-12.011,64.533-28.221,75.36-69.957,6.994-26.958,8.446-55.937,8.2-83.744" transform="translate(-6.422 -6.911)" fill="#fff"/>
            <path id="Path_875977" data-name="Path 875977" d="M282.416,158.26c-52.069-1.04-78.756-23.911-78.759-23.914S176.969,157.22,124.9,158.26c-.231,26.209,1.138,53.523,7.729,78.932,10.2,39.339,38.2,54.617,71.03,65.938,32.829-11.321,60.824-26.6,71.029-65.938,6.592-25.409,7.96-52.722,7.73-78.932" transform="translate(-6.695 -7.202)" fill="#f9cf70"/>
            <path id="Path_875978" data-name="Path 875978" d="M279.925,164.022c-47.473-.948-71.8-21.8-71.807-21.8V296.1c29.931-10.321,55.456-24.252,64.76-60.118,6.01-23.166,7.258-48.068,7.048-71.963" transform="translate(-11.157 -7.624)" fill="#e5b961"/>
            <g id="Group_1101774" data-name="Group 1101774" transform="translate(217.785 215.044)" opacity="0.1">
              <g id="Group_1101773" data-name="Group 1101773">
                <g id="Group_1101772" data-name="Group 1101772" clip-path="url(#clip-path-18)">
                  <path id="Path_875979" data-name="Path 875979" d="M332.475,252.205H242.611a12.489,12.489,0,1,1,0-24.978h89.863a12.489,12.489,0,1,1,0,24.978" transform="translate(-230.122 -227.226)"/>
                </g>
              </g>
            </g>
          </g>
        </g>
        <g id="Group_1101778" data-name="Group 1101778" transform="translate(214.564 211.825)">
          <g id="Group_1101777" data-name="Group 1101777" clip-path="url(#clip-path-19)">
            <rect id="Rectangle_404087" data-name="Rectangle 404087" width="114.842" height="24.977" fill="url(#linear-gradient-2)"/>
          </g>
        </g>
        <g id="Group_1101780" data-name="Group 1101780">
          <g id="Group_1101779" data-name="Group 1101779" clip-path="url(#clip-path)">
            <path id="Path_875981" data-name="Path 875981" d="M264,232.142l-3.2,3.759.031.09,4.705-.947v2.99L260.8,237.2l-.028.089L264,240.934l-2.635,1.539-1.687-4.588-.06.029-1.717,4.559-2.548-1.539,3.169-3.7v-.061l-4.65.859v-2.99l4.59.917.028-.06-3.138-3.731,2.637-1.509,1.656,4.529h.061l1.687-4.529Z" transform="translate(-13.61 -12.366)" fill="#f9cf70"/>
            <path id="Path_875982" data-name="Path 875982" d="M278.208,232.142l-3.2,3.759.031.09,4.705-.947v2.99l-4.737-.829-.028.089,3.227,3.641-2.635,1.539-1.687-4.588-.06.029-1.717,4.559-2.545-1.539,3.167-3.7v-.061l-4.65.859v-2.99l4.589.917.029-.06-3.135-3.731,2.634-1.509,1.656,4.529h.061l1.687-4.529Z" transform="translate(-14.372 -12.366)" fill="#f9cf70"/>
            <path id="Path_875983" data-name="Path 875983" d="M292.415,232.142l-3.2,3.759.031.09,4.705-.947v2.99l-4.737-.829-.028.089,3.227,3.641-2.635,1.539-1.687-4.588-.061.029-1.716,4.559-2.545-1.539,3.167-3.7v-.061l-4.65.859v-2.99l4.589.917.029-.06-3.135-3.731,2.634-1.509,1.656,4.529h.061l1.687-4.529Z" transform="translate(-15.134 -12.366)" fill="#f9cf70"/>
            <path id="Path_875984" data-name="Path 875984" d="M306.625,232.142l-3.2,3.759.031.09,4.705-.947v2.99l-4.737-.829-.028.089,3.227,3.641-2.635,1.539-1.687-4.588-.06.029-1.717,4.559-2.548-1.539,3.169-3.7v-.061l-4.65.859v-2.99l4.589.917.029-.06-3.138-3.731,2.637-1.509,1.656,4.529h.061l1.687-4.529Z" transform="translate(-15.895 -12.366)" fill="#f9cf70"/>
            <path id="Path_875985" data-name="Path 875985" d="M320.835,232.142l-3.2,3.759.031.09,4.705-.947v2.99l-4.737-.829-.028.089,3.227,3.641-2.635,1.539-1.687-4.588-.06.029-1.717,4.559-2.546-1.539,3.168-3.7v-.061l-4.65.859v-2.99l4.59.917.028-.06-3.136-3.731,2.635-1.509,1.656,4.529h.061l1.687-4.529Z" transform="translate(-16.657 -12.366)" fill="#f9cf70"/>
            <path id="Path_875986" data-name="Path 875986" d="M335.042,232.142l-3.2,3.759.031.09,4.705-.947v2.99l-4.737-.829-.029.089,3.228,3.641-2.635,1.539-1.687-4.588-.06.029-1.717,4.559-2.546-1.539,3.168-3.7v-.061l-4.65.859v-2.99l4.589.917.029-.06-3.136-3.731,2.635-1.509,1.656,4.529h.06l1.688-4.529Z" transform="translate(-17.419 -12.366)" fill="#f9cf70"/>
            <path id="Path_875987" data-name="Path 875987" d="M208.246,252.109H205.6a7.187,7.187,0,0,1-7.188-7.187V225.4a7.187,7.187,0,0,1,7.188-7.187h2.649a7.187,7.187,0,0,1,7.187,7.187v19.518a7.187,7.187,0,0,1-7.187,7.187" transform="translate(-10.637 -11.699)" fill="#83a0f0"/>
            <path id="Path_875988" data-name="Path 875988" d="M188.531,219.779V202.6a17.6,17.6,0,0,1,35.2,0v17.181H232.4V202.6a26.272,26.272,0,0,0-52.544,0v17.181Z" transform="translate(-9.642 -9.453)" fill="#fff"/>
            <path id="Path_875989" data-name="Path 875989" d="M242.024,210.262H207.439v9.251a6.21,6.21,0,0,1,2.133,12.028l2.958,14.4a1.208,1.208,0,0,1-1.031,1.531h-4.061v10.108h34.585a1.583,1.583,0,0,0,1.583-1.583V211.845a1.583,1.583,0,0,0-1.583-1.583" transform="translate(-11.121 -11.272)" fill="#0c1756"/>
            <path id="Path_875990" data-name="Path 875990" d="M205.331,247.469h-4.1a1.208,1.208,0,0,1-1.026-1.531l2.945-14.394a6.224,6.224,0,0,1,1.009-11.946,6.387,6.387,0,0,1,1.227-.085v-9.251H170.734a1.583,1.583,0,0,0-1.583,1.583v44.149a1.583,1.583,0,0,0,1.583,1.583h34.652V247.469Z" transform="translate(-9.068 -11.272)" fill="#1c2684"/>
            <path id="Path_875991" data-name="Path 875991" d="M198.132,223.76v-.009H141.967a19.243,19.243,0,0,0-38.086,3.9c0,.133.008.262.01.393H111.6c0-.131-.02-.259-.02-.393a11.545,11.545,0,0,1,23.091,0c0,.133-.016.262-.02.393H202.03c.007-.1.028-.188.028-.287a4.005,4.005,0,0,0-3.927-4" transform="translate(-5.569 -11.173)" fill="#5e60f4"/>
            <path id="Path_875992" data-name="Path 875992" d="M198.133,229.16H134.65a11.532,11.532,0,0,1-23.051,0h-7.706a19.238,19.238,0,0,0,38.025,3.731h40.666v8.857a2.732,2.732,0,1,0,5.464-.01v-8.847h2.193v3.461a2.822,2.822,0,0,0,2.822,2.822,2.643,2.643,0,0,0,2.643-2.642v-3.641h2.427v-.016a4,4,0,0,0,3.9-3.715Z" transform="translate(-5.57 -12.285)" fill="#5258db"/>
            <path id="Path_875993" data-name="Path 875993" d="M123.462,141.06H44.426a3.26,3.26,0,0,1-2.916-4.718L81.028,57.306a3.261,3.261,0,0,1,5.833,0l39.517,79.037a3.26,3.26,0,0,1-2.916,4.718" transform="translate(-2.207 -2.976)" fill="#0c1756"/>
            <line id="Line_3257" data-name="Line 3257" y1="23.309" transform="translate(81.737 87.242)" fill="none" stroke="#fff" stroke-linecap="round" stroke-linejoin="round" stroke-width="10"/>
            <path id="Path_875994" data-name="Path 875994" d="M89.569,128.749a3.394,3.394,0,1,1-3.395-3.395,3.395,3.395,0,0,1,3.395,3.395" transform="translate(-4.438 -6.72)" fill="#fff"/>
            <path id="Path_875995" data-name="Path 875995" d="M370.1,88.105H288.947a5.314,5.314,0,0,1-5.314-5.314V69.182a5.314,5.314,0,0,1,5.314-5.314H370.1a5.314,5.314,0,0,1,5.314,5.314V82.791a5.314,5.314,0,0,1-5.314,5.314" transform="translate(-15.206 -3.424)" fill="#f9cf70"/>
            <path id="Path_875996" data-name="Path 875996" d="M374.532,64.9a10.16,10.16,0,1,0-5.813,14.97l6.3,10.485a2.532,2.532,0,1,0,4.341-2.608l-6.3-10.484A10.163,10.163,0,0,0,374.532,64.9m-6.479,10.361a5.594,5.594,0,1,1,2.153-8.606,5.6,5.6,0,0,1-2.153,8.606" transform="translate(-19.067 -3.215)" fill="#0b315e"/>
            <path id="Path_875997" data-name="Path 875997" d="M287.476,73.84a10.571,10.571,0,1,1,10.571-10.572A10.584,10.584,0,0,1,287.476,73.84m0-20.365a9.794,9.794,0,1,0,9.793,9.793,9.805,9.805,0,0,0-9.793-9.793" transform="translate(-14.845 -2.825)" fill="#0b315e"/>
            <path id="Path_875998" data-name="Path 875998" d="M287.764,73.84c-3.082,0-5.5-4.644-5.5-10.572s2.414-10.57,5.5-10.57,5.5,4.643,5.5,10.57-2.414,10.572-5.5,10.572m0-20.365c-2.559,0-4.72,4.485-4.72,9.793s2.161,9.794,4.72,9.794,4.719-4.485,4.719-9.794-2.161-9.793-4.719-9.793" transform="translate(-15.133 -2.825)" fill="#0b315e"/>
            <rect id="Rectangle_404088" data-name="Rectangle 404088" width="20.365" height="0.777" transform="translate(262.448 60.055)" fill="#0b315e"/>
            <path id="Path_875999" data-name="Path 875999" d="M287.659,59.118c-5.253,0-9.069-.362-9.127-.368l.076-.773a108.448,108.448,0,0,0,17.714,0l.07.774c-3.076.275-6.087.367-8.732.367" transform="translate(-14.932 -3.108)" fill="#0b315e"/>
            <path id="Path_876000" data-name="Path 876000" d="M296.321,69.471a108.577,108.577,0,0,0-17.715,0l-.074-.774a109.581,109.581,0,0,1,17.858,0Z" transform="translate(-14.932 -3.663)" fill="#0b315e"/>
            <path id="Path_876001" data-name="Path 876001" d="M320.309,73.356l-2.492,7.617h-1.893l-1.676-5.158-1.73,5.158h-1.882l-2.5-7.617h1.828l1.72,5.354,1.794-5.354h1.633l1.74,5.4,1.774-5.4Z" transform="translate(-16.519 -3.933)" fill="#0b315e"/>
            <path id="Path_876002" data-name="Path 876002" d="M333.681,73.356l-2.492,7.617H329.3l-1.676-5.158-1.73,5.158h-1.882l-2.5-7.617h1.828l1.72,5.354,1.794-5.354h1.633l1.74,5.4,1.774-5.4Z" transform="translate(-17.236 -3.933)" fill="#0b315e"/>
            <path id="Path_876003" data-name="Path 876003" d="M347.054,73.356l-2.492,7.617h-1.893l-1.676-5.158-1.73,5.158H337.38l-2.5-7.617h1.828l1.72,5.354,1.794-5.354h1.633l1.74,5.4,1.774-5.4Z" transform="translate(-17.953 -3.933)" fill="#0b315e"/>
          </g>
        </g>
      </g>
    </g>
  </g>
</svg>
