<svg xmlns="http://www.w3.org/2000/svg" xmlns:xlink="http://www.w3.org/1999/xlink" width="123" height="123" viewBox="0 0 123 123">
  <defs>
    <clipPath id="clip-path">
      <rect id="Rectangle_403416" data-name="Rectangle 403416" width="121.687" height="91.902" fill="#d1f3f5"/>
    </clipPath>
    <clipPath id="clip-path-2">
      <path id="Path_875268" data-name="Path 875268" d="M1.868,23.675,0,24.271V36.6c0,2.356,1.37,4.712,4.109,6.507l46.8,30.644c5.479,3.587,14.394,3.587,19.874,0l46.8-30.643c2.7-1.765,4.064-4.075,4.108-6.393,0-.1,0-.206-.006-.309l.008,0V24.386l-2.933-1.849c-.828,5.676-6.718,9.416-11.642,10.194L73.581,54.97,58.946,60.964,12.235,33.623l1.08-.708c-3.991-2.116-6.143-6.953-8.3-11.367Z" transform="translate(0 -21.549)" fill="#61dfe4"/>
    </clipPath>
    <clipPath id="clip-path-3">
      <rect id="Rectangle_403409" data-name="Rectangle 403409" width="121.687" height="91.903" fill="none"/>
    </clipPath>
    <clipPath id="clip-path-4">
      <rect id="Rectangle_403408" data-name="Rectangle 403408" width="60.844" height="53.75" fill="none"/>
    </clipPath>
    <clipPath id="clip-path-5">
      <path id="Path_875270" data-name="Path 875270" d="M42.339,9.4,3.311,35.8c2.159,4.413,4.311,9.251,8.3,11.367L55.958,18.128a6.31,6.31,0,0,1,6.364,0L105.894,46.66l-.483.323c4.924-.778,10.813-4.518,11.642-10.194L68.153,5.942,53.925,1.678Z" transform="translate(-3.311 -1.678)" fill="#61dfe4"/>
    </clipPath>
    <clipPath id="clip-path-7">
      <rect id="Rectangle_403411" data-name="Rectangle 403411" width="55.83" height="45.491" fill="none"/>
    </clipPath>
    <clipPath id="clip-path-8">
      <path id="Path_875272" data-name="Path 875272" d="M57.662,72.571l-46.8-30.644a2.309,2.309,0,0,1,0-4.17L57.66,7.115a6.306,6.306,0,0,1,6.364,0l46.8,30.644a2.308,2.308,0,0,1,0,4.168L64.025,72.57a6.308,6.308,0,0,1-6.364,0M60.664,0A18.357,18.357,0,0,0,50.9,2.691L4.109,33.335c-5.478,3.587-5.478,9.426,0,13.013l46.8,30.644c5.479,3.589,14.394,3.589,19.874,0l46.8-30.644c5.478-3.586,5.478-9.426,0-13.013L70.779,2.691A18.357,18.357,0,0,0,61.02,0Z" transform="translate(-0.001)" fill="#98baff"/>
    </clipPath>
    <clipPath id="clip-path-10">
      <path id="Path_875275" data-name="Path 875275" d="M55.706,72.924,8.909,42.282c-2.483-1.628-2.483-4.274,0-5.9L55.7,5.738a8.927,8.927,0,0,1,9.009,0l46.8,30.644c2.483,1.626,2.483,4.273,0,5.9l-46.8,30.643a8.927,8.927,0,0,1-9.007,0M51.592,3.046,4.8,33.689C.046,36.8.047,41.863,4.8,44.973L51.6,75.619c4.75,3.108,12.479,3.108,17.232,0l46.8-30.646c4.75-3.108,4.75-8.171,0-11.282L68.824,3.046a17.071,17.071,0,0,0-17.232,0" transform="translate(-1.234 -0.712)" fill="#98baff"/>
    </clipPath>
    <clipPath id="clip-path-11">
      <rect id="Rectángulo_47325" data-name="Rectángulo 47325" width="65.588" height="70.277" fill="#0c2d70"/>
    </clipPath>
    <clipPath id="clip-path-12">
      <rect id="Rectangle_403406" data-name="Rectangle 403406" width="41.824" height="24.245" fill="#fff"/>
    </clipPath>
    <clipPath id="clip-path-13">
      <rect id="Rectangle_403518" data-name="Rectangle 403518" width="102.859" height="104.692" fill="#fff"/>
    </clipPath>
    <clipPath id="clip-path-14">
      <rect id="Rectangle_403232" data-name="Rectangle 403232" width="123" height="80.836" fill="#61dfe4"/>
    </clipPath>
    <clipPath id="clip-path-15">
      <rect id="Rectangle_404112" data-name="Rectangle 404112" width="65.421" height="65.214" fill="#0c2d70"/>
    </clipPath>
  </defs>
  <g id="img17" transform="translate(3215.571 7347.81)">
    <g id="img17-2" data-name="img17" transform="translate(-3215.571 -7347.81)">
      <g id="Group_1100744" data-name="Group 1100744" transform="translate(0.004 31.098)">
        <g id="Group_1100514" data-name="Group 1100514" clip-path="url(#clip-path)">
          <g id="Group_1100495" data-name="Group 1100495" transform="translate(0 37.005)">
            <g id="Group_1100494" data-name="Group 1100494" clip-path="url(#clip-path-2)">
              <path id="Path_875399" data-name="Path 875399" d="M7.554,6.012,121.412,0l-7.554,134.342L0,140.354Z" transform="translate(-30.284 45.381) rotate(-60)" fill="#61dfe4"/>
            </g>
          </g>
          <g id="Group_1100500" data-name="Group 1100500" transform="translate(0 0)">
            <g id="Group_1100499" data-name="Group 1100499" clip-path="url(#clip-path-3)">
              <g id="Group_1100498" data-name="Group 1100498" transform="translate(60.843 38.152)" opacity="0.3">
                <g id="Group_1100497" data-name="Group 1100497">
                  <g id="Group_1100496" data-name="Group 1100496" clip-path="url(#clip-path-4)">
                    <path id="Path_875269" data-name="Path 875269" d="M86.455,32.25,52.923,54.49,40.185,59.707V75.968a18.428,18.428,0,0,0,9.938-2.691l46.8-30.644c2.7-1.765,4.064-4.073,4.108-6.392,0-.1,0-.208-.006-.311l.008,0V23.908l-2.681-1.692h-.28c-.914,5.586-6.736,9.263-11.613,10.034" transform="translate(-40.185 -22.217)" fill="#0f054c"/>
                  </g>
                </g>
              </g>
            </g>
          </g>
          <g id="Group_1100502" data-name="Group 1100502" transform="translate(5.013 2.882)">
            <g id="Group_1100501" data-name="Group 1100501" clip-path="url(#clip-path-5)">
              <path id="Path_875400" data-name="Path 875400" d="M6.89,5.324,107.716,0l-6.89,122.535L0,127.859Z" transform="matrix(0.5, -0.866, 0.866, 0.5, -25.423, 37.422)" fill="#61dfe4"/>
            </g>
          </g>
          <g id="Group_1100507" data-name="Group 1100507" transform="translate(0 0)">
            <g id="Group_1100506" data-name="Group 1100506" clip-path="url(#clip-path-3)">
              <g id="Group_1100505" data-name="Group 1100505" transform="translate(5.013 2.881)" opacity="0.3">
                <g id="Group_1100504" data-name="Group 1100504">
                  <g id="Group_1100503" data-name="Group 1100503" clip-path="url(#clip-path-7)">
                    <path id="Path_875271" data-name="Path 875271" d="M59.141,3.241,53.925,1.677,42.339,9.4,3.311,35.8c2.159,4.413,4.309,9.253,8.3,11.368L55.958,18.128a5.908,5.908,0,0,1,3.183-.86Z" transform="translate(-3.311 -1.678)" fill="#0f054c"/>
                  </g>
                </g>
              </g>
            </g>
          </g>
          <g id="Group_1100509" data-name="Group 1100509" transform="translate(0.001)">
            <g id="Group_1100508" data-name="Group 1100508" clip-path="url(#clip-path-8)">
              <rect id="Rectangle_403413" data-name="Rectangle 403413" width="124.425" height="80.582" transform="translate(-1.369 0)" fill="#98baff"/>
            </g>
          </g>
          <g id="Group_1100511" data-name="Group 1100511" transform="translate(0 0)">
            <g id="Group_1100510" data-name="Group 1100510" clip-path="url(#clip-path-3)">
              <path id="Path_875273" data-name="Path 875273" d="M107.579,35.147,60.782,4.5a6.306,6.306,0,0,0-6.364,0L7.621,35.146a2.323,2.323,0,0,0-1.164,2.833,2.931,2.931,0,0,1,1.164-1.334L54.418,6a6.306,6.306,0,0,1,6.364,0l46.8,30.644a2.935,2.935,0,0,1,1.164,1.336,2.322,2.322,0,0,0-1.164-2.833" transform="translate(3.244 2.612)" fill="#fff"/>
              <path id="Path_875274" data-name="Path 875274" d="M117.577,29.4,70.78,60.039c-5.479,3.589-14.394,3.589-19.874,0L4.109,29.395A8.3,8.3,0,0,1,.049,23.637c-.321,2.6,1.03,5.272,4.061,7.257l46.8,30.644c5.479,3.587,14.394,3.587,19.874,0l46.8-30.644c3.03-1.983,4.38-4.655,4.059-7.255a8.3,8.3,0,0,1-4.059,5.758" transform="translate(0.001 16.954)" fill="#fff"/>
            </g>
          </g>
          <g id="Group_1100513" data-name="Group 1100513" transform="translate(1.868 1.223)">
            <g id="Group_1100512" data-name="Group 1100512" clip-path="url(#clip-path-10)">
              <rect id="Rectangle_403415" data-name="Rectangle 403415" width="120.326" height="78.015" transform="translate(-1.188 0)" fill="#98baff"/>
            </g>
          </g>
        </g>
      </g>
      <g id="Group_1100746" data-name="Group 1100746" transform="translate(24.709 10.596)">
        <g id="Group_1099618" data-name="Group 1099618" transform="translate(0 0)">
          <rect id="Rectangle_401104" data-name="Rectangle 401104" width="70.823" height="71.676" fill="none"/>
        </g>
        <g id="Grupo_156261" data-name="Grupo 156261" transform="translate(1.419 0.419)">
          <rect id="Rectángulo_47312" data-name="Rectángulo 47312" width="9.366" height="4.683" transform="translate(5.878 22.272)" fill="#0c2d70"/>
          <path id="Trazado_198297" data-name="Trazado 198297" d="M10.008,59.838h9.36l-4.683,5.853Z" transform="translate(-4.128 -24.68)" fill="#0c2d70"/>
          <g id="Grupo_156260" data-name="Grupo 156260" transform="translate(0 0)">
            <g id="Grupo_156259" data-name="Grupo 156259" clip-path="url(#clip-path-11)">
              <path id="Trazado_198298" data-name="Trazado 198298" d="M25.947,73.186a9.36,9.36,0,1,0,9.361-9.36,9.36,9.36,0,0,0-9.361,9.36m9.363,7.025a6.983,6.983,0,0,1-3.41-.887l3.974-4.967h6.356A7.029,7.029,0,0,1,35.31,80.21Zm6.925-8.2H36.484V66.268a7.035,7.035,0,0,1,5.749,5.748Zm-8.09-5.748v6.507l-4.063,5.08a7.008,7.008,0,0,1,4.063-11.589" transform="translate(-10.702 -26.324)" fill="#0c2d70"/>
              <rect id="Rectángulo_47313" data-name="Rectángulo 47313" width="2.342" height="2.342" transform="translate(15.245 58.566)" fill="#0c2d70"/>
              <rect id="Rectángulo_47314" data-name="Rectángulo 47314" width="14.049" height="2.342" transform="translate(19.929 58.566)" fill="#0c2d70"/>
              <rect id="Rectángulo_47315" data-name="Rectángulo 47315" width="18.732" height="2.342" transform="translate(15.245 63.25)" fill="#0c2d70"/>
              <rect id="Rectángulo_47316" data-name="Rectángulo 47316" width="2.342" height="2.342" transform="translate(41.002 58.566)" fill="#0c2d70"/>
              <rect id="Rectángulo_47317" data-name="Rectángulo 47317" width="14.049" height="2.342" transform="translate(45.686 58.566)" fill="#0c2d70"/>
              <rect id="Rectángulo_47318" data-name="Rectángulo 47318" width="18.732" height="2.342" transform="translate(41.002 63.25)" fill="#0c2d70"/>
              <rect id="Rectángulo_47319" data-name="Rectángulo 47319" width="2.342" height="2.342" transform="translate(43.343 11.733)" fill="#0c2d70"/>
              <rect id="Rectángulo_47320" data-name="Rectángulo 47320" width="11.708" height="2.342" transform="translate(48.027 11.733)" fill="#0c2d70"/>
              <rect id="Rectángulo_47321" data-name="Rectángulo 47321" width="16.391" height="2.342" transform="translate(43.343 16.416)" fill="#0c2d70"/>
              <rect id="Rectángulo_47322" data-name="Rectángulo 47322" width="2.342" height="2.342" transform="translate(43.343 24.612)" fill="#0c2d70"/>
              <rect id="Rectángulo_47323" data-name="Rectángulo 47323" width="11.708" height="2.342" transform="translate(48.027 24.612)" fill="#0c2d70"/>
              <rect id="Rectángulo_47324" data-name="Rectángulo 47324" width="16.391" height="2.342" transform="translate(43.343 29.295)" fill="#0c2d70"/>
              <path id="Trazado_198299" data-name="Trazado 198299" d="M72.951,82.552H87a1.17,1.17,0,0,0,1.17-1.171V72.02A1.17,1.17,0,0,0,87,70.849H83.489V65a1.17,1.17,0,0,0-1.17-1.171H77.635A1.17,1.17,0,0,0,76.464,65v3.509H72.952a1.17,1.17,0,0,0-1.17,1.171V81.389a1.17,1.17,0,0,0,1.169,1.164M85.83,80.218H83.489V73.19H85.83ZM78.808,66.167h2.342V80.218H78.808ZM74.125,70.85h2.341v9.36H74.124Z" transform="translate(-29.607 -26.324)" fill="#0c2d70"/>
              <path id="Trazado_198300" data-name="Trazado 198300" d="M43.061,27.348H57.111a1.17,1.17,0,0,0,1.17-1.17V19.152a1.17,1.17,0,0,0-1.17-1.17H43.061a1.17,1.17,0,0,0-1.171,1.17v7.025a1.17,1.17,0,0,0,1.169,1.171Zm1.17-7.026H55.944v4.685H44.232Z" transform="translate(-17.278 -7.416)" fill="#0c2d70"/>
              <path id="Trazado_198301" data-name="Trazado 198301" d="M43.061,49.272H57.111a1.17,1.17,0,0,0,1.17-1.17V41.078a1.17,1.17,0,0,0-1.17-1.171H43.061a1.17,1.17,0,0,0-1.171,1.171V48.1a1.17,1.17,0,0,0,1.171,1.17m1.17-7.024H55.944v4.683H44.232Z" transform="translate(-17.278 -16.459)" fill="#0c2d70"/>
              <path id="Trazado_198302" data-name="Trazado 198302" d="M4.705,19.321V35.152a1.172,1.172,0,0,0,.256.732l4.426,5.535V69.107a1.171,1.171,0,0,0,1.171,1.17H64.417a1.17,1.17,0,0,0,1.17-1.17V5.882a1.17,1.17,0,0,0-1.17-1.171h-45.1A10.538,10.538,0,1,0,4.705,19.321m9.361,6.469H7.052V23.445H14.07Zm-3.5,13.347L8.315,36.324h4.5ZM7.051,28.131H9.392v5.854H7.051Zm7.026,5.854H11.734V28.131h2.342ZM63.249,7.055V67.937H11.734V41.42l4.426-5.533a1.172,1.172,0,0,0,.256-.732V19.321A10.476,10.476,0,0,0,20.485,7.055ZM10.564,2.37a8.2,8.2,0,0,1,4.1,15.286,1.17,1.17,0,0,0-.587,1.013v2.437H11.734V14.566L14.9,11.394,13.249,9.738l-2.686,2.685L7.878,9.738,6.223,11.393l3.169,3.17V21.1H7.051V18.667a1.168,1.168,0,0,0-.586-1.013,8.2,8.2,0,0,1,4.1-15.286Z" transform="translate(0 0)" fill="#0c2d70"/>
            </g>
          </g>
        </g>
      </g>
      <g id="Group_1100747" data-name="Group 1100747" transform="translate(0 98.755)">
        <g id="Group_1100491" data-name="Group 1100491" transform="translate(0 0)" clip-path="url(#clip-path-12)">
          <path id="Path_875261" data-name="Path 875261" d="M32.76,22.99a1.256,1.256,0,1,1,1.256,1.255A1.256,1.256,0,0,1,32.76,22.99m-5.3,1.255a1.255,1.255,0,1,0-1.256-1.255,1.255,1.255,0,0,0,1.256,1.255m-6.552,0a1.255,1.255,0,1,0-1.256-1.255,1.255,1.255,0,0,0,1.256,1.255m-6.552,0A1.255,1.255,0,1,0,13.1,22.99a1.255,1.255,0,0,0,1.256,1.255m-6.552,0A1.255,1.255,0,1,0,6.552,22.99a1.255,1.255,0,0,0,1.256,1.255m-6.552,0A1.255,1.255,0,1,0,0,22.99a1.255,1.255,0,0,0,1.256,1.255m32.76-7.123a1.256,1.256,0,1,0-1.256-1.256,1.256,1.256,0,0,0,1.256,1.256m-6.552,0a1.256,1.256,0,1,0-1.256-1.256,1.256,1.256,0,0,0,1.256,1.256m-6.552,0a1.256,1.256,0,1,0-1.256-1.256,1.256,1.256,0,0,0,1.256,1.256m-6.552,0A1.256,1.256,0,1,0,13.1,15.867a1.256,1.256,0,0,0,1.256,1.256m-6.552,0a1.256,1.256,0,1,0-1.256-1.256,1.256,1.256,0,0,0,1.256,1.256m-6.552,0A1.256,1.256,0,1,0,0,15.867a1.256,1.256,0,0,0,1.256,1.256M34.016,10A1.256,1.256,0,1,0,32.76,8.744,1.256,1.256,0,0,0,34.016,10m5.3,12.99a1.256,1.256,0,1,1,1.256,1.255,1.256,1.256,0,0,1-1.256-1.255m1.256-5.868a1.256,1.256,0,1,0-1.256-1.256,1.256,1.256,0,0,0,1.256,1.256m0-7.123a1.256,1.256,0,1,0-1.256-1.256A1.256,1.256,0,0,0,40.568,10m-13.1,0a1.256,1.256,0,1,0-1.256-1.256A1.256,1.256,0,0,0,27.464,10m-6.552,0a1.256,1.256,0,1,0-1.256-1.256A1.256,1.256,0,0,0,20.912,10M14.36,10A1.256,1.256,0,1,0,13.1,8.744,1.256,1.256,0,0,0,14.36,10M7.808,10A1.256,1.256,0,1,0,6.552,8.744,1.256,1.256,0,0,0,7.808,10M1.256,10A1.256,1.256,0,1,0,0,8.744,1.256,1.256,0,0,0,1.256,10m32.76-7.489A1.256,1.256,0,1,0,32.76,1.256a1.256,1.256,0,0,0,1.256,1.256m6.552,0a1.256,1.256,0,1,0-1.256-1.256,1.256,1.256,0,0,0,1.256,1.256m-13.1,0a1.256,1.256,0,1,0-1.256-1.256,1.256,1.256,0,0,0,1.256,1.256m-6.552,0a1.256,1.256,0,1,0-1.256-1.256,1.256,1.256,0,0,0,1.256,1.256m-6.552,0A1.256,1.256,0,1,0,13.1,1.256,1.256,1.256,0,0,0,14.36,2.511m-6.552,0A1.256,1.256,0,1,0,6.552,1.256,1.256,1.256,0,0,0,7.808,2.511m-6.552,0A1.256,1.256,0,1,0,0,1.256,1.256,1.256,0,0,0,1.256,2.511" transform="translate(0 0)" fill="#fff"/>
        </g>
      </g>
      <g id="Group_1100749" data-name="Group 1100749" transform="translate(9.418)">
        <g id="Group_1100748" data-name="Group 1100748" clip-path="url(#clip-path-13)">
          <path id="Path_875398" data-name="Path 875398" d="M10.682,0h81.5a10.785,10.785,0,0,1,10.678,10.888l-.134,62.524L57.973,102.864a12.616,12.616,0,0,1-13.084,0L-.2,73.333,0,10.888A10.784,10.784,0,0,1,10.682,0" transform="translate(-0.001 0)" fill="#fff"/>
        </g>
      </g>
      <g id="Group_1100745" data-name="Group 1100745" transform="translate(0 17.918)">
        <g id="Group_1100096" data-name="Group 1100096" transform="translate(0 0)" clip-path="url(#clip-path-14)">
          <path id="Path_873771" data-name="Path 873771" d="M61.5,80.838a16.933,16.933,0,0,1-9.134-2.472L3.9,46.669C1.386,45.023,0,42.8,0,40.417s1.386-4.606,3.9-6.25L52.365,2.47C57.4-.823,65.6-.823,70.635,2.47l48.464,31.7c2.517,1.645,3.9,3.865,3.9,6.25s-1.386,4.606-3.9,6.252L70.637,78.365A16.938,16.938,0,0,1,61.5,80.838m0-79.89A16.161,16.161,0,0,0,52.79,3.3L4.328,35C2.084,36.467.85,38.39.85,40.417s1.234,3.952,3.478,5.419l48.465,31.7c4.8,3.139,12.616,3.139,17.419,0l48.462-31.7c2.244-1.467,3.478-3.391,3.478-5.419s-1.234-3.952-3.478-5.419L70.21,3.3A16.161,16.161,0,0,0,61.5.948" transform="translate(0 -0.001)" fill="#61dfe4"/>
        </g>
      </g>
      <rect id="Rectangle_403516" data-name="Rectangle 403516" width="102.859" height="52.446" transform="translate(9.418 15.158)" fill="#fff"/>
    </g>
    <g id="Group_1101815" data-name="Group 1101815" transform="translate(-3186.781 -7334.81)">
      <g id="Group_1101814" data-name="Group 1101814" clip-path="url(#clip-path-15)">
        <path id="Path_876197" data-name="Path 876197" d="M56.018,36.635c1.981.926,3.7,2.222,5.857,2.8,1.388.371,3.216-.033,3.371,1.672.322,3.524.3,11.168-.988,14.327-1.527,3.732-7.317,9.31-11.422,9.776-.9.1-3.443-1.189-4.293-1.683-4.318-2.508-8.316-7.194-8.354-12.409l-36.237.007A3.941,3.941,0,0,1,0,47.342V3.784A3.971,3.971,0,0,1,3.783,0h48.6a3.9,3.9,0,0,1,3.608,3.285ZM54.143,10.1V3.455c0-.762-1.486-1.715-2.263-1.6C35.723,1.941,19.536,1.7,3.4,1.971A2.564,2.564,0,0,0,1.856,3.623V10.1Zm0,2.017H1.856V47.5c0,.315.9,1.6,1.261,1.6H40.188V40.442c0-.615,2.846-.9,3.471-1.068a16.043,16.043,0,0,0,1.738-.616c.73-.3,3.408-2.1,3.617-2.1h5.128ZM49.56,38.549c-.484.128-2.368,1.476-3.205,1.838a26.135,26.135,0,0,1-4.244,1.3c.19,4.138-.855,9.33.792,13.185a17.039,17.039,0,0,0,8.268,7.872c1.833.729,2.409.371,4.094-.507,2.76-1.437,6.079-4.634,7.261-7.534,1.583-3.885.579-8.642.866-12.754-.109-.578-1.294-.511-1.852-.67-.642-.183-1.394-.431-2.013-.677-1-.4-3.206-1.926-3.821-2.063a45.088,45.088,0,0,0-6.145,0" transform="translate(0 -0.001)" fill="#0c2d70"/>
        <path id="Path_876198" data-name="Path 876198" d="M234.6,28.342a1.548,1.548,0,1,1-1.548-1.548,1.548,1.548,0,0,1,1.548,1.548" transform="translate(-192.583 -22.289)" fill="#0c2d70"/>
        <path id="Path_876199" data-name="Path 876199" d="M287.744,28.346A1.542,1.542,0,1,1,286.2,26.8a1.541,1.541,0,0,1,1.542,1.542" transform="translate(-236.803 -22.298)" fill="#0c2d70"/>
        <path id="Path_876200" data-name="Path 876200" d="M261.211,28.35a1.539,1.539,0,1,1-1.539-1.539,1.539,1.539,0,0,1,1.539,1.539" transform="translate(-214.735 -22.303)" fill="#0c2d70"/>
        <path id="Path_876201" data-name="Path 876201" d="M276.174,273.686a3.238,3.238,0,0,0,0-.672c-.074-.078-1.553.189-2.1-.342a20.472,20.472,0,0,1-1.492-2.555.93.93,0,0,1,1.469-.952c.9.574.521,2.081,2.025,1.82a21.024,21.024,0,0,1,5.568-.335c.574.06,1.02.386,1.505.363.984-.047.845-2.036,2.011-2.048,2.136-.021-.079,3.8-1.039,4.012-.813.18-1.62-.389-1.394.708h2.438c1.282,0,1.109,2.017.168,2.017H282.73a2.657,2.657,0,0,0,0,.672c.073.076,1.355-.17,2.029.41.652.562,2.322,3.661.4,3.638-1.386-.016-.754-2.659-2.988-2-.3.09-.711.733-1.227.957a3.743,3.743,0,0,1-2.994,0c-.97-.423-.894-1.286-2.368-.988-.819.165-1.03,1.948-2.032,2.01a.9.9,0,0,1-.967-1.139,18.492,18.492,0,0,1,1.392-2.435c.573-.681,2.115-.375,2.194-.458a2.654,2.654,0,0,0,0-.672h-2.606c-.94,0-1.114-2.017.168-2.017a22.432,22.432,0,0,0,2.438,0m4.707-1.177h-2.858V276.8a2.736,2.736,0,0,0,.675.838c.8.362,2.183-.046,2.183-1.006Z" transform="translate(-226.738 -223.746)" fill="#0c2d70"/>
        <path id="Path_876202" data-name="Path 876202" d="M302.86,248.6c-.174.575-3.5.505-4.108.41-.768-.12-.88-.554-.943-1.243-.231-2.515.552-4.618,3.507-3.844.444.116,1.544.884,1.544,1.314a26.055,26.055,0,0,1,0,3.362m-1.849-1.428c.379-2.119-1.555-2.129-1.178,0Z" transform="translate(-247.708 -202.776)" fill="#0c2d70"/>
        <path id="Path_876203" data-name="Path 876203" d="M56.531,101.5c-.325.031-.171.863-.127,1.053.328,1.417,2.1,1.757.576,3.763-.171.225-1.68,1.713-1.92,1.91-2.318,1.9-3.077-1.65-5.481-.316-1.6.887-.587,3.281-2.455,3.765a16.021,16.021,0,0,1-3.455.083c-2.612-.313-1.153-3.237-3.235-3.994-2.119-.77-2.747,1.781-4.671.8a12.839,12.839,0,0,1-2.9-2.984c-.484-2.105,2.155-2.805.612-4.984-.835-1.179-2.677-.5-3.408-1.8a8.6,8.6,0,0,1,.092-4.923c.8-1.24,3.329-.285,3.773-2.622.346-1.82-1.913-2.334-.917-4.273a14.519,14.519,0,0,1,3.162-2.892c1.908-.448,2.282,2,4.5.8,1.775-.956.622-3.427,2.5-3.723a19.162,19.162,0,0,1,4.235.118c1.631.658.513,3.078,2.307,3.576.433-.88,1.976-2.6,2.943-2.8,1.311-.264,1.772,1.529,3.263.754,1.229-.639.383-2.736,2.218-2.993a11.618,11.618,0,0,1,3.224.117c1.369.552.483,2.7,2.186,3.031,1.472.286,1.823-1.594,3.465-.611a10.578,10.578,0,0,1,2.258,2.447c.386,1.677-1.341,2-.677,3.538.473,1.1,2.109.338,2.8,1.57a6.669,6.669,0,0,1,0,4.007c-.648,1.09-2.589.459-2.894,1.815-.344,1.531,1.374,1.829.678,3.535a10.538,10.538,0,0,1-2.513,2.36c-1.492.343-1.66-.725-2.677-.8-2.263-.166-1.092,2.876-3.014,3.179a11.766,11.766,0,0,1-3.226-.118c-.937-.377-1.038-1.549-1.222-2.393m13.262-8.766a5.019,5.019,0,0,0-.051-1.671c-.147-.2-.751-.15-1.06-.285a3.5,3.5,0,0,1-2.052-3.98c.091-.569.829-1.211.508-1.695-1.089-1.645-1.412-.43-2.635-.264A3.461,3.461,0,0,1,60.7,82.8c-.134-.305-.083-.795-.2-.972-.226-.33-1.5-.093-1.941-.159a3.372,3.372,0,0,1-4.11,3.183c-.7-.11-1.206-.893-1.866-.506a7.4,7.4,0,0,0-.879.935c-.012.165.447.648.547.928a3.544,3.544,0,0,1-1.928,4.626c-.412.184-.892-.116-1.013.5-.4,2.044.664,1.34,1.767,2.1A3.578,3.578,0,0,1,52.2,97.757c-.157.359-.654.516-.467.887a10.023,10.023,0,0,0,1.186,1.149c.048,0,.563-.413.811-.507a3.444,3.444,0,0,1,4.918,2.9c.378-.091,1.506.119,1.732-.028.088-.057.212-.863.324-1.106a3.407,3.407,0,0,1,4.574-1.816c.446.159.543.639,1.1.264,1.624-1.094.392-1.4.241-2.612a3.389,3.389,0,0,1,2.071-3.821c.243-.112,1.049-.237,1.106-.325M46.612,83.011l-2.85.006A4.212,4.212,0,0,1,38.668,87c-.714-.122-1.867-1.141-2.312-.894a19.964,19.964,0,0,0-1.609,1.765c-.047.19.67,1.067.8,1.4a4.19,4.19,0,0,1-1.69,5.1,16.865,16.865,0,0,1-2.05.64c-.341.237-.1,2.237-.143,2.765a4.161,4.161,0,0,1,3.023,7.018,11.433,11.433,0,0,0,1.943,2.065c.173.03.87-.637,1.2-.785,2.942-1.333,5.734.807,6.022,3.833l2.761-.009a4.2,4.2,0,0,1,7.122-3.039l1.928-1.92A4.809,4.809,0,0,1,54.514,101a2.189,2.189,0,0,1-2.228.632c-.277-.074-.559-.5-.856-.439-.2.038-1.351,1.347-1.735,1.628A7.866,7.866,0,1,1,46,88.578c1.311.134,3.6,1.44,4.436-.312.706-1.477-.5-1.124-1.536-1.58a3.932,3.932,0,0,1-2.293-3.676m.842,7.9a5.957,5.957,0,0,0-7.3,8.728,6.024,6.024,0,0,0,9.06,1.186,4.134,4.134,0,0,0,.853-1.014c.12-.35-.422-.755-.388-1.374.063-1.148,1.413-1.494.761-2.864-.505-1.061-1.371-.663-2.133-1.06a3.136,3.136,0,0,1-.854-1Z" transform="translate(-24.75 -66.358)" fill="#0c2d70"/>
        <path id="Path_876204" data-name="Path 876204" d="M181.939,120.8a6.305,6.305,0,1,1-6.305-6.305,6.305,6.305,0,0,1,6.305,6.305m-1.9,0a4.41,4.41,0,1,0-4.41,4.41,4.41,4.41,0,0,0,4.41-4.41" transform="translate(-140.86 -95.243)" fill="#0c2d70"/>
      </g>
    </g>
  </g>
</svg>
