<svg xmlns="http://www.w3.org/2000/svg" xmlns:xlink="http://www.w3.org/1999/xlink" width="190.421" height="243" viewBox="0 0 190.421 243">
  <defs>
    <clipPath id="clip-path">
      <rect id="Rectangle_404060" data-name="Rectangle 404060" width="190.421" height="241" fill="none"/>
    </clipPath>
    <clipPath id="clip-path-3">
      <path id="Path_875838" data-name="Path 875838" d="M92.474,286.223l76.153-.006.729-215.67L92.9,69.92Z" transform="translate(-92.474 -69.92)" fill="none"/>
    </clipPath>
  </defs>
  <g id="img19" transform="translate(-285 -4261)">
    <rect id="Rectangle_403817" data-name="Rectangle 403817" width="190" height="243" transform="translate(285 4261)" fill="none"/>
    <g id="Group_1101727" data-name="Group 1101727" transform="translate(285 4261.996)">
      <g id="Group_1101720" data-name="Group 1101720" transform="translate(0 0.004)">
        <g id="Group_1101719" data-name="Group 1101719" clip-path="url(#clip-path)">
          <path id="Path_875756" data-name="Path 875756" d="M671.224,589.529l28.481,1.042,24.5.806-.055,3.72c-8.654,2.919-15.377,3.624-23.882,3.887a128.225,128.225,0,0,1-28.986,4.112c-7.749.033-7.807-13.534-.058-13.567" transform="translate(-544.396 -482.293)" fill="#f7a594"/>
          <path id="Path_875757" data-name="Path 875757" d="M978.672,599.691h10.611s0,.42-.918.613-4.4.725-4.4.725c1.415.329.947,1.144.58,1.933,0,0-.966,1.981-1.74,2.126s-5.373-1.832-5.508-1.885c-1.636-.639-.6-3.527,1.373-3.513" transform="translate(-798.862 -490.606)" fill="#f7a594"/>
          <path id="Path_875758" data-name="Path 875758" d="M1009.571,607.99a.057.057,0,0,1-.04-.1,6.075,6.075,0,0,0,1.657-2.589.861.861,0,0,0-.619-.435h-.008c-.17,0-.476.292-.746.551-.319.305-.622.594-.83.566a.205.205,0,0,1-.153-.1c-.277-.453.169-1.665.188-1.716l.012-.032.034,0,5.135-.7a.056.056,0,0,1,.064.049.057.057,0,0,1-.049.064l-5.1.693c-.068.194-.412,1.217-.186,1.586a.092.092,0,0,0,.07.051c.159.018.465-.275.737-.535.32-.306.627-.592.839-.582a.98.98,0,0,1,.724.513l.01.019,0,.021a6.093,6.093,0,0,1-1.694,2.666.057.057,0,0,1-.04.016" transform="translate(-825.249 -493.664)" fill="#d97b69"/>
          <path id="Path_875759" data-name="Path 875759" d="M658.4,582.056c-3.416-.213-13.484-1.722-19.82-1.252-5.806,2.1-4.821,12.106-2.276,13.784-.019.281,10.921,3.851,22.268,1.048,1.771-1.9,1.616-11.528-.172-13.579" transform="translate(-518.909 -475.081)" fill="#13305c"/>
          <path id="Path_875760" data-name="Path 875760" d="M751.839,599.414c-1.8.555-3.489.884-4.714.319-.741,0-.919-14.936-.178-14.939l4.67-.02c1.483-.007,1.7,14.634.222,14.64" transform="translate(-610.687 -478.403)" fill="#1d498c"/>
          <path id="Path_875761" data-name="Path 875761" d="M389.475,1254.907h13.112a1.457,1.457,0,0,0,.563-.527,119.589,119.589,0,0,1,.957-14.447l-9.15-.372-1.72,7.255c-2.959,2.091-6.392,6.577-3.761,8.091" transform="translate(-317.861 -1014.083)" fill="#231f20"/>
          <path id="Path_875762" data-name="Path 875762" d="M400.109,1315.167H384.564c-.394,0-.365-2.162.029-2.162l15.457.087c.406,0,.465,2.075.06,2.075" transform="translate(-314.38 -1074.167)" fill="#231f20"/>
          <path id="Path_875763" data-name="Path 875763" d="M418.551,710.4c-.928,7.219-4.9,25.052-4.468,44.661-4.3,24.992-4.769,30.5-5.291,45.911l13.106.49c2.1-10.764,6.4-27.755,8.353-44.332,4.236-13.062,7.011-31.68,8.375-46.461,1.375-12.74-16.635-17.89-20.075-.268" transform="translate(-334.432 -571.896)" fill="#13305c"/>
          <path id="Path_875764" data-name="Path 875764" d="M442.81,874.755l-.268,0c.024-1.777,5.349-61.879,10.76-86.247l.262.058c-5.407,24.354-10.729,84.416-10.753,86.193" transform="translate(-362.043 -645.074)" fill="#231f20"/>
          <path id="Path_875765" data-name="Path 875765" d="M534.088,706.012A293.806,293.806,0,0,0,541.377,752c-1.065,16.964,1.943,33.253,4.083,44.4l12.468-.112c.723-10.908-.821-69.958-4.046-89.985-1.538-17.707-22.018-18.654-19.795-.283" transform="translate(-436.798 -566.632)" fill="#13305c"/>
          <path id="Path_875766" data-name="Path 875766" d="M607.28,1262.6c-.558,4.018-.946,7.153-.458,10.79l20.391.4s1.923-1.964-.754-4.91-7.409-1.241-10.773-6.388Z" transform="translate(-496.258 -1032.837)" fill="#231f20"/>
          <path id="Path_875767" data-name="Path 875767" d="M626.351,1315.167H604.707c-.394,0-.394-2.162,0-2.162l21.556.087c.406,0,.493,2.075.087,2.075" transform="translate(-494.468 -1074.167)" fill="#231f20"/>
          <rect id="Rectangle_404058" data-name="Rectangle 404058" width="0.268" height="85.973" transform="translate(113.827 143.653) rotate(-2.847)" fill="#231f20"/>
          <path id="Path_875768" data-name="Path 875768" d="M501.211,606.352l-28.9-14.884c1.111-19.554,8.082-33.67,13.247-35.736,12.342-4.937,24.343.591,29.072,6.788,1.878,2.461,2,13.458-1.767,20.637a54.328,54.328,0,0,1-5.05,7.875c-1.89,2.371-6.605,15.32-6.605,15.32" transform="translate(-386.4 -453.087)" fill="#13305c"/>
          <path id="Path_875769" data-name="Path 875769" d="M623.731,534.152c-.656-1.809-4.806-6.531-5.482-8.484l5.775-8.7,5.334,2.607a17.559,17.559,0,0,1,3.58,3.535l-2.468,6.547-.531,1.422c-.2,1.6-2.254,2.41-6.208,3.067" transform="translate(-505.788 -422.935)" fill="#f7a594"/>
          <path id="Path_875770" data-name="Path 875770" d="M652.5,533.762a13.2,13.2,0,0,0,5.99,9.636l2.135-5.665Z" transform="translate(-533.81 -436.67)" fill="#e6836f"/>
          <path id="Path_875771" data-name="Path 875771" d="M659.658,438.712c-.161,2.1-.575,6.694-1.335,8.635-1.157,2.954-5.013,5.44-7.612,5.123-2.941-.586-6.524-2.617-8.059-5.052a30.094,30.094,0,0,1-2.164-8.784c-.345-6.56,5.411-10.449,11.063-10.018s8.609,3.547,8.106,10.1" transform="translate(-523.97 -350.624)" fill="#f7a594"/>
          <path id="Path_875772" data-name="Path 875772" d="M637.6,438.189c-.506-2.279,1.2-2.615,2.343-.615.176-1.548-.174-6.35,1.741-7.318,2.177-1.137,9.3,1.84,14.516-1.061,0,0-.958-7.355-11.786-6.515-12.684,2.429-6.814,15.509-6.814,15.509" transform="translate(-520.513 -345.74)" fill="#4d261c"/>
          <path id="Path_875773" data-name="Path 875773" d="M637.154,492.823a2,2,0,1,1-2.739-1.574,2.257,2.257,0,0,1,2.739,1.574" transform="translate(-518.129 -401.797)" fill="#f7a594"/>
          <path id="Path_875774" data-name="Path 875774" d="M667.471,459.423c-1.112-.753-17.512.561-17.461,1.764,0,0,10.567,3.3,18.86,2.227,4.527-.587-1.4-3.992-1.4-3.992" transform="translate(-531.771 -375.673)" fill="#13305c"/>
          <path id="Path_875775" data-name="Path 875775" d="M631.944,450.277,652,448.254l.166-2.7-21.192,1.976a5.787,5.787,0,0,0,.973,2.748" transform="translate(-516.196 -364.507)" fill="#1d498c"/>
          <path id="Path_875776" data-name="Path 875776" d="M618.577,395.327c-2.17.143-2.845-1.363-.19-3.017,4.1-2.551,8.9-10.821,13.891-11.054,3.439-.16,4.667,4.186,8.086,7.7,1.55,1.595,2.266,2.984,1.181,4.024-2.613.938-20.7,2.194-22.967,2.343" transform="translate(-504.487 -311.902)" fill="#13305c"/>
          <path id="Path_875777" data-name="Path 875777" d="M697.015,400.626l-.007-.111a4.941,4.941,0,0,1-1.312-.4,3.969,3.969,0,0,1-1.045-.7l0,0a3.564,3.564,0,0,1-.426.431,4.517,4.517,0,0,1-.714.5c-.131.074-.265.145-.4.207a4.9,4.9,0,0,1-.65.238c0,.037.011.182.04.662.006.1.013.205.02.33l.012.2c.013.21.028.457.045.746a3.014,3.014,0,0,0,.249,1.036,3.161,3.161,0,0,0,.148.293,3.533,3.533,0,0,0,.564.733,4.431,4.431,0,0,0,.631.523,4.922,4.922,0,0,0,.7.4c.085.04.15.067.188.082a5.029,5.029,0,0,0,.639-.437,4.91,4.91,0,0,0,.37-.329c.063-.062.126-.128.188-.2a3.219,3.219,0,0,0,.882-2.377c-.071-1.156-.1-1.633-.111-1.824" transform="translate(-566.493 -326.76)" fill="#f7bd0c"/>
          <path id="Path_875778" data-name="Path 875778" d="M700.411,410.218a1.484,1.484,0,1,1-1.565-1.392,1.479,1.479,0,0,1,1.565,1.392" transform="translate(-570.578 -334.458)" fill="#fff"/>
          <path id="Path_875779" data-name="Path 875779" d="M705.586,497.752a2.279,2.279,0,0,1-.9-.174.107.107,0,0,1,.091-.194,2.288,2.288,0,0,0,1.653,0,.227.227,0,0,0,.125-.137c.32-.773-.883-3.788-1.373-4.884a.107.107,0,1,1,.2-.088c.073.164,1.8,4.037,1.376,5.054a.435.435,0,0,1-.247.256,2.569,2.569,0,0,1-.917.17" transform="translate(-576.448 -402.675)" fill="#bf5847"/>
          <path id="Path_875780" data-name="Path 875780" d="M684.78,533.42a.108.108,0,0,1-.1-.15.473.473,0,0,0-.029-.469c-.7-1.108-5.451-1.3-5.5-1.3a.107.107,0,1,1,.008-.215c.2.008,4.912.2,5.672,1.4a.682.682,0,0,1,.045.668.107.107,0,0,1-.1.065" transform="translate(-555.53 -434.644)" fill="#bf5847"/>
          <path id="Path_875781" data-name="Path 875781" d="M683.68,490.424c0,.353-.215.64-.48.64s-.48-.287-.48-.64.215-.64.48-.64.48.286.48.64" transform="translate(-558.532 -400.692)" fill="#4f241d"/>
          <path id="Path_875782" data-name="Path 875782" d="M675.964,481.19a14.559,14.559,0,0,1,3.48,1.628c.364-.325-1.642-2.151-2.674-2.4Z" transform="translate(-553.005 -393.03)" fill="#4f241d"/>
          <path id="Path_875783" data-name="Path 875783" d="M727.53,492.434c0,.353-.215.64-.48.64s-.48-.286-.48-.64.215-.64.48-.64.48.287.48.64" transform="translate(-594.405 -402.336)" fill="#4f241d"/>
          <path id="Path_875784" data-name="Path 875784" d="M722.532,485.522a14.558,14.558,0,0,0-3.756.808c-.282-.4,2.082-1.729,3.143-1.74Z" transform="translate(-588.01 -396.443)" fill="#4f241d"/>
          <path id="Path_875785" data-name="Path 875785" d="M643.156,597.519l-.241,2.255L644.183,598l-.711,3.668a3.9,3.9,0,0,0-.659-1.685,4.03,4.03,0,0,0-2.526.66Z" transform="translate(-523.817 -488.83)" fill="#231f20"/>
          <path id="Path_875786" data-name="Path 875786" d="M616.394,552.477c.256,2.367,3.622,5.951,5.5,8.056l-2.87,3.124c-2.193-2.638-5.118-5.9-4.684-10.2.192-1.124.933-1.358,2.051-.98" transform="translate(-502.557 -451.844)" fill="#1d498c"/>
          <path id="Path_875787" data-name="Path 875787" d="M662.928,586.031c-.482.508-1.984,2.736-4.419,2.572l-.711,3.668c3.429.11,4.389-1.152,5.3-3.5.356-.936.629-2.008-.166-2.739" transform="translate(-538.143 -479.431)" fill="#1d498c"/>
          <path id="Path_875788" data-name="Path 875788" d="M562.918,647.163a.133.133,0,0,1-.057-.013.134.134,0,0,1-.064-.179c1.337-2.808,3.04-6.091,4.843-9.566,4.912-9.468,10.48-20.2,11.636-26.963a.134.134,0,0,1,.264.045c-1.163,6.8-6.741,17.556-11.662,27.041-1.8,3.473-3.5,6.754-4.839,9.557a.134.134,0,0,1-.121.077" transform="translate(-460.412 -499.311)" fill="#231f20"/>
          <path id="Path_875789" data-name="Path 875789" d="M453.87,752.009c5.6,3.417,33.179,6.166,34.341,5.718,1.545.1,1.345,5.684.134,6.693-1.851,1.542-36.945-4.406-37.507-6.072s1.451-7.3,3.033-6.339" transform="translate(-368.75 -615.127)" fill="#231f20"/>
          <path id="Path_875790" data-name="Path 875790" d="M658.767,668.722l.046-.1a4.815,4.815,0,0,1-.935-.954,3.848,3.848,0,0,1-.571-1.08l-.005,0a3.484,3.484,0,0,1-.565.171,4.384,4.384,0,0,1-.841.093c-.146,0-.294,0-.442-.01a4.712,4.712,0,0,1-.667-.1l-.272.585-.136.291-.081.175-.307.659a2.93,2.93,0,0,0-.267,1,3.046,3.046,0,0,0-.009.32,3.428,3.428,0,0,0,.143.888,4.31,4.31,0,0,0,.3.74,4.752,4.752,0,0,0,.41.663c.054.074.1.127.123.157a4.847,4.847,0,0,0,.749-.078,4.7,4.7,0,0,0,.47-.11c.083-.024.168-.051.253-.082a3.135,3.135,0,0,0,1.857-1.625l.75-1.612" transform="translate(-534.802 -545.336)" fill="#f7bd0c"/>
          <rect id="Rectangle_404059" data-name="Rectangle 404059" width="1.15" height="6.274" transform="translate(115.945 127.687) rotate(-63.951)" fill="#1d498c"/>
          <path id="Path_875791" data-name="Path 875791" d="M562.223,804.506H560.3l.039-.165c.861-3.642.979-12.5.98-12.589l.268,0c0,.088-.116,8.718-.949,12.483H562a56.427,56.427,0,0,0,1.069-12.259l.268-.016a57.283,57.283,0,0,1-1.1,12.436Z" transform="translate(-458.384 -647.731)" fill="#231f20"/>
          <path id="Path_875792" data-name="Path 875792" d="M485.372,682.766s-2.49,14.282.093,19.311c2.669,5.2,27.2,6.273,27.2,6.273l.863-7.385-16.916-4.251,3.646-10.942Z" transform="translate(-396.199 -558.57)" fill="#f7a594"/>
          <path id="Path_875793" data-name="Path 875793" d="M491.834,576.55a37.652,37.652,0,0,0-7.366,21.169c9.3,6.751,15.414,1.858,15.414,1.858s4.682-12.461,3.624-18.516-9.568-6.715-11.672-4.511" transform="translate(-396.342 -470.73)" fill="#13305c"/>
          <path id="Path_875794" data-name="Path 875794" d="M480.84,677.6c1.261,1.528,15.7,4.482,16,2.8a4.735,4.735,0,0,1-.968,4.635c-.362,2.335-16.02-.087-15.658-2.422q-1.369-2.164.626-5.013" transform="translate(-392.406 -554.345)" fill="#1d498c"/>
          <path id="Path_875795" data-name="Path 875795" d="M573.516,662.889a.134.134,0,0,1-.116-.2,21.908,21.908,0,0,0,2.383-6.548.134.134,0,0,1,.263.052,22.189,22.189,0,0,1-2.415,6.632.134.134,0,0,1-.116.066" transform="translate(-469.083 -536.698)" fill="#231f20"/>
          <path id="Path_875796" data-name="Path 875796" d="M583.632,687.137h0c0-.085,0-.122,0-.131,0,.016,0,.131,0,.131" transform="translate(-477.468 -562.039)" fill="#d9ffff"/>
          <path id="Path_875797" data-name="Path 875797" d="M583.632,687.137h0c0-.085,0-.122,0-.131,0,.016,0,.131,0,.131" transform="translate(-477.468 -562.039)" fill="#d9ffff"/>
          <path id="Path_875798" data-name="Path 875798" d="M863.582,689.577s0-.115,0-.131c0,.009,0,.046,0,.131" transform="translate(-706.494 -564.035)" fill="#d9ffff"/>
          <path id="Path_875799" data-name="Path 875799" d="M863.582,689.577s0-.115,0-.131c0,.009,0,.046,0,.131" transform="translate(-706.494 -564.035)" fill="#d9ffff"/>
          <path id="Path_875800" data-name="Path 875800" d="M608.528,613.038c-5.962,6.3-15.453,11.448-25.6,13.614-.006.674-.039,4.406-.191,21.608-.2,22.948,21.689,34.255,25.088,35.991,3.307-1.5,25.573-12.6,25.775-35.548.152-17.2.185-20.934.191-21.608-10.1-2.343-19.418-7.652-25.267-14.057" transform="translate(-476.738 -501.526)" fill="#fff"/>
          <path id="Path_875801" data-name="Path 875801" d="M620.91,635.838a53.98,53.98,0,0,1-22.766,11.654l-.171,19.443c-.079,8.9,3.437,16.96,10.45,23.967a50.483,50.483,0,0,0,11.924,8.757c.106-.053.223-.113.338-.172l.275-63.6-.05-.045" transform="translate(-489.199 -520.178)" fill="#007880"/>
          <path id="Path_875802" data-name="Path 875802" d="M723.116,636.088l-.275,63.6a50.519,50.519,0,0,0,11.739-8.376c7.135-6.884,10.793-14.885,10.871-23.781l.172-19.443a53.992,53.992,0,0,1-22.506-12" transform="translate(-591.355 -520.383)" fill="#008f99"/>
          <path id="Path_875803" data-name="Path 875803" d="M666.843,789.909l-.065,15.063c-.007,1.677,20.566,1.765,20.573.088L687.417,790Zm11.293,8.047-.019,4.269a1.041,1.041,0,1,1-2.081-.009l.019-4.279a2.531,2.531,0,1,1,2.081.019" transform="translate(-545.489 -646.223)" fill="#fff"/>
          <path id="Path_875804" data-name="Path 875804" d="M694.04,741.736l-2.083-.009,0-1.014a6.4,6.4,0,0,0-12.805-.055l0,1.014-2.082-.009,0-1.014a8.485,8.485,0,0,1,16.97.072Z" transform="translate(-553.909 -599.043)" fill="#fff"/>
        </g>
      </g>
      <g id="Group_1101722" data-name="Group 1101722" transform="translate(0 0.004)">
        <g id="Group_1101721" data-name="Group 1101721" clip-path="url(#clip-path)">
          <path id="Path_875805" data-name="Path 875805" d="M.932,13.306C.825-1.165,28.28-3.29,27.957,4.324L77.244,4.5c5.7.08,10.308,5.242,10.288,11.526l-.65,209.89c-.019,6.149-4.6,11.133-10.239,11.135l-52.208.262a6.315,6.315,0,0,1-2.932,2.725C6.895,239.917.255,234.162.2,226.754-.347,225.389.344,16.027.932,13.306" transform="translate(0 -0.004)" fill="#408bff"/>
          <path id="Path_875806" data-name="Path 875806" d="M22.894,280.419h0a2.157,2.157,0,0,0,2.219-2.126l.468-54.8a2.259,2.259,0,0,0-2.2-2.259,2.18,2.18,0,0,0-2.235,2.158l-.437,54.8a2.235,2.235,0,0,0,2.183,2.226" transform="translate(-16.943 -180.991)" fill="#0047b3"/>
          <path id="Path_875807" data-name="Path 875807" d="M75.17,240.2l64.237-.073c5.837.01,10.585-5.1,10.608-11.427L150.8,12.829C150.819,6.364,146.052,1.065,140.144,1L75.721.16C69.765.092,64.926,5.305,64.915,11.8l-.381,216.882c-.011,6.352,4.752,11.506,10.636,11.516" transform="translate(-52.795 -0.131)" fill="#b3d1ff"/>
          <path id="Path_875808" data-name="Path 875808" d="M79.907,245.343a8.772,8.772,0,0,0,1.183.081l64.221-.174c5.017,0,9.14-4.482,9.16-10l.763-215.634c.02-5.643-4.12-10.289-9.2-10.352l-64.4-.941c-.148,0-.3,0-.445.006a8.825,8.825,0,0,0-6.255,3,10.53,10.53,0,0,0-2.625,7.05l-.4,217.1c-.009,5,3.416,9.236,8,9.867" transform="translate(-58.831 -6.808)" fill="#0d0d0d"/>
          <path id="Path_875809" data-name="Path 875809" d="M90.408,69.92l-.43,216.3,76.153-.005.729-215.671Z" transform="translate(-73.611 -57.202)" fill="#b3d0ff"/>
        </g>
      </g>
      <g id="Group_1101724" data-name="Group 1101724" transform="translate(16.821 12.722)">
        <g id="Group_1101723" data-name="Group 1101723" clip-path="url(#clip-path-3)">
          <path id="Path_875810" data-name="Path 875810" d="M180.47,509.978H120.2a3.711,3.711,0,0,1-3.7-3.7v-.21a3.711,3.711,0,0,1,3.7-3.7H180.47a3.711,3.711,0,0,1,3.7,3.7v.21a3.711,3.711,0,0,1-3.7,3.7" transform="translate(-112.134 -423.705)" fill="#fff"/>
          <path id="Path_875811" data-name="Path 875811" d="M180.47,577.349H120.2a3.711,3.711,0,0,1-3.7-3.7v-.21a3.711,3.711,0,0,1,3.7-3.7H180.47a3.711,3.711,0,0,1,3.7,3.7v.21a3.711,3.711,0,0,1-3.7,3.7" transform="translate(-112.134 -478.821)" fill="#fff"/>
          <path id="Path_875812" data-name="Path 875812" d="M235.2,236.115a19.277,19.277,0,1,1-19.273-19.666A19.473,19.473,0,0,1,235.2,236.115" transform="translate(-177.705 -189.795)" fill="#005cea"/>
          <path id="Path_875813" data-name="Path 875813" d="M275.42,264.411a6.046,6.046,0,0,0,4.729-2.363,6.056,6.056,0,1,0-9.505,0,6.066,6.066,0,0,0,4.777,2.363" transform="translate(-237.168 -218.882)" fill="#fff"/>
          <path id="Path_875814" data-name="Path 875814" d="M265.134,338.983c0,3.915-21.425,3.915-21.425,0l.007-4.562c.847-6.237,19.677-6.5,21.422,0Z" transform="translate(-216.199 -282.4)" fill="#fff"/>
          <path id="Path_875815" data-name="Path 875815" d="M197.073,519.381H183.882A1.089,1.089,0,0,1,182.8,518.3v-.061a1.089,1.089,0,0,1,1.086-1.086h13.192a1.089,1.089,0,0,1,1.086,1.086v.061a1.089,1.089,0,0,1-1.086,1.086" transform="translate(-166.366 -435.796)" fill="#80b2ff"/>
          <path id="Path_875816" data-name="Path 875816" d="M229.162,586.7h-45.28a1.089,1.089,0,0,1-1.086-1.086v-.062a1.089,1.089,0,0,1,1.086-1.086h45.28a1.089,1.089,0,0,1,1.086,1.086v.062a1.089,1.089,0,0,1-1.086,1.086" transform="translate(-166.366 -490.868)" fill="#80b2ff"/>
          <path id="Path_875817" data-name="Path 875817" d="M293.155,519.381H279.964a1.089,1.089,0,0,1-1.086-1.086v-.061a1.089,1.089,0,0,1,1.086-1.086h13.192a1.089,1.089,0,0,1,1.086,1.086v.061a1.089,1.089,0,0,1-1.086,1.086" transform="translate(-244.971 -435.796)" fill="#80b2ff"/>
          <path id="Path_875818" data-name="Path 875818" d="M180.47,708.561H120.2a3.711,3.711,0,0,1-3.7-3.7v-.21a3.711,3.711,0,0,1,3.7-3.7H180.47a3.711,3.711,0,0,1,3.7,3.7v.21a3.711,3.711,0,0,1-3.7,3.7" transform="translate(-112.134 -586.165)" fill="#fff"/>
          <path id="Path_875819" data-name="Path 875819" d="M180.47,775.932H120.2a3.711,3.711,0,0,1-3.7-3.7v-.21a3.711,3.711,0,0,1,3.7-3.7H180.47a3.711,3.711,0,0,1,3.7,3.7v.21a3.711,3.711,0,0,1-3.7,3.7" transform="translate(-112.134 -641.281)" fill="#fff"/>
          <path id="Path_875820" data-name="Path 875820" d="M197.073,717.964H183.882a1.089,1.089,0,0,1-1.086-1.086v-.062a1.089,1.089,0,0,1,1.086-1.086h13.192a1.089,1.089,0,0,1,1.086,1.086v.062a1.089,1.089,0,0,1-1.086,1.086" transform="translate(-166.366 -598.256)" fill="#80b2ff"/>
          <path id="Path_875821" data-name="Path 875821" d="M293.155,717.964H279.964a1.089,1.089,0,0,1-1.086-1.086v-.062a1.089,1.089,0,0,1,1.086-1.086h13.192a1.089,1.089,0,0,1,1.086,1.086v.062a1.089,1.089,0,0,1-1.086,1.086" transform="translate(-244.971 -598.256)" fill="#80b2ff"/>
          <path id="Path_875822" data-name="Path 875822" d="M386.4,717.964h-9.884a1.089,1.089,0,0,1-1.086-1.086v-.062a1.089,1.089,0,0,1,1.086-1.086H386.4a1.089,1.089,0,0,1,1.086,1.086v.062a1.089,1.089,0,0,1-1.086,1.086" transform="translate(-323.957 -598.256)" fill="#80b2ff"/>
          <path id="Path_875823" data-name="Path 875823" d="M183.137,641.939a3.578,3.578,0,1,1-3.572-3.778,3.679,3.679,0,0,1,3.572,3.778" transform="translate(-160.801 -534.797)" fill="#fff"/>
          <path id="Path_875824" data-name="Path 875824" d="M191.2,652.9a1.269,1.269,0,1,1-1.267-1.34,1.3,1.3,0,0,1,1.267,1.34" transform="translate(-171.169 -545.762)" fill="#80b2ff"/>
          <path id="Path_875825" data-name="Path 875825" d="M305.237,641.939a3.578,3.578,0,1,1-3.572-3.778,3.679,3.679,0,0,1,3.572,3.778" transform="translate(-260.69 -534.797)" fill="#fff"/>
          <path id="Path_875826" data-name="Path 875826" d="M313.3,652.9a1.269,1.269,0,1,1-1.267-1.34,1.3,1.3,0,0,1,1.267,1.34" transform="translate(-271.059 -545.762)" fill="#80b2ff"/>
          <path id="Path_875827" data-name="Path 875827" d="M232.505,655.024h-9.188a1.089,1.089,0,0,1-1.086-1.086v-.062a1.089,1.089,0,0,1,1.086-1.086h9.188a1.089,1.089,0,0,1,1.086,1.086v.062a1.089,1.089,0,0,1-1.086,1.086" transform="translate(-198.628 -546.765)" fill="#73aaff"/>
          <path id="Path_875828" data-name="Path 875828" d="M361.826,655.024h-9.188a1.089,1.089,0,0,1-1.086-1.086v-.062a1.089,1.089,0,0,1,1.086-1.086h9.188a1.089,1.089,0,0,1,1.086,1.086v.062a1.089,1.089,0,0,1-1.086,1.086" transform="translate(-304.425 -546.765)" fill="#73aaff"/>
          <path id="Path_875829" data-name="Path 875829" d="M216.153,907.742H171.269a1.763,1.763,0,0,1-1.763-1.763V878.887a1.763,1.763,0,0,1,1.763-1.763h44.884a1.763,1.763,0,0,1,1.763,1.763v27.092a1.763,1.763,0,0,1-1.763,1.763" transform="translate(-155.494 -730.292)" fill="#005cea"/>
          <rect id="Rectangle_404062" data-name="Rectangle 404062" width="48.411" height="5.283" transform="translate(14.012 152.615)" fill="#5896fa"/>
          <path id="Path_875830" data-name="Path 875830" d="M194.769,1013.152h-7.118a.868.868,0,0,0,0,1.733h7.118a.868.868,0,0,0,0-1.733" transform="translate(-169.668 -841.576)" fill="#d1f5ff"/>
          <path id="Path_875831" data-name="Path 875831" d="M254.944,1013.152h-7.118a.868.868,0,0,0,0,1.733h7.118a.868.868,0,0,0,0-1.733" transform="translate(-218.897 -841.576)" fill="#d1f5ff"/>
          <path id="Path_875832" data-name="Path 875832" d="M315.118,1013.152H308a.868.868,0,0,0,0,1.733h7.118a.868.868,0,0,0,0-1.733" transform="translate(-268.125 -841.576)" fill="#d1f5ff"/>
          <path id="Path_875833" data-name="Path 875833" d="M375.294,1013.152h-7.118a.868.868,0,0,0,0,1.733h7.118a.868.868,0,0,0,0-1.733" transform="translate(-317.355 -841.576)" fill="#d1f5ff"/>
          <path id="Path_875834" data-name="Path 875834" d="M185.465,885.666h0a.931.931,0,0,0-.9.956v.336a.906.906,0,1,0,1.808,0v-.336a.931.931,0,0,0-.9-.956" transform="translate(-167.81 -737.28)" fill="#d1f5ff"/>
          <path id="Path_875835" data-name="Path 875835" d="M200.242,886.791h0a1.1,1.1,0,0,0,1.063,1.124h3.768a1.126,1.126,0,0,0,0-2.248h-3.768a1.1,1.1,0,0,0-1.063,1.124" transform="translate(-180.639 -737.281)" fill="#d1f5ff"/>
          <path id="Path_875836" data-name="Path 875836" d="M191.213,953.582H196a1.452,1.452,0,0,1,1.452,1.452v4.519A1.452,1.452,0,0,1,196,961.006h-4.786a1.452,1.452,0,0,1-1.452-1.452v-4.519a1.452,1.452,0,0,1,1.452-1.452" transform="translate(-172.064 -792.842)" fill="#5896fa"/>
          <path id="Path_875837" data-name="Path 875837" d="M237.041,785.114h-45.28a1.089,1.089,0,0,1-1.086-1.086v-.061a1.089,1.089,0,0,1,1.086-1.086h45.28a1.089,1.089,0,0,1,1.086,1.086v.061a1.089,1.089,0,0,1-1.086,1.086" transform="translate(-172.812 -653.192)" fill="#80b2ff"/>
        </g>
      </g>
      <g id="Group_1101726" data-name="Group 1101726" transform="translate(0 0.004)">
        <g id="Group_1101725" data-name="Group 1101725" clip-path="url(#clip-path)">
          <path id="Path_875839" data-name="Path 875839" d="M190.948,1186.677a2.045,2.045,0,1,1-2.045-2.046,2.046,2.046,0,0,1,2.045,2.046" transform="translate(-152.867 -969.145)" fill="#267bff"/>
          <path id="Path_875840" data-name="Path 875840" d="M243.8,1186.677a2.046,2.046,0,1,1-2.046-2.046,2.046,2.046,0,0,1,2.046,2.046" transform="translate(-196.104 -969.145)" fill="#267bff"/>
          <path id="Path_875841" data-name="Path 875841" d="M296.649,1186.677a2.045,2.045,0,1,1-2.045-2.046,2.045,2.045,0,0,1,2.045,2.046" transform="translate(-239.341 -969.145)" fill="#267bff"/>
          <path id="Path_875842" data-name="Path 875842" d="M349.5,1186.677a2.045,2.045,0,1,1-2.045-2.046,2.045,2.045,0,0,1,2.045,2.046" transform="translate(-282.578 -969.145)" fill="#267bff"/>
          <path id="Path_875843" data-name="Path 875843" d="M402.35,1186.677a2.046,2.046,0,1,1-2.046-2.046,2.046,2.046,0,0,1,2.046,2.046" transform="translate(-325.815 -969.145)" fill="#267bff"/>
        </g>
      </g>
    </g>
  </g>
</svg>
