<svg xmlns="http://www.w3.org/2000/svg" xmlns:xlink="http://www.w3.org/1999/xlink" width="295" height="310" viewBox="0 0 295 310">
  <defs>
    <clipPath id="clip-path">
      <rect id="Rectangle_404094" data-name="Rectangle 404094" width="276.882" height="309" fill="none"/>
    </clipPath>
    <clipPath id="clip-path-3">
      <rect id="Rectangle_404091" data-name="Rectangle 404091" width="62.366" height="171.112" fill="none"/>
    </clipPath>
  </defs>
  <g id="img2" transform="translate(-180 -683)">
    <rect id="Rectangle_403884" data-name="Rectangle 403884" width="295" height="310" transform="translate(180 683)" fill="none"/>
    <g id="Group_1101790" data-name="Group 1101790" transform="translate(189 684)">
      <g id="Group_1101789" data-name="Group 1101789" transform="translate(0)" clip-path="url(#clip-path)">
        <g id="Group_1101788" data-name="Group 1101788">
          <g id="Group_1101787" data-name="Group 1101787" clip-path="url(#clip-path)">
            <path id="Path_876004" data-name="Path 876004" d="M216.5,301.055c8.95,5.167,23.46,5.167,32.409,0s8.95-13.544,0-18.711-23.46-5.167-32.41,0-8.95,13.544,0,18.711" transform="translate(-171.444 -22.673)" fill="#b2d3ea"/>
            <path id="Path_876005" data-name="Path 876005" d="M141.634,285.888l74.328-42.382c2.718-1.569,2.377-4.31-.761-6.122l-42.766-24.691c-3.139-1.812-7.887-2.009-10.605-.439L87.5,254.634c-2.718,1.57-2.377,4.311.762,6.123l42.766,24.69c3.139,1.812,7.887,2.01,10.605.44" transform="translate(-19.606 -17.195)" fill="#b2d3ea"/>
            <path id="Path_876006" data-name="Path 876006" d="M80.459,225.222h0V51.7l68.984-18.055,12.706-7.336c2.916-1.684,8.01-1.472,11.377.471l11.855,6.844,36.794-.02-10.9,167.51a3.3,3.3,0,0,1-1.954,3.048l-68.84,51.944c-2.916,1.684-8.01,1.472-11.378-.472L83.229,229.148c-1.943-1.122-2.88-2.574-2.77-3.926" transform="translate(-19.191 -2.05)" fill="#396caa"/>
            <path id="Path_876007" data-name="Path 876007" d="M113.487,25.183a13.126,13.126,0,0,1,6.1,1.6l11.854,6.844,36.794-.02V207.594a3.3,3.3,0,0,1-1.953,3.048L86.544,256.108a10.3,10.3,0,0,1-5.28,1.128L80.442,82.161Z" transform="translate(34.749 -2.05)" fill="#d4ecff"/>
            <path id="Path_876008" data-name="Path 876008" d="M179.271,261.334a12.961,12.961,0,0,1-9.094-.1V84.958h9.094Z" transform="translate(-58.71 -6.917)" fill="#5793ce"/>
            <path id="Path_876009" data-name="Path 876009" d="M140.474,80.13l79.736-45.466c2.917-1.684,2.551-4.624-.817-6.569L173.515,1.608c-3.368-1.944-8.461-2.155-11.377-.471L82.4,46.6c-2.916,1.683-2.55,4.624.817,6.568L129.1,79.659c3.367,1.944,8.461,2.155,11.377.471" transform="translate(-19.18 0)" fill="#d4ecff"/>
            <path id="Path_876010" data-name="Path 876010" d="M83.212,52.617,129.09,79.1c3.368,1.945,8.461,2.156,11.378.472L220.2,34.111a4.393,4.393,0,0,0,1.455-1.292c1,1.612.547,3.361-1.455,4.518L140.467,82.8c-2.916,1.684-8.01,1.472-11.378-.471L83.212,55.843c-2.616-1.51-3.412-3.621-2.272-5.277a6.364,6.364,0,0,0,2.272,2.051" transform="translate(-19.174 -2.672)" fill="#fafdff"/>
            <path id="Path_876011" data-name="Path 876011" d="M141.137,63.008l53.087-30.772c1.364-.788,1.193-2.164-.382-3.074l-21.469-12.4a5.918,5.918,0,0,0-5.324-.22L113.963,47.318c-1.365.788-1.193,2.164.382,3.074l21.468,12.4a5.918,5.918,0,0,0,5.324.22" transform="translate(-22.1 -1.304)" fill="#173d7a"/>
            <path id="Path_876012" data-name="Path 876012" d="M141.036,34.822l3.076-1.776c.188-.109.165-.3-.053-.425l-2.97-1.715a.821.821,0,0,0-.737-.031l-3.076,1.777c-.189.109-.165.3.052.425l2.971,1.715a.818.818,0,0,0,.737.03" transform="translate(6.661 -2.508)" fill="#d4ecff"/>
            <path id="Path_876013" data-name="Path 876013" d="M152.224,41.255l3.076-1.776c.188-.109.165-.3-.053-.425l-2.97-1.715a.821.821,0,0,0-.737-.031l-3.076,1.777c-.189.109-.165.3.053.425l2.97,1.715a.818.818,0,0,0,.737.03" transform="translate(-14.804 -3.032)" fill="#d4ecff"/>
            <path id="Path_876014" data-name="Path 876014" d="M163.411,47.688l3.077-1.777c.187-.108.165-.3-.054-.425l-2.969-1.714a.821.821,0,0,0-.737-.031l-3.076,1.777c-.19.108-.166.3.053.425l2.97,1.715a.816.816,0,0,0,.736.03" transform="translate(-36.269 -3.555)" fill="#d4ecff"/>
            <path id="Path_876015" data-name="Path 876015" d="M174.6,54.121l3.076-1.777c.188-.108.165-.3-.053-.424l-2.97-1.715a.821.821,0,0,0-.737-.031l-3.076,1.777c-.188.109-.165.3.053.425l2.97,1.715a.818.818,0,0,0,.737.03" transform="translate(-57.732 -4.079)" fill="#d4ecff"/>
            <path id="Path_876016" data-name="Path 876016" d="M194.216,32.235l-.062.036c-.1-.073-.2-.15-.32-.22L172.364,19.657a5.913,5.913,0,0,0-5.323-.22L114.017,50.172c-1.258-.9-1.323-2.127-.062-2.854l53.087-30.772a5.916,5.916,0,0,1,5.323.22l21.469,12.4c1.575.909,1.747,2.285.382,3.074" transform="translate(-22.092 -1.304)" fill="#5793ce"/>
            <path id="Path_876017" data-name="Path 876017" d="M95.378,119.928,154.3,85.912a7.364,7.364,0,0,0,3.075-5.876V69.242c0-2.265-1.377-3.306-3.075-2.325L95.378,100.932a7.367,7.367,0,0,0-3.075,5.876V117.6c0,2.264,1.377,3.306,3.075,2.325" transform="translate(34.724 -5.418)" fill="#5793ce"/>
            <path id="Path_876018" data-name="Path 876018" d="M151.866,113.7l2.769-1.6a1.606,1.606,0,0,0,.671-1.281v-2.957c0-.494-.3-.721-.671-.507l-2.769,1.6a1.606,1.606,0,0,0-.671,1.281v2.957c0,.494.3.721.671.507" transform="translate(-17.307 -8.735)" fill="#173d7a"/>
            <path id="Path_876019" data-name="Path 876019" d="M141.788,107.884l2.769-1.6a1.606,1.606,0,0,0,.671-1.28v-2.958c0-.493-.3-.721-.671-.507l-2.769,1.6a1.606,1.606,0,0,0-.671,1.281v2.957c0,.494.3.721.671.507" transform="translate(2.028 -8.261)" fill="#173d7a"/>
            <path id="Path_876020" data-name="Path 876020" d="M95.378,162.384,154.3,128.368a7.364,7.364,0,0,0,3.075-5.876V111.7c0-2.265-1.377-3.306-3.075-2.326L95.378,143.388a7.367,7.367,0,0,0-3.075,5.876v10.794c0,2.264,1.377,3.306,3.075,2.325" transform="translate(34.724 -8.875)" fill="#5793ce"/>
            <path id="Path_876021" data-name="Path 876021" d="M151.866,156.158l2.769-1.6a1.606,1.606,0,0,0,.671-1.281v-2.958c0-.493-.3-.72-.671-.507l-2.769,1.6a1.606,1.606,0,0,0-.671,1.281v2.957c0,.494.3.721.671.507" transform="translate(-17.307 -12.191)" fill="#173d7a"/>
            <path id="Path_876022" data-name="Path 876022" d="M141.788,150.339l2.769-1.6a1.606,1.606,0,0,0,.671-1.281V144.5c0-.493-.3-.721-.671-.507l-2.769,1.6a1.606,1.606,0,0,0-.671,1.281v2.957c0,.494.3.721.671.507" transform="translate(2.028 -11.718)" fill="#d4ecff"/>
            <path id="Path_876023" data-name="Path 876023" d="M95.378,204.839,154.3,170.823a7.365,7.365,0,0,0,3.075-5.876V154.153c0-2.265-1.377-3.306-3.075-2.326L95.378,185.843a7.366,7.366,0,0,0-3.075,5.876v10.794c0,2.264,1.377,3.306,3.075,2.325" transform="translate(34.724 -12.332)" fill="#5793ce"/>
            <path id="Path_876024" data-name="Path 876024" d="M151.866,198.614l2.769-1.6a1.606,1.606,0,0,0,.671-1.28v-2.958c0-.493-.3-.721-.671-.507l-2.769,1.6a1.606,1.606,0,0,0-.671,1.281v2.957c0,.494.3.721.671.507" transform="translate(-17.307 -15.648)" fill="#d4ecff"/>
            <path id="Path_876025" data-name="Path 876025" d="M141.788,192.795l2.769-1.6a1.606,1.606,0,0,0,.671-1.281v-2.957c0-.494-.3-.721-.671-.507l-2.769,1.6a1.606,1.606,0,0,0-.671,1.281v2.957c0,.494.3.721.671.507" transform="translate(2.028 -15.174)" fill="#173d7a"/>
            <path id="Path_876026" data-name="Path 876026" d="M95.378,247.295,154.3,213.279a7.364,7.364,0,0,0,3.075-5.876V196.609c0-2.265-1.377-3.306-3.075-2.325L95.378,228.3a7.367,7.367,0,0,0-3.075,5.876V244.97c0,2.264,1.377,3.306,3.075,2.325" transform="translate(34.724 -15.789)" fill="#5793ce"/>
            <path id="Path_876027" data-name="Path 876027" d="M151.866,241.07l2.769-1.6a1.606,1.606,0,0,0,.671-1.281v-2.957c0-.494-.3-.721-.671-.507l-2.769,1.6a1.606,1.606,0,0,0-.671,1.281v2.957c0,.494.3.721.671.507" transform="translate(-17.307 -19.105)" fill="#d4ecff"/>
            <path id="Path_876028" data-name="Path 876028" d="M141.788,235.251l2.769-1.6a1.606,1.606,0,0,0,.671-1.28v-2.958c0-.493-.3-.721-.671-.507l-2.769,1.6a1.606,1.606,0,0,0-.671,1.281v2.957c0,.494.3.721.671.507" transform="translate(2.028 -18.631)" fill="#d4ecff"/>
            <path id="Path_876029" data-name="Path 876029" d="M221.427,121.411,191.244,104.13a7.367,7.367,0,0,1-3.075-5.876V87.459c0-2.264,1.377-3.305,3.075-2.325l30.183,17.281a7.367,7.367,0,0,1,3.075,5.876v10.794c0,2.264-1.377,3.306-3.075,2.325" transform="translate(-120.469 -6.902)" fill="#173d7a"/>
            <path id="Path_876030" data-name="Path 876030" d="M221.427,163.867l-30.183-17.281a7.367,7.367,0,0,1-3.075-5.876V129.915c0-2.264,1.377-3.305,3.075-2.325l30.183,17.281a7.367,7.367,0,0,1,3.075,5.876v10.794c0,2.264-1.377,3.306-3.075,2.325" transform="translate(-120.469 -10.358)" fill="#173d7a"/>
            <path id="Path_876031" data-name="Path 876031" d="M221.427,206.322l-30.183-17.281a7.367,7.367,0,0,1-3.075-5.876V172.37c0-2.264,1.377-3.305,3.075-2.325l30.183,17.281A7.367,7.367,0,0,1,224.5,193.2V204c0,2.264-1.377,3.306-3.075,2.325" transform="translate(-120.469 -13.815)" fill="#173d7a"/>
            <path id="Path_876032" data-name="Path 876032" d="M221.427,248.778,191.244,231.5a7.367,7.367,0,0,1-3.075-5.876V214.826c0-2.264,1.377-3.305,3.075-2.325l30.183,17.281a7.367,7.367,0,0,1,3.075,5.876v10.794c0,2.264-1.377,3.306-3.075,2.325" transform="translate(-120.469 -17.272)" fill="#173d7a"/>
            <g id="Group_1101786" data-name="Group 1101786" transform="translate(140.624 51.016)" opacity="0.5">
              <g id="Group_1101785" data-name="Group 1101785">
                <g id="Group_1101784" data-name="Group 1101784" clip-path="url(#clip-path-3)">
                  <path id="Path_876033" data-name="Path 876033" d="M80.448,96.4l30.027-21.057A297.972,297.972,0,0,1,142.8,55.539V210.066a3.3,3.3,0,0,1-1.954,3.048L117.108,226.65C79.15,219.584,80.448,177.3,80.448,177.3Z" transform="translate(-80.442 -55.538)" fill="#173d7a"/>
                </g>
              </g>
            </g>
            <path id="Path_876034" data-name="Path 876034" d="M.011,183.523v-80.9L30.039,81.566a284.58,284.58,0,0,1,45.6-26.328l30.028-13.617,12.123,7.1-13.416,9.729v63.33s1.647,51.625-52.829,111.2a63.987,63.987,0,0,1-18.353-1.308l.9,2.932-10.666-6.284q-1.382-.741-2.654-1.56l-.152-.089.008,0C-.882,212.752.011,183.523.011,183.523" transform="translate(159.084 -3.389)" fill="#721bd5"/>
            <path id="Path_876035" data-name="Path 876035" d="M.005,66.96q11.387-6.57,22.74-11.722L52.773,41.622l12.124,7.1L51.48,58.449V96.68Z" transform="translate(211.98 -3.389)" fill="#b45ef4"/>
            <path id="Path_876036" data-name="Path 876036" d="M52.568,62.969l25.3,14.61L57.028,89.612,31.716,75q10.421-6.6,20.852-12.03" transform="translate(169.877 -5.127)" fill="#7e23dc"/>
            <path id="Path_876037" data-name="Path 876037" d="M.006,191.252v-80.9L30.033,89.3a284.58,284.58,0,0,1,45.6-26.328L105.663,49.35v80.9s1.647,51.625-52.829,111.2C-1.642,244.78.006,191.252.006,191.252" transform="translate(171.213 -4.018)" fill="#983be9"/>
            <path id="Path_876038" data-name="Path 876038" d="M21.736,224.377c6.554,6.359,15.873,9.533,27.74,9.408,48.441-54.568,47.949-101.565,47.939-102l0-67.143L80.176,72.457a276.036,276.036,0,0,0-44.142,25.5L9.861,116.306V192.5l0,.278c-.006.2-.261,19.824,11.879,31.6" transform="translate(170.412 -5.263)" fill="#721bd5"/>
            <path id="Path_876039" data-name="Path 876039" d="M67.313,161.543a5.244,5.244,0,0,1-2.373,4.11c-1.311.757-2.374.143-2.374-1.37a5.243,5.243,0,0,1,2.374-4.11c1.311-.757,2.373-.143,2.373,1.37" transform="translate(152.096 -13.015)" fill="#ff2c9c"/>
            <path id="Path_876040" data-name="Path 876040" d="M59,156.744a5.245,5.245,0,0,1-2.372,4.11c-1.311.757-2.375.143-2.375-1.37a5.245,5.245,0,0,1,2.375-4.11c1.31-.757,2.372-.143,2.372,1.37" transform="translate(168.041 -12.624)" fill="#ff2c9c"/>
            <path id="Path_876041" data-name="Path 876041" d="M50.69,151.946a5.247,5.247,0,0,1-2.373,4.11c-1.311.757-2.374.143-2.374-1.37a5.244,5.244,0,0,1,2.374-4.11c1.31-.757,2.373-.143,2.373,1.37" transform="translate(183.989 -12.234)" fill="#ff2c9c"/>
            <path id="Path_876042" data-name="Path 876042" d="M226.188,149.659s.487,10.031,1.25,16.771,17-5.177,17-5.177v-7.676Z" transform="translate(-175.326 -12.185)" fill="#6614cf"/>
            <path id="Path_876043" data-name="Path 876043" d="M221.964,285.156c.243.61,4.451,5.73,8.657,7.011a9.677,9.677,0,0,0,3.864.534,1.274,1.274,0,0,0,1.035-1.7,15.978,15.978,0,0,0-8.07-8.895c-7.133-3.536-5.487,3.048-5.487,3.048" transform="translate(-162.455 -22.884)" fill="#173d7a"/>
            <path id="Path_876044" data-name="Path 876044" d="M241.741,287.66a34.754,34.754,0,0,1,2.072,6.828c.3,1.9-.743,4.36-1.6,5.994a1.75,1.75,0,0,1-2.727.471,10.115,10.115,0,0,1-3.414-6.526c-.488-5.243,0-6.157,0-6.157Z" transform="translate(-183.634 -23.421)" fill="#173d7a"/>
            <path id="Path_876045" data-name="Path 876045" d="M221.267,218.219a99.762,99.762,0,0,0,0,13.928c.549,7.316,2.513,41.528,2.879,49.758,0,0-.183,2.492,4.641,1.944s4.435-3.315,4.435-3.315,6.775-.092,6.988-4.085,6.939-47.683,6.939-63.39Z" transform="translate(-173.293 -17.347)" fill="#fdd762"/>
            <path id="Path_876046" data-name="Path 876046" d="M215.439,181.513l3.907,23.9,3.555-.062-.327-21.9Z" transform="translate(-143.916 -14.779)" fill="#ffc2b0"/>
            <path id="Path_876047" data-name="Path 876047" d="M215.033,158.479s5.273-.137,7.108,7.483,3.271,17.161,1.675,17.954c-4.792,2.38-7.824-.405-7.824-.405Z" transform="translate(-145.147 -12.903)" fill="#8a2ae3"/>
            <path id="Path_876048" data-name="Path 876048" d="M246.627,158.8a4.313,4.313,0,0,0-2.846-.156c-4.492,1.29-21.381,6.246-24.164,8.625-3.216,2.749,4.823,18.2,4.707,23.259s-.687,11.035-1.134,16.54-1.053,8.524,3.45,10.865,12.191,2.449,17.946-1.936,4.711-7.386,4.472-10.57-2.2-16.952-2.029-20.861a14.8,14.8,0,0,0,3.53-4.056c1.5-2.562-1.151-7.271-2.253-10.333s.622-6.562.281-9.06a2.836,2.836,0,0,0-1.959-2.318" transform="translate(-175.163 -12.903)" fill="#983be9"/>
            <path id="Path_876049" data-name="Path 876049" d="M242.191,164.184c.356,2.781-2.2,5.4-5.7,5.85s-6.634-1.442-6.99-4.224,2.2-5.4,5.7-5.85,6.634,1.442,6.99,4.225" transform="translate(-176.127 -13.019)" fill="#fff"/>
            <path id="Path_876050" data-name="Path 876050" d="M240.543,164.545c.254,1.989-1.569,3.86-4.074,4.181s-4.742-1.032-5-3.019,1.569-3.861,4.074-4.181,4.742,1.031,5,3.019" transform="translate(-176.289 -13.148)" fill="#ffc2b0"/>
            <path id="Path_876051" data-name="Path 876051" d="M237.494,157.568s-3.049-2.508-3.648-1.237-1.092,6.719-1.092,6.719l6.054,1.627-.919-5.522s1.212-1.028-.4-1.587" transform="translate(-175.729 -12.699)" fill="#ffc2b0"/>
            <path id="Path_876052" data-name="Path 876052" d="M241.93,150.359a9.04,9.04,0,1,1-8.491-9.557,9.04,9.04,0,0,1,8.491,9.557" transform="translate(-170.702 -11.463)" fill="#ffc2b0"/>
            <path id="Path_876053" data-name="Path 876053" d="M233.151,158.045c-.054.285-.1.59-.154.9.608,3.145,5.315,4.522,5.315,4.522l-.7-4.179s.57-.484.409-.968c-1.86-.587-4.2-1.107-4.874-.277" transform="translate(-175.456 -12.833)" fill="#ea9c92"/>
            <path id="Path_876054" data-name="Path 876054" d="M241.93,150.359a9.04,9.04,0,1,1-8.491-9.557,9.04,9.04,0,0,1,8.491,9.557" transform="translate(-170.702 -11.463)" fill="#ffc2b0"/>
            <path id="Path_876055" data-name="Path 876055" d="M250.5,192.286l1.012,24.191,3.537.365,2.3-21.777Z" transform="translate(-210.568 -15.656)" fill="#ffc2b0"/>
            <path id="Path_876056" data-name="Path 876056" d="M249.545,188.616c-1.169-5.165-3.481-16.579-3.481-16.579l-.988,11.352c1.14,3.367,2.12,6.457,2.079,8.247-.068,2.973-.295,6.258-.559,9.578v.01s4.12-7.442,2.95-12.608" transform="translate(-197.993 -14.007)" fill="#8a2ae3"/>
            <path id="Path_876057" data-name="Path 876057" d="M254.9,167.512s-2.828,1.08-4.428,9.767-2.8,17.388.056,18.509,5.238,1.964,6.076-.359,1.359-13.519,1.464-17.545.258-9.577-3.168-10.373" transform="translate(-209.771 -13.639)" fill="#b45ef4"/>
            <path id="Path_876058" data-name="Path 876058" d="M232.633,281.782a13.856,13.856,0,0,0,1.935-.2l1.326-53.181Z" transform="translate(-172.705 -18.597)" fill="#d8892b"/>
            <path id="Path_876059" data-name="Path 876059" d="M264.083,252.182l-1.882-2.456-19.789-11.457a2.754,2.754,0,0,1-1.147-2.2l.017-16.2-1.138-1.485,1.069-.619h0a.722.722,0,0,1,.775.045l22.428,12.985a2.755,2.755,0,0,1,1.146,2.2l-.019,17.645a1,1,0,0,1-.419.941Z" transform="translate(-209.274 -17.723)" fill="#983be9"/>
            <path id="Path_876060" data-name="Path 876060" d="M250.725,242.892l-1.406-.814L241.6,228.672l.008-8.8-1.137-1.485,1.069-.619h0a.723.723,0,0,1,.776.045l22.427,12.985a2.314,2.314,0,0,1,.845.988Z" transform="translate(-209.601 -17.723)" fill="#d29fff"/>
            <path id="Path_876061" data-name="Path 876061" d="M265.882,219.043l-.505-.66,1.069-.619v0a.721.721,0,0,1,.776.045l.395.229Z" transform="translate(-234.506 -17.723)" fill="#d29fff"/>
            <path id="Path_876062" data-name="Path 876062" d="M242.455,232.114a2.874,2.874,0,0,1,.937,1.89l-2.192,1.265-1.05-1.823Z" transform="translate(-187.107 -18.899)" fill="#983be9"/>
            <path id="Path_876063" data-name="Path 876063" d="M264.9,231.468l-22.427-12.985c-.635-.367-1.15.021-1.151.868L241.306,237a2.754,2.754,0,0,0,1.146,2.2l22.427,12.985c.635.367,1.15-.021,1.151-.868l.019-17.644a2.753,2.753,0,0,0-1.147-2.2" transform="translate(-210.827 -17.778)" fill="#721bd5"/>
            <path id="Path_876064" data-name="Path 876064" d="M252.729,218.141a54.8,54.8,0,0,0-.795,7.455c.141,1.809,1.109,4.791,1.844,4.729s.025-7.273,1.314-6.555,1.426,1.95,2.011,1.515-1.02-6.6-.592-9.269-3.783,2.126-3.783,2.126" transform="translate(-211.759 -17.522)" fill="#ffc2b0"/>
            <path id="Path_876065" data-name="Path 876065" d="M219.062,207.2a54.8,54.8,0,0,1,.795,7.455c-.141,1.809-1.109,4.791-1.844,4.729s-.025-7.273-1.314-6.555-1.426,1.95-2.011,1.515,1.02-6.6.592-9.269,3.783,2.126,3.783,2.126" transform="translate(-140.078 -16.631)" fill="#ffc2b0"/>
            <path id="Path_876066" data-name="Path 876066" d="M230.381,151.067c4.535,1.611,5.418.628,5.461.575.041-.273.075-.549.092-.831a9.01,9.01,0,0,0-.3-2.888l-11.765-1.589a12.829,12.829,0,0,0,6.515,4.733" transform="translate(-164.706 -11.915)" fill="#ea9c92"/>
            <path id="Path_876067" data-name="Path 876067" d="M241.924,141c-1.068-.916-4.925-5.445-11.834-4.377-4.318.669-7.958,3.614-8.765,10.333a15.446,15.446,0,0,0,4.179,12.283,3.8,3.8,0,0,0,.491-.249c1.73-1.138,1.916-1.765,1.916-1.77l.382-3.429a.957.957,0,0,0-.862-.95,1.726,1.726,0,0,1-1.266-.773c-.993-1.3-.535-3.321,1.45-3.4a1.522,1.522,0,0,0,1.585-1.127.811.811,0,0,1,1.059-.551c2.257.817,7.821,2.578,11.4,1.564,4.581-1.3,1.33-6.642.262-7.558" transform="translate(-170.371 -11.111)" fill="#6614cf"/>
            <path id="Path_876068" data-name="Path 876068" d="M228.837,155.866l2.765-.76a6.671,6.671,0,0,1-3.247,2.606c-1.927.53-2.228-1.1-2.228-1.1Z" transform="translate(-162.435 -12.629)" fill="#fff"/>
            <path id="Path_876069" data-name="Path 876069" d="M254.061,225.868l-2.356-1.349.885,1.445,1.191.44Z" transform="translate(-208.389 -18.28)" fill="#d29fff"/>
            <path id="Path_876070" data-name="Path 876070" d="M77.62,282.529c9.7-5.6,25.426-5.6,35.127,0s9.7,14.68,0,20.28-25.426,5.6-35.127,0-9.7-14.681,0-20.28M95.785,292.86a9.982,9.982,0,0,0,9.033,0c2.495-1.44,2.495-3.775,0-5.216a9.982,9.982,0,0,0-9.033,0c-2.495,1.44-2.495,3.775,0,5.216" transform="translate(92.244 -22.662)" fill="#b2d3ea"/>
            <path id="Path_876071" data-name="Path 876071" d="M167.94,300.081a23.33,23.33,0,0,0,4.807,3.608,34.272,34.272,0,0,0,6.25,2.775l-4.749,2.742-7.156.367-3.539,2.044,1.445.834L162.318,314l-2.89-1.668-4.682,2.7,4.7,2.716-3.458,2-3.353,1.935-4.18-2.412-6.192,3.575,2.364,1.365-3.978,2.3-2.364-1.365-1.867,1.078,1.88,3.74-6.018,3.474H110.173Z" transform="translate(-3.317 -24.433)" fill="#b2d3ea"/>
            <path id="Path_876072" data-name="Path 876072" d="M70.344,290.524v-6.716l1.979,1.117a17.055,17.055,0,0,1,5.3-4.53c9.7-5.6,25.427-5.6,35.127,0a16.2,16.2,0,0,1,5.829,5.315l1.446-1.9v6.715c0,3.673-2.42,7.349-7.275,10.151-9.7,5.6-25.427,5.6-35.127,0-4.855-2.8-7.28-6.478-7.274-10.151m25.525-4.377a9.982,9.982,0,0,0,9.033,0c2.495-1.44,2.495-3.775,0-5.216a9.982,9.982,0,0,0-9.033,0c-2.495,1.44-2.495,3.775,0,5.216" transform="translate(92.246 -22.488)" fill="#e8a200"/>
            <path id="Path_876073" data-name="Path 876073" d="M70.344,296.492l10.718-5.283,9.525-6.292a12.259,12.259,0,0,1,1.07,1.466l1.446-1.9V291.2c0,3.674-2.42,7.349-7.275,10.152A34.832,34.832,0,0,1,70.344,305.5Z" transform="translate(119.163 -23.163)" fill="#fdd762"/>
            <path id="Path_876074" data-name="Path 876074" d="M77.62,273.072c9.7-5.6,25.426-5.6,35.127,0s9.7,14.68,0,20.28-25.426,5.6-35.127,0-9.7-14.681,0-20.28M95.785,283.4a9.982,9.982,0,0,0,9.033,0c2.495-1.44,2.495-3.775,0-5.216a9.982,9.982,0,0,0-9.033,0c-2.495,1.44-2.495,3.775,0,5.216" transform="translate(92.244 -21.892)" fill="#fdd762"/>
            <path id="Path_876075" data-name="Path 876075" d="M83.452,277.3h13.48a34.675,34.675,0,0,1,3.588,1.029v11.424H83.452Zm4.958,8.933a9.982,9.982,0,0,0,9.033,0c2.495-1.44,2.495-3.775,0-5.216a9.982,9.982,0,0,0-9.033,0c-2.495,1.44-2.495,3.775,0,5.216" transform="translate(99.705 -22.578)" fill="#e8a200"/>
            <path id="Path_876076" data-name="Path 876076" d="M79.963,274.424c8.55-4.936,22.412-4.936,30.962,0s8.549,12.939,0,17.876-22.412,4.936-30.961,0-8.55-12.939,0-17.876m16.083,9.13a9.982,9.982,0,0,0,9.033,0c2.495-1.44,2.495-3.775,0-5.216a9.982,9.982,0,0,0-9.033,0c-2.495,1.44-2.495,3.775,0,5.216" transform="translate(91.983 -22.042)" fill="#f2b42a"/>
            <path id="Path_876077" data-name="Path 876077" d="M110.925,276.279c-8.549-4.936-22.412-4.936-30.962,0-3.866,2.232-5.978,5.092-6.347,8.011-.448-3.537,1.664-7.16,6.347-9.865,8.55-4.936,22.412-4.936,30.962,0,4.684,2.7,6.795,6.328,6.347,9.865-.37-2.919-2.481-5.779-6.347-8.011" transform="translate(91.983 -22.042)" fill="#e8a200"/>
            <path id="Path_876078" data-name="Path 876078" d="M167.94,297.892a23.332,23.332,0,0,0,4.807,3.608,34.274,34.274,0,0,0,6.25,2.775l-4.749,2.742-7.156.367-3.539,2.044,1.445.834-2.68,1.547-2.89-1.668-4.682,2.7,4.7,2.716-3.458,2-3.353,1.935-4.18-2.412-6.192,3.575,2.364,1.365-3.978,2.3-2.364-1.365-1.867,1.078,1.88,3.74-6.018,3.474H110.173Z" transform="translate(-3.317 -24.255)" fill="#f2b42a"/>
            <path id="Path_876079" data-name="Path 876079" d="M167.94,292.609a23.331,23.331,0,0,0,4.807,3.608,34.27,34.27,0,0,0,6.25,2.775l-4.749,2.742-7.156.367-3.539,2.044,1.445.834-2.68,1.547-2.89-1.668-4.682,2.7,4.7,2.716-3.458,2-3.353,1.935-4.18-2.412-6.192,3.575,2.364,1.365-3.978,2.3-2.364-1.365-1.867,1.078,1.88,3.74-6.018,3.474H110.173Z" transform="translate(-3.317 -23.824)" fill="#fdd762"/>
            <rect id="Rectangle_404092" data-name="Rectangle 404092" width="22.114" height="4.853" transform="translate(106.856 302.136)" fill="#e8a200"/>
            <path id="Path_876080" data-name="Path 876080" d="M154.278,326.108v-4.853l-2.364-1.365v4.853Z" transform="translate(-16.94 -26.046)" fill="#e8a200"/>
            <path id="Path_876081" data-name="Path 876081" d="M151.56,318.876v4.853l-3.977,2.3v-4.854Z" transform="translate(-10.245 -25.963)" fill="#eead00"/>
            <path id="Path_876082" data-name="Path 876082" d="M138.866,313.5v4.853l4.179,2.413V315.91Z" transform="translate(6.278 -25.525)" fill="#e8a200"/>
            <path id="Path_876083" data-name="Path 876083" d="M138.262,311.843V316.7l-6.81,3.932v-4.853Z" transform="translate(17.871 -25.39)" fill="#eead00"/>
            <path id="Path_876084" data-name="Path 876084" d="M160.476,325.173l.014,4.818-6.018,3.474v-4.854Z" transform="translate(-25.502 -26.476)" fill="#eead00"/>
            <path id="Path_876085" data-name="Path 876085" d="M125.413,307.623v4.853l2.68-1.547v-4.853Z" transform="translate(33.588 -24.921)" fill="#eead00"/>
            <path id="Path_876086" data-name="Path 876086" d="M122.5,302.542V307.4l-7.156.368V302.91Z" transform="translate(48.433 -24.633)" fill="#e8a200"/>
            <path id="Path_876087" data-name="Path 876087" d="M127.3,322.887l42.293-24.44-2.351-1.357-44.617,25.782Z" transform="translate(-5.355 -24.189)" fill="#e8a200"/>
            <path id="Path_876088" data-name="Path 876088" d="M167.244,298.266l-42.595,24.612-2.023-.006,44.617-25.782,2.351,1.358-1.018.588Z" transform="translate(-5.354 -24.189)" fill="#f2b42a"/>
            <path id="Path_876089" data-name="Path 876089" d="M110.173,307.153V302.3l4.748-2.742v4.854Z" transform="translate(60.758 -24.39)" fill="#e8a200"/>
            <path id="Path_876090" data-name="Path 876090" d="M128.329,305.944V310.8l2.89,1.669v-4.854Z" transform="translate(27.782 -24.91)" fill="#e8a200"/>
            <path id="Path_876091" data-name="Path 876091" d="M101.527,274.425c4.8-2.774,11.286-3.988,17.56-3.645v1.854c-6.274-.344-12.755.872-17.56,3.645-3.866,2.232-5.978,5.092-6.347,8.011-.448-3.537,1.664-7.16,6.347-9.865" transform="translate(70.419 -22.042)" fill="#fdd762"/>
            <path id="Path_876092" data-name="Path 876092" d="M271.669,126.055l19.289-11.223c1.629-.94,1.425-2.582-.456-3.667l-18.385-10.712a7.061,7.061,0,0,0-6.351-.264l-19.29,11.224c-1.628.94-1.423,2.581.456,3.666l18.387,10.712a7.056,7.056,0,0,0,6.35.264" transform="translate(-240.574 -8.106)" fill="#b2d3ea"/>
            <path id="Path_876093" data-name="Path 876093" d="M240.159,90.038h0v-4.66l24.745-.014-.17-.006c1.963-1.133,5.391-.991,7.658.318l-.733-.306,24.767-.014v4.973a2.219,2.219,0,0,1-1.315,2.052l-23.259,13.533c-1.963,1.133-5.392.99-7.658-.318l-22.17-12.917c-1.307-.755-1.938-1.732-1.865-2.643" transform="translate(-240.149 -6.888)" fill="#721bd5"/>
            <path id="Path_876094" data-name="Path 876094" d="M240.153,84.6a8.835,8.835,0,0,1,4.105,1.077l-.733-.306,24.768-.014v4.974a2.219,2.219,0,0,1-1.315,2.051l-23.259,13.533a6.932,6.932,0,0,1-3.554.759Z" transform="translate(-212.015 -6.888)" fill="#983be9"/>
            <path id="Path_876095" data-name="Path 876095" d="M240.154,85.427l2.8,0V90.4a2.217,2.217,0,0,1-1.314,2.051l-1.488.86Z" transform="translate(-186.679 -6.955)" fill="#b45ef4"/>
            <path id="Path_876096" data-name="Path 876096" d="M273.569,107.486a8.722,8.722,0,0,1-6.121-.07V100.9h6.121Z" transform="translate(-242.36 -8.216)" fill="#7e23dc"/>
            <path id="Path_876097" data-name="Path 876097" d="M271.85,99.6l23.259-13.533c1.963-1.134,1.717-3.113-.55-4.422L272.39,68.732c-2.267-1.308-5.7-1.45-7.658-.317L241.473,81.948c-1.963,1.134-1.717,3.113.549,4.422l22.17,12.916c2.266,1.309,5.7,1.451,7.658.318" transform="translate(-240.147 -5.508)" fill="#8a2ae3"/>
            <path id="Path_876098" data-name="Path 876098" d="M260.138,81.414a4.844,4.844,0,0,0,4.383-.021,1.336,1.336,0,0,0-.012-2.53,4.842,4.842,0,0,0-4.382.021,1.335,1.335,0,0,0,.011,2.53" transform="translate(-226.658 -6.379)" fill="#b45ef4"/>
            <path id="Path_876099" data-name="Path 876099" d="M267.791,85.882a4.845,4.845,0,0,0,4.382-.021,1.336,1.336,0,0,0-.012-2.53,4.842,4.842,0,0,0-4.382.021,1.335,1.335,0,0,0,.012,2.53" transform="translate(-241.339 -6.743)" fill="#b45ef4"/>
            <path id="Path_876100" data-name="Path 876100" d="M275.443,90.35a4.842,4.842,0,0,0,4.382-.021,1.335,1.335,0,0,0-.013-2.53,4.841,4.841,0,0,0-4.381.021,1.335,1.335,0,0,0,.012,2.53" transform="translate(-256.02 -7.107)" fill="#b45ef4"/>
          </g>
        </g>
      </g>
    </g>
  </g>
</svg>
