<svg xmlns="http://www.w3.org/2000/svg" xmlns:xlink="http://www.w3.org/1999/xlink" width="99" height="99" viewBox="0 0 99 99">
  <defs>
    <clipPath id="clip-path">
      <rect id="Rectangle_403416" data-name="Rectangle 403416" width="97.687" height="91.902" fill="#d1f3f5"/>
    </clipPath>
    <clipPath id="clip-path-2">
      <path id="Path_875268" data-name="Path 875268" d="M1.5,23.675l-1.5.6V36.6a8.4,8.4,0,0,0,3.3,6.507L40.867,73.755a13.171,13.171,0,0,0,15.954,0L94.388,43.113a8.425,8.425,0,0,0,3.3-6.393c0-.1,0-.206,0-.309l.006,0V24.386l-2.354-1.849A12.143,12.143,0,0,1,85.987,32.73L59.069,54.97,47.32,60.964l-37.5-27.34.867-.708c-3.2-2.116-4.931-6.953-6.664-11.367Z" transform="translate(0 -21.549)" fill="#61dfe4"/>
    </clipPath>
    <clipPath id="clip-path-3">
      <rect id="Rectangle_403409" data-name="Rectangle 403409" width="97.687" height="91.903" fill="none"/>
    </clipPath>
    <clipPath id="clip-path-4">
      <rect id="Rectangle_403408" data-name="Rectangle 403408" width="48.843" height="53.75" fill="none"/>
    </clipPath>
    <clipPath id="clip-path-5">
      <path id="Path_875270" data-name="Path 875270" d="M34.642,9.4,3.311,35.8c1.733,4.413,3.46,9.251,6.664,11.367l35.6-29.041a4.219,4.219,0,0,1,5.109,0L85.662,46.66l-.388.323A12.143,12.143,0,0,0,94.62,36.789L55.364,5.942,43.942,1.678Z" transform="translate(-3.311 -1.678)" fill="#61dfe4"/>
    </clipPath>
    <clipPath id="clip-path-7">
      <rect id="Rectangle_403411" data-name="Rectangle 403411" width="44.819" height="45.491" fill="none"/>
    </clipPath>
    <clipPath id="clip-path-8">
      <path id="Path_875272" data-name="Path 875272" d="M46.289,72.571,8.722,41.927a2.585,2.585,0,0,1,0-4.17L46.288,7.115a4.217,4.217,0,0,1,5.109,0L88.965,37.759a2.583,2.583,0,0,1,0,4.168L51.4,72.57a4.218,4.218,0,0,1-5.109,0M48.7,0a12.642,12.642,0,0,0-7.835,2.691L3.3,33.335a8.067,8.067,0,0,0,0,13.013L40.867,76.993a13.166,13.166,0,0,0,15.954,0L94.388,46.349a8.067,8.067,0,0,0,0-13.013L56.82,2.691A12.642,12.642,0,0,0,48.985,0Z" transform="translate(-0.001)" fill="#98baff"/>
    </clipPath>
    <clipPath id="clip-path-10">
      <path id="Path_875275" data-name="Path 875275" d="M44.962,72.924,7.4,42.282a3.659,3.659,0,0,1,0-5.9L44.961,5.738a5.97,5.97,0,0,1,7.232,0L89.76,36.383a3.657,3.657,0,0,1,0,5.9L52.193,72.924a5.97,5.97,0,0,1-7.231,0M41.66,3.046,4.094,33.689a7,7,0,0,0,0,11.284L41.662,75.619a11.426,11.426,0,0,0,13.833,0L93.062,44.973a6.994,6.994,0,0,0,0-11.282L55.493,3.046a11.416,11.416,0,0,0-13.833,0" transform="translate(-1.234 -0.712)" fill="#98baff"/>
    </clipPath>
    <clipPath id="clip-path-11">
      <rect id="Rectangle_403406" data-name="Rectangle 403406" width="38.332" height="22.221" fill="#0f398d"/>
    </clipPath>
    <clipPath id="clip-path-12">
      <rect id="Rectangle_403518" data-name="Rectangle 403518" width="82.49" height="80.524" fill="#cbdcff"/>
    </clipPath>
    <clipPath id="clip-path-13">
      <rect id="Rectangle_403232" data-name="Rectangle 403232" width="99" height="79.995" fill="#0f398d"/>
    </clipPath>
    <clipPath id="clip-path-14">
      <rect id="Rectangle_404097" data-name="Rectangle 404097" width="49.038" height="49.025" fill="#0c2d70"/>
    </clipPath>
  </defs>
  <g id="img7" transform="translate(-1191 -2218.7)">
    <g id="Group_1100971" data-name="Group 1100971" transform="translate(1191 2218.7)">
      <g id="Group_1100744" data-name="Group 1100744" transform="translate(0.004 7.098)">
        <g id="Group_1100514" data-name="Group 1100514" clip-path="url(#clip-path)">
          <g id="Group_1100495" data-name="Group 1100495" transform="translate(0 37.005)">
            <g id="Group_1100494" data-name="Group 1100494" clip-path="url(#clip-path-2)">
              <path id="Path_875399" data-name="Path 875399" d="M18.655,14.846,127.412,0,108.757,115.115,0,129.961Z" transform="translate(-39.284 50.577) rotate(-60)" fill="#61dfe4"/>
            </g>
          </g>
          <g id="Group_1100500" data-name="Group 1100500" transform="translate(0 0)">
            <g id="Group_1100499" data-name="Group 1100499" clip-path="url(#clip-path-3)">
              <g id="Group_1100498" data-name="Group 1100498" transform="translate(48.843 38.152)" opacity="0.3">
                <g id="Group_1100497" data-name="Group 1100497">
                  <g id="Group_1100496" data-name="Group 1100496" clip-path="url(#clip-path-4)">
                    <path id="Path_875269" data-name="Path 875269" d="M77.329,32.25,50.411,54.49,40.185,59.707V75.968a12.671,12.671,0,0,0,7.978-2.691L85.73,42.632a8.422,8.422,0,0,0,3.3-6.392c0-.1,0-.208,0-.311l.006,0V23.908l-2.153-1.692h-.225A12.151,12.151,0,0,1,77.329,32.25" transform="translate(-40.185 -22.217)" fill="#0f054c"/>
                  </g>
                </g>
              </g>
            </g>
          </g>
          <g id="Group_1100502" data-name="Group 1100502" transform="translate(4.024 2.882)">
            <g id="Group_1100501" data-name="Group 1100501" clip-path="url(#clip-path-5)">
              <path id="Path_875400" data-name="Path 875400" d="M17.015,13.147,113.324,0,96.309,105,0,118.145Z" transform="matrix(0.5, -0.866, 0.866, 0.5, -33.835, 42.279)" fill="#61dfe4"/>
            </g>
          </g>
          <g id="Group_1100507" data-name="Group 1100507" transform="translate(0 0)">
            <g id="Group_1100506" data-name="Group 1100506" clip-path="url(#clip-path-3)">
              <g id="Group_1100505" data-name="Group 1100505" transform="translate(4.024 2.881)" opacity="0.3">
                <g id="Group_1100504" data-name="Group 1100504">
                  <g id="Group_1100503" data-name="Group 1100503" clip-path="url(#clip-path-7)">
                    <path id="Path_875271" data-name="Path 875271" d="M48.13,3.241,43.942,1.677,34.642,9.4,3.311,35.8c1.733,4.413,3.459,9.253,6.664,11.368l35.6-29.041a4.062,4.062,0,0,1,2.555-.86Z" transform="translate(-3.311 -1.678)" fill="#0f054c"/>
                  </g>
                </g>
              </g>
            </g>
          </g>
          <g id="Group_1100509" data-name="Group 1100509" transform="translate(0.001)">
            <g id="Group_1100508" data-name="Group 1100508" clip-path="url(#clip-path-8)">
              <rect id="Rectangle_403413" data-name="Rectangle 403413" width="99.885" height="80.582" transform="translate(-1.099 0)" fill="#98baff"/>
            </g>
          </g>
          <g id="Group_1100511" data-name="Group 1100511" transform="translate(0 0)">
            <g id="Group_1100510" data-name="Group 1100510" clip-path="url(#clip-path-3)">
              <path id="Path_875273" data-name="Path 875273" d="M87.606,35.147,50.038,4.5a4.217,4.217,0,0,0-5.109,0L7.363,35.146a2.592,2.592,0,0,0-.935,2.833,2.846,2.846,0,0,1,.935-1.334L44.93,6a4.217,4.217,0,0,1,5.109,0L87.606,36.645a2.85,2.85,0,0,1,.935,1.336,2.592,2.592,0,0,0-.935-2.833" transform="translate(1.359 2.612)" fill="#fff"/>
              <path id="Path_875274" data-name="Path 875274" d="M94.388,29.4,56.821,60.039a13.166,13.166,0,0,1-15.954,0L3.3,29.395A8.537,8.537,0,0,1,.04,23.637,8.284,8.284,0,0,0,3.3,30.894L40.867,61.539a13.171,13.171,0,0,0,15.954,0L94.388,30.894a8.281,8.281,0,0,0,3.259-7.255A8.539,8.539,0,0,1,94.388,29.4" transform="translate(0.001 16.954)" fill="#fff"/>
            </g>
          </g>
          <g id="Group_1100513" data-name="Group 1100513" transform="translate(1.5 1.223)">
            <g id="Group_1100512" data-name="Group 1100512" clip-path="url(#clip-path-10)">
              <rect id="Rectangle_403415" data-name="Rectangle 403415" width="96.595" height="78.015" transform="translate(-0.954 0)" fill="#98baff"/>
            </g>
          </g>
        </g>
      </g>
      <g id="Group_1100747" data-name="Group 1100747" transform="translate(0 76.779)">
        <g id="Group_1100491" data-name="Group 1100491" transform="translate(0 0)" clip-path="url(#clip-path-11)">
          <path id="Path_875261" data-name="Path 875261" d="M30.025,21.071a1.151,1.151,0,1,1,1.151,1.15,1.151,1.151,0,0,1-1.151-1.15m-4.854,1.15a1.151,1.151,0,1,0-1.151-1.15,1.15,1.15,0,0,0,1.151,1.15m-6.005,0a1.151,1.151,0,1,0-1.151-1.15,1.15,1.15,0,0,0,1.151,1.15m-6.005,0a1.151,1.151,0,1,0-1.151-1.15,1.15,1.15,0,0,0,1.151,1.15m-6.005,0a1.151,1.151,0,1,0-1.151-1.15,1.15,1.15,0,0,0,1.151,1.15m-6.005,0A1.151,1.151,0,1,0,0,21.071a1.15,1.15,0,0,0,1.151,1.15m30.025-6.528a1.151,1.151,0,1,0-1.151-1.151,1.151,1.151,0,0,0,1.151,1.151m-6.005,0a1.151,1.151,0,1,0-1.151-1.151,1.151,1.151,0,0,0,1.151,1.151m-6.005,0a1.151,1.151,0,1,0-1.151-1.151,1.151,1.151,0,0,0,1.151,1.151m-6.005,0a1.151,1.151,0,1,0-1.151-1.151,1.151,1.151,0,0,0,1.151,1.151m-6.005,0a1.151,1.151,0,1,0-1.151-1.151,1.151,1.151,0,0,0,1.151,1.151m-6.005,0A1.151,1.151,0,1,0,0,14.542a1.151,1.151,0,0,0,1.151,1.151M31.176,9.165a1.151,1.151,0,1,0-1.151-1.151,1.151,1.151,0,0,0,1.151,1.151M36.03,21.071a1.151,1.151,0,1,1,1.151,1.15,1.151,1.151,0,0,1-1.151-1.15m1.151-5.378a1.151,1.151,0,1,0-1.151-1.151,1.151,1.151,0,0,0,1.151,1.151m0-6.528A1.151,1.151,0,1,0,36.03,8.014a1.151,1.151,0,0,0,1.151,1.151m-12.01,0A1.151,1.151,0,1,0,24.02,8.014a1.151,1.151,0,0,0,1.151,1.151m-6.005,0a1.151,1.151,0,1,0-1.151-1.151,1.151,1.151,0,0,0,1.151,1.151m-6.005,0A1.151,1.151,0,1,0,12.01,8.014a1.151,1.151,0,0,0,1.151,1.151m-6.005,0A1.151,1.151,0,1,0,6.005,8.014,1.151,1.151,0,0,0,7.156,9.165m-6.005,0A1.151,1.151,0,1,0,0,8.014,1.151,1.151,0,0,0,1.151,9.165M31.176,2.3a1.151,1.151,0,1,0-1.151-1.151A1.151,1.151,0,0,0,31.176,2.3m6.005,0A1.151,1.151,0,1,0,36.03,1.151,1.151,1.151,0,0,0,37.181,2.3m-12.01,0A1.151,1.151,0,1,0,24.02,1.151,1.151,1.151,0,0,0,25.171,2.3m-6.005,0a1.151,1.151,0,1,0-1.151-1.151A1.151,1.151,0,0,0,19.166,2.3m-6.005,0A1.151,1.151,0,1,0,12.01,1.151,1.151,1.151,0,0,0,13.161,2.3m-6.005,0A1.151,1.151,0,1,0,6.005,1.151,1.151,1.151,0,0,0,7.156,2.3m-6.005,0A1.151,1.151,0,1,0,0,1.151,1.151,1.151,0,0,0,1.151,2.3" transform="translate(0 0)" fill="#0f398d"/>
        </g>
      </g>
      <g id="Group_1100749" data-name="Group 1100749" transform="translate(7.664)">
        <g id="Group_1100748" data-name="Group 1100748" clip-path="url(#clip-path-12)">
          <path id="Path_875398" data-name="Path 875398" d="M8.527,0H73.888a8.471,8.471,0,0,1,8.564,8.374l-.043,42.7L46.453,79.117a10.488,10.488,0,0,1-10.493,0L-.184,49.467-.036,8.374A8.47,8.47,0,0,1,8.527,0" transform="translate(0.039 0)" fill="#cbdcff"/>
        </g>
      </g>
      <g id="Group_1100745" data-name="Group 1100745" transform="translate(0 1.529)">
        <g id="Group_1100096" data-name="Group 1100096" transform="translate(0 0)" clip-path="url(#clip-path-13)">
          <path id="Path_873771" data-name="Path 873771" d="M49.5,80a11.773,11.773,0,0,1-7.351-2.447L3.141,46.183a7.662,7.662,0,0,1,0-12.372L42.147,2.445a12.282,12.282,0,0,1,14.705,0L95.86,33.812a7.662,7.662,0,0,1,0,12.372L56.854,77.549A11.777,11.777,0,0,1,49.5,80M49.5.938a11.235,11.235,0,0,0-7.011,2.331L3.483,34.633a6.537,6.537,0,0,0,0,10.725L42.492,76.727a11.713,11.713,0,0,0,14.02,0L95.518,45.361a6.537,6.537,0,0,0,0-10.725L56.511,3.269A11.235,11.235,0,0,0,49.5.938" transform="translate(0 -0.001)" fill="#0f398d"/>
        </g>
      </g>
      <rect id="Rectangle_403516" data-name="Rectangle 403516" width="82.49" height="44.076" rx="9" transform="translate(7.664 0.529)" fill="#cbdcff"/>
    </g>
    <g id="Group_1101797" data-name="Group 1101797" transform="translate(1215.48 2227.912)">
      <g id="Group_1101796" data-name="Group 1101796" clip-path="url(#clip-path-14)">
        <path id="Path_876113" data-name="Path 876113" d="M46.474,29.346c1.321-.1,2.321.18,2.45,1.645.359,4.078-.266,8.692-.02,12.827a5.807,5.807,0,0,1-5.183,5.087c-4.012-.292-8.615.412-12.556-.032-2.421-.273-5.107-2.628-5.107-5.162v-3H3.257c-1.364,0-3.438-2.4-3.244-3.847L.018,3.735A4.133,4.133,0,0,1,3.864,0h36.2a4.088,4.088,0,0,1,3.974,3.973c.336,4.872-.265,10.127,0,15.04.994,1.316,2.442,3.568,2.442,5.26ZM42.44,6.485V3.856a8.026,8.026,0,0,0-.317-.905A2.659,2.659,0,0,0,39.932,1.6L4.352,1.589A2.7,2.7,0,0,0,1.924,2.951a8.025,8.025,0,0,0-.317.905V6.485Zm0,1.712H1.607V36.987a3,3,0,0,0,2.017,2.139H26.058V30.752a4.805,4.805,0,0,1,.311-.667c.511-.785,1.275-.79,2.135-.738.016-3.056-.32-5.939,1.293-8.671a8.963,8.963,0,0,1,10.32-3.983,15.664,15.664,0,0,1,2.323,1.039Zm2.445,21.15v-4.34c0-6-7.571-9.233-12.161-5.314-1,.854-2.51,3.134-2.51,4.459v5.2Zm2.445,1.589H27.769v1.712H30.52c.548,0,.575,1.589-.122,1.589H27.769v1.589h2.506c.586,0,.918,1.022.519,1.437a5.026,5.026,0,0,1-.519.275H27.769v1.589H30.4c.7,0,.67,1.589.122,1.589H27.769v1.712H30.52c.548,0,.575,1.589-.122,1.589H27.769a4.279,4.279,0,0,0,4.091,3.305,92.92,92.92,0,0,0,11.257,0,4.221,4.221,0,0,0,4.09-3.306H44.579c-.638,0-.73-1.589,0-1.589H47.33c-.058-.348.131-1.487-.114-1.658a22.963,22.963,0,0,0-2.634-.056c-.872-.167-.525-1.587,0-1.587H47.33V37.537H44.824a.86.86,0,0,1,0-1.712H47.33V34.237H44.579c-.522,0-.869-1.419,0-1.587a22.964,22.964,0,0,0,2.634-.056c.245-.171.056-1.311.114-1.658" transform="translate(0)" fill="#0c2d70"/>
        <path id="Path_876114" data-name="Path 876114" d="M290,293.856a.839.839,0,0,1-1.428-.526c-.061-.394.085-1.69-.027-1.868a6.423,6.423,0,0,1-.957-.57,2.517,2.517,0,0,1,.5-3.778,2.449,2.449,0,0,1,3.37,3.369c-.316.543-1.206.929-1.277,1.168-.158.525.171,1.839-.178,2.207m.184-4.659a.808.808,0,1,0-.808.808.808.808,0,0,0,.808-.808" transform="translate(-251.868 -251.704)" fill="#0c2d70"/>
        <path id="Path_876115" data-name="Path 876115" d="M47.5,211.909a.853.853,0,0,1,1.582.252,15.519,15.519,0,0,1-.021,2.9,1.821,1.821,0,0,1-1.739,1.318,45.218,45.218,0,0,1-6.363,0,1.729,1.729,0,0,1-1.655-1.646,47.637,47.637,0,0,1,0-6.489,1.619,1.619,0,0,1,1.3-1.638,23.134,23.134,0,0,1,3.881.022c.912.178.418,1.56.024,1.56H40.9v6.48h6.6c.13-.729-.175-2.115,0-2.751" transform="translate(-34.404 -181.279)" fill="#0c2d70"/>
        <path id="Path_876116" data-name="Path 876116" d="M41.021,94.467v6.479h6.6V98.2c0-.537,1.411-.81,1.586.125a17.938,17.938,0,0,1-.025,3.025,1.619,1.619,0,0,1-1.494,1.2,47.778,47.778,0,0,1-6.855,0,1.516,1.516,0,0,1-1.319-1.126,44.326,44.326,0,0,1-.088-7.012A1.7,1.7,0,0,1,41.1,92.769c.657-.078,3.354-.119,3.78.227a.854.854,0,0,1-.493,1.471Z" transform="translate(-34.524 -81.38)" fill="#0c2d70"/>
        <path id="Path_876117" data-name="Path 876117" d="M141.014,132.227c3.272.217,7.163-.391,10.362-.029,1.44.163,1.361,1.569.125,1.714-3.284-.285-7.189.372-10.4,0-1.144-.133-1.241-1.48-.09-1.685" transform="translate(-123.057 -115.933)" fill="#0c2d70"/>
        <path id="Path_876118" data-name="Path 876118" d="M66.133,93.66a.839.839,0,0,1,1.363.935l-4.2,5.086c-.671.9-2.532-1.121-2.876-1.664a.826.826,0,0,1,.3-1.277c.765-.35,1.379.75,1.892,1.158Z" transform="translate(-52.874 -82.001)" fill="#0c2d70"/>
        <path id="Path_876119" data-name="Path 876119" d="M66.323,206.9a.833.833,0,0,1,1,1.245l-4.077,4.847c-.385.334-.578.495-1.087.225a9.191,9.191,0,0,1-2.032-2.254c-.1-1.568,2-.515,2.383.312Z" transform="translate(-52.77 -181.566)" fill="#0c2d70"/>
        <path id="Path_876120" data-name="Path 876120" d="M140.915,213.122l6.691-.019a.854.854,0,0,1,0,1.7c-1.936.3-4.574-.2-6.587,0a.848.848,0,0,1-.1-1.678" transform="translate(-123.084 -187.05)" fill="#0c2d70"/>
        <path id="Path_876121" data-name="Path 876121" d="M148.077,100.814a1.1,1.1,0,0,1-.636.159c-2.145.185-4.552-.145-6.727-.008a.818.818,0,0,1,.127-1.579c2.049.205,4.739-.305,6.709,0a.854.854,0,0,1,.526,1.428" transform="translate(-123.029 -87.148)" fill="#0c2d70"/>
        <path id="Path_876122" data-name="Path 876122" d="M140.653,247.124l6.079-.018a.794.794,0,0,1,0,1.574,41.025,41.025,0,0,1-5.975,0,.8.8,0,0,1-.1-1.555" transform="translate(-122.944 -216.896)" fill="#0c2d70"/>
        <path id="Path_876123" data-name="Path 876123" d="M156.963,27.124a.854.854,0,0,1-.513,1.442H134.31c-1.021-.131-.977-1.708.123-1.6h21.894a1.082,1.082,0,0,1,.636.159" transform="translate(-117.244 -23.664)" fill="#0c2d70"/>
        <path id="Path_876124" data-name="Path 876124" d="M102.351,27.813c-.349.431-2.009.481-2.233-.2-.391-1.194,1.152-1.32,1.941-1.083a.9.9,0,0,1,.292,1.286" transform="translate(-87.823 -23.198)" fill="#0c2d70"/>
        <path id="Path_876125" data-name="Path 876125" d="M69.132,26.885a1.405,1.405,0,0,1,.257.736c-.156,1.056-2.851,1.1-2.4-.436.183-.62,1.841-.586,2.143-.3" transform="translate(-58.755 -23.425)" fill="#0c2d70"/>
        <path id="Path_876126" data-name="Path 876126" d="M33.839,26.715c.408-.388,2.743-.391,2.078,1.04-.229.493-1.456.514-1.863.332a.92.92,0,0,1-.215-1.372" transform="translate(-29.512 -23.255)" fill="#0c2d70"/>
      </g>
    </g>
  </g>
</svg>
